<svg width="62" height="82" viewBox="0 0 62 82" fill="none" xmlns="http://www.w3.org/2000/svg">
<path d="M32.2684 24.2045L31.5821 22.8084C31.5106 22.634 31.4036 22.4764 31.268 22.3456C31.0857 22.1927 30.8379 22.1456 30.6329 22.0255C30.0449 21.6803 29.9677 20.8772 29.9609 20.1968C29.9542 19.7508 30.013 19.1998 30.4271 19.0334C30.5605 18.9894 30.7011 18.9712 30.8413 18.9797L56.893 18.9024C57.0682 18.8891 57.2442 18.9141 57.4088 18.9755C57.9044 19.2006 57.8809 19.8995 57.7775 20.4371L57.5919 21.3964C57.5591 21.5644 57.518 21.75 57.3836 21.8584C57.2231 21.9877 56.993 21.9617 56.7889 21.9877C56.0917 22.0759 55.6683 22.779 55.3491 23.4048C54.3361 25.3931 53.4499 27.4418 52.4091 29.415C51.5943 30.9631 50.3713 31.9451 48.5863 32.0383C47.3338 32.1047 46.0553 32.0056 44.8012 32.0089C43.2951 32.0089 41.7865 32.1248 40.282 32.1156C38.854 32.1064 38.2963 32.0501 36.8876 31.6704C35.8577 31.3924 35.4545 30.9808 34.9043 30.045C34.2836 28.9874 33.856 27.9794 32.8867 26.1214C32.8867 26.1214 34.3356 25.3267 34.4205 24.7639C34.5053 24.2011 34.4205 23.687 33.557 23.9693C32.6935 24.2515 32.512 24.296 32.512 24.296" fill="black"/>
<path d="M32.3441 24.1612C32.2046 23.8579 32.0669 23.5538 31.9241 23.2523C31.8115 22.9881 31.6827 22.7312 31.5385 22.4828C31.3932 22.2577 31.195 22.1426 30.9505 22.0427C30.7296 21.9511 30.5347 21.8461 30.3944 21.6454C30.1366 21.2758 30.0954 20.7869 30.0811 20.3501C30.0694 19.9847 30.0374 19.4093 30.3936 19.1825C30.516 19.1174 30.6543 19.0883 30.7926 19.0985H32.2282L34.1728 19.0934L38.0561 19.0758L45.8605 19.0531L53.6372 19.0313L55.581 19.0262H56.5529C56.8242 19.0262 57.1736 18.9708 57.4156 19.122C57.7692 19.3438 57.7331 19.8923 57.6802 20.2476C57.6382 20.5332 57.5735 20.8154 57.5189 21.0985C57.476 21.3186 57.4676 21.705 57.2249 21.8058C57.0082 21.8948 56.7511 21.8436 56.526 21.9192C56.3223 21.9918 56.136 22.1063 55.9792 22.2552C55.6339 22.5744 55.4054 23.0011 55.1946 23.4152C54.6251 24.5358 54.1001 25.6765 53.5549 26.813C53.2836 27.3817 53.0106 27.9479 52.7284 28.5107C52.4822 28.9987 52.2445 29.4968 51.9396 29.9521C51.4524 30.6796 50.7846 31.2961 49.9622 31.6178C48.9492 32.0168 47.816 31.9446 46.7484 31.9186C46.1176 31.9034 45.4884 31.8791 44.855 31.8791C44.2217 31.8791 43.5698 31.9009 42.923 31.9244C41.7042 31.9681 40.4803 32.0261 39.2615 31.9631C38.8115 31.9412 38.3639 31.885 37.9225 31.7951C37.4261 31.6918 36.9145 31.5826 36.4399 31.3927C36.0912 31.2531 35.7811 31.0315 35.5361 30.7468C35.2737 30.4229 35.0446 30.0733 34.8523 29.7035C34.4508 28.9903 34.0963 28.2511 33.7343 27.5195C33.4918 27.0306 33.2448 26.544 32.9934 26.0596L32.948 26.2326C33.1622 26.1142 33.368 25.9806 33.5713 25.8428C33.8872 25.6236 34.2332 25.3758 34.4382 25.0432C34.6062 24.7777 34.6314 24.3241 34.4836 24.0452C34.2534 23.6068 33.6872 23.8016 33.3269 23.9192C33.0455 24.0108 32.7632 24.1124 32.476 24.1847C32.3281 24.2216 32.392 24.4493 32.5381 24.4123C32.6843 24.3754 32.8523 24.3199 33.0077 24.272C33.2597 24.1939 33.5058 24.0965 33.7637 24.0394C33.9107 24.0066 34.119 23.9772 34.2324 24.1049C34.324 24.2074 34.3265 24.372 34.3223 24.5014C34.3293 24.6475 34.2961 24.7927 34.2265 24.9214C34.0468 25.2112 33.7351 25.4296 33.4596 25.6202C33.2543 25.7635 33.0418 25.8961 32.8229 26.0176C32.7943 26.0349 32.7736 26.0626 32.7652 26.0949C32.7567 26.1272 32.7611 26.1615 32.7775 26.1906C33.2479 27.1003 33.6931 28.0235 34.1568 28.9374C34.334 29.2877 34.5172 29.6354 34.7137 29.9765C34.9141 30.3551 35.1595 30.7083 35.4445 31.0282C35.7158 31.3064 36.0455 31.521 36.4097 31.6565C36.9066 31.8346 37.4177 31.9701 37.9376 32.0614C38.9977 32.2739 40.0872 32.2638 41.1632 32.2436C42.4837 32.2184 43.8034 32.1328 45.1238 32.1454C45.774 32.1521 46.4242 32.179 47.0743 32.1916C47.6909 32.2025 48.3209 32.2193 48.9341 32.1437C49.8336 32.0408 50.6784 31.6589 51.3499 31.0517C52.1244 30.3452 52.5763 29.4044 53.0366 28.4813C53.6179 27.3145 54.1631 26.1293 54.7284 24.9533C55.0006 24.388 55.2685 23.8184 55.5684 23.2666C55.7876 22.8608 56.0598 22.419 56.4924 22.2115C56.72 22.1015 56.9578 22.1275 57.1972 22.0788C57.3095 22.0567 57.4132 22.003 57.4961 21.924C57.579 21.845 57.6376 21.7439 57.665 21.6328C57.7414 21.3398 57.8014 21.0428 57.8448 20.7432C57.9001 20.4964 57.938 20.246 57.9582 19.9939C57.9775 19.6016 57.9078 19.1422 57.5458 18.917C57.303 18.765 57.0014 18.7868 56.7276 18.7877H55.7272L47.701 18.8129L39.6739 18.8372L31.62 18.8624C31.3008 18.8624 30.9732 18.844 30.6548 18.87C30.5451 18.8742 30.4376 18.9018 30.3395 18.9511C30.2414 19.0004 30.155 19.0701 30.0862 19.1556C29.819 19.5008 29.8342 19.9956 29.8493 20.4156C29.8678 20.8608 29.9215 21.3396 30.1643 21.7268C30.2834 21.9197 30.4539 22.0755 30.6565 22.1771C30.9085 22.3014 31.1748 22.3602 31.3411 22.6063C31.4893 22.8522 31.6218 23.1072 31.7376 23.3699C31.8871 23.6672 32.0434 23.9579 32.1979 24.2552C32.2508 24.3544 32.392 24.267 32.3466 24.1712L32.3441 24.1612Z" fill="black"/>
<path d="M18.4145 49.9614C12.2851 55.0207 5.87166 65.7786 1.15758 71.5612C0.958496 71.8056 0.812336 72.1265 0.868616 72.4365C0.910616 72.6691 1.07694 72.8565 1.24158 73.0245C2.30447 74.1191 3.58034 74.9845 4.9905 75.5671C5.1122 75.618 5.24526 75.6354 5.37594 75.6176C5.50663 75.5998 5.63019 75.5474 5.73388 75.4659C5.83756 75.3844 5.91761 75.2767 5.96575 75.1539C6.0139 75.0311 6.02839 74.8977 6.00774 74.7675C5.89266 74.0274 5.46006 73.1286 5.78514 72.4507C5.90303 72.2391 6.05778 72.0502 6.2421 71.893C13.2208 65.2099 20.8909 60.049 25.8863 51.7825" fill="white"/>
<path d="M18.3566 49.9031C16.8547 51.1421 15.5006 52.5566 14.2171 54.0191C12.7798 55.6562 11.4367 57.3732 10.1313 59.117C8.8083 60.881 7.5273 62.6795 6.24714 64.4787C5.06274 66.1445 3.88254 67.8144 2.6553 69.449C2.37978 69.8161 2.10258 70.1807 1.82034 70.541C1.55238 70.8846 1.26258 71.213 1.00554 71.5667C0.838737 71.7804 0.745353 72.0423 0.739258 72.3134C0.745978 72.6057 0.907258 72.8418 1.10046 73.0484C1.50526 73.4768 1.94559 73.8703 2.41674 74.2244C2.88963 74.5841 3.39014 74.906 3.91362 75.1871C4.1701 75.3231 4.43078 75.4497 4.69566 75.5667C4.93002 75.6692 5.15514 75.7717 5.41722 75.728C5.63126 75.6905 5.82298 75.5728 5.95341 75.399C6.08385 75.2252 6.14322 75.0083 6.11946 74.7923C6.05394 74.2353 5.81118 73.712 5.78346 73.1492C5.756 72.8751 5.82137 72.5997 5.9691 72.3672C6.13206 72.1278 6.36894 71.9346 6.57726 71.7363C7.00958 71.3259 7.44582 70.919 7.88598 70.5158C8.7579 69.7161 9.64158 68.9307 10.5295 68.1504C12.2809 66.6115 14.0516 65.0936 15.7828 63.5304C17.4889 61.9915 19.1579 60.4089 20.722 58.7256C22.3055 57.0384 23.7531 55.2288 25.0514 53.3135C25.3756 52.8313 25.6797 52.3374 25.9804 51.8409C25.9946 51.8169 25.9986 51.7882 25.9916 51.7612C25.9846 51.7342 25.9671 51.711 25.943 51.6969C25.919 51.6827 25.8903 51.6787 25.8633 51.6857C25.8362 51.6927 25.8131 51.7102 25.799 51.7343C24.5916 53.7076 23.2171 55.5737 21.6905 57.3119C20.1897 59.0129 18.6002 60.6336 16.9286 62.1671C15.2595 63.7194 13.5375 65.2137 11.8197 66.7115C10.0708 68.2369 8.32698 69.7682 6.63942 71.3625C6.42942 71.5616 6.21354 71.7573 6.0111 71.9657C5.8176 72.1493 5.67666 72.3813 5.60286 72.6377C5.46846 73.1643 5.64402 73.7221 5.7759 74.2337C5.8389 74.4756 5.9439 74.7662 5.89518 75.0182C5.87226 75.1249 5.8224 75.2239 5.75034 75.3058C5.67829 75.3877 5.58644 75.4498 5.48358 75.4861C5.22654 75.576 4.9989 75.4617 4.76622 75.3576C4.50246 75.2391 4.24206 75.1106 3.98838 74.972C3.47943 74.6948 2.99274 74.3786 2.53266 74.0262C2.05326 73.6693 1.60987 73.2664 1.20882 72.8233C1.00386 72.5889 0.919018 72.3294 1.02318 72.027C1.10718 71.7876 1.27518 71.6011 1.43394 71.4071C1.70162 71.075 1.96538 70.739 2.22522 70.3991C3.41466 68.8577 4.54698 67.2726 5.67678 65.6867C6.93678 63.9227 8.18418 62.1494 9.4635 60.3997C10.7428 58.65 12.0675 56.9036 13.4543 55.2236C14.7143 53.6973 16.0348 52.2122 17.4947 50.8733C17.8139 50.5809 18.1399 50.2953 18.4725 50.0198C18.5565 49.9518 18.4372 49.8359 18.3566 49.9031Z" fill="black"/>
<path d="M6.00768 74.7718C5.8926 74.0317 5.46 73.1329 5.78508 72.455C5.90297 72.2434 6.05772 72.0545 6.24204 71.8973C7.41804 70.7734 8.60832 69.694 9.80448 68.6339C8.37262 67.6472 7.03246 66.5336 5.8002 65.3066C4.13448 67.6469 2.56788 69.8292 1.15416 71.5621C0.955078 71.8066 0.808918 72.1274 0.865198 72.4374C0.907198 72.6701 1.07352 72.8574 1.23816 73.0254C2.30106 74.1201 3.57692 74.9854 4.98708 75.5681C5.10865 75.6195 5.24174 75.6375 5.37259 75.6202C5.50344 75.6029 5.6273 75.551 5.73136 75.4698C5.83543 75.3886 5.91591 75.2811 5.96448 75.1584C6.01306 75.0357 6.02798 74.9022 6.00768 74.7718Z" fill="black"/>
<path d="M6.96551 69.509C7.16731 69.7181 7.38192 69.9145 7.60811 70.097C7.72319 70.1894 7.83995 70.2793 7.95923 70.365C8.02223 70.4095 8.09111 70.4792 8.17595 70.4557C8.19958 70.4495 8.22116 70.4371 8.23853 70.4199C8.2559 70.4028 8.26844 70.3813 8.27491 70.3577C8.28137 70.3342 8.28153 70.3093 8.27537 70.2857C8.2692 70.262 8.25693 70.2404 8.23979 70.223C8.2202 70.2034 8.19468 70.1908 8.16719 70.1871C8.1397 70.1835 8.11178 70.189 8.08775 70.2028C8.06534 70.2163 8.04791 70.2367 8.03806 70.2609C8.02822 70.2852 8.0265 70.3119 8.03315 70.3372C8.03825 70.3564 8.04831 70.3739 8.06232 70.3879C8.07634 70.4019 8.0938 70.4119 8.11295 70.417L8.02895 70.3028C8.02965 70.3182 8.03248 70.3335 8.03735 70.3482L8.04995 70.2499V70.2574L8.12639 70.1986H8.11463H8.18351C8.19611 70.1986 8.17595 70.1986 8.17007 70.1928C8.16419 70.1869 8.14655 70.1793 8.13479 70.1726L8.05583 70.1239L7.89959 70.0374C7.80299 69.9727 7.70891 69.9055 7.61567 69.8358C7.43143 69.6966 7.25425 69.5483 7.08479 69.3914C7.06897 69.3756 7.04752 69.3667 7.02515 69.3667C7.00278 69.3667 6.98133 69.3756 6.96551 69.3914C6.94969 69.4072 6.9408 69.4287 6.9408 69.451C6.9408 69.4734 6.94969 69.4949 6.96551 69.5107V69.509ZM6.14483 70.4683C6.46201 70.7687 6.81395 71.0301 7.19315 71.247C7.21643 71.2607 7.2442 71.2646 7.27035 71.2578C7.2965 71.251 7.31889 71.2341 7.33259 71.2108C7.34629 71.1876 7.35018 71.1598 7.34341 71.1336C7.33663 71.1075 7.31975 71.0851 7.29647 71.0714C6.92781 70.8676 6.58055 70.6272 6.25991 70.354C6.18095 70.2868 6.06755 70.396 6.14483 70.4683ZM5.28551 71.5233C5.41504 71.6457 5.55164 71.7604 5.69459 71.8669C5.76347 71.9173 5.83319 71.9668 5.90375 72.0139C5.9771 72.067 6.054 72.1149 6.13391 72.1575C6.15589 72.1671 6.18061 72.1682 6.2034 72.1608C6.2262 72.1534 6.2455 72.1379 6.25768 72.1173C6.26986 72.0967 6.27408 72.0723 6.26954 72.0487C6.265 72.0252 6.25201 72.0042 6.23303 71.9895C6.16331 71.9408 6.08771 71.9005 6.01547 71.8551C5.94323 71.8098 5.87267 71.7627 5.80211 71.714C5.66435 71.6182 5.52743 71.52 5.39555 71.415C5.38028 71.4017 5.36074 71.3944 5.34053 71.3944C5.32032 71.3944 5.30078 71.4017 5.28551 71.415C5.27119 71.4297 5.26318 71.4494 5.26318 71.47C5.26318 71.4905 5.27119 71.5103 5.28551 71.525V71.5233Z" fill="#0072BC"/>
<path d="M14.2903 51.9746C12.2743 59.6606 13.3562 72.1413 12.9076 79.5863C12.8892 79.9013 12.958 80.2473 13.1848 80.4657C13.3528 80.6295 13.5998 80.6858 13.8325 80.727C15.3348 80.9943 16.8759 80.9511 18.3609 80.6001C18.4893 80.5702 18.6074 80.5065 18.703 80.4157C18.7986 80.3249 18.8682 80.2102 18.9047 80.0835C18.9411 79.9568 18.9431 79.8227 18.9104 79.695C18.8778 79.5673 18.8116 79.4506 18.7188 79.3569C18.1938 78.8235 17.3176 78.3489 17.1849 77.6072C17.1569 77.3665 17.172 77.1228 17.2294 76.8873C18.9884 67.3861 22.198 58.724 21.4185 49.0884" fill="white"/>
<path d="M14.2108 51.9519C13.7404 53.7445 13.4716 55.5883 13.2868 57.4296C13.076 59.5027 12.9794 61.585 12.9323 63.6674C12.8845 65.7934 12.8853 67.9203 12.8971 70.0464C12.9088 72.0439 12.929 74.0414 12.9063 76.0381C12.8962 76.9285 12.8777 77.8189 12.8391 78.7084C12.8215 79.1284 12.74 79.5862 12.8223 79.9995C12.8626 80.2341 12.9846 80.4469 13.1667 80.6001C13.3826 80.7681 13.6598 80.816 13.9227 80.8605C15.1694 81.0682 16.4421 81.0645 17.6876 80.8496C18.1353 80.7723 18.7015 80.7345 18.9425 80.2851C19.0307 80.1175 19.0616 79.9256 19.0306 79.7387C18.9995 79.5518 18.9081 79.3803 18.7703 79.2502C18.4343 78.9142 18.0253 78.6463 17.6968 78.2952C17.532 78.132 17.406 77.934 17.3281 77.7156C17.2306 77.4048 17.3079 77.0797 17.3667 76.7689C17.6011 75.5173 17.8615 74.2707 18.137 73.0275C18.6796 70.5722 19.2785 68.1303 19.8279 65.6767C20.3697 63.2583 20.8628 60.8265 21.1988 58.3687C21.5348 55.9108 21.7129 53.4194 21.6373 50.933C21.6188 50.3164 21.5759 49.7016 21.5272 49.085C21.5163 48.9506 21.3055 48.9498 21.3164 49.085C21.4994 51.5458 21.4601 54.0182 21.1988 56.472C20.9535 58.897 20.5268 61.2994 20.0287 63.6834C19.5305 66.0673 18.9493 68.4537 18.4007 70.8343C18.1219 72.0464 17.848 73.261 17.5935 74.479C17.4653 75.095 17.3421 75.711 17.2239 76.327C17.1223 76.8579 16.9425 77.4358 17.1844 77.9524C17.3768 78.3624 17.7464 78.6648 18.0874 78.947C18.3881 79.199 18.8602 79.4804 18.8249 79.9281C18.7787 80.5044 18.1311 80.5506 17.6859 80.627C16.4309 80.8418 15.1484 80.8398 13.8941 80.6211C13.6119 80.5707 13.3154 80.5077 13.1575 80.2423C13.0247 80.0205 13.0155 79.7635 13.0306 79.5123C13.0793 78.6723 13.1071 77.8399 13.1239 77.0024C13.1633 75.0897 13.1507 73.1762 13.139 71.2635C13.1272 69.1904 13.1104 67.1173 13.1331 65.0475C13.1558 62.9778 13.2171 60.908 13.3616 58.8441C13.4935 56.9617 13.6976 55.0776 14.0831 53.2279C14.1688 52.8163 14.2646 52.4069 14.3704 51.9998C14.372 51.9804 14.3668 51.961 14.3556 51.945C14.3445 51.929 14.3281 51.9174 14.3094 51.9122C14.2906 51.9069 14.2706 51.9083 14.2528 51.9162C14.235 51.9241 14.2204 51.9379 14.2117 51.9553L14.2108 51.9519Z" fill="black"/>
<path d="M18.7185 79.3565C18.1935 78.8231 17.3174 78.3485 17.1847 77.6067C17.1567 77.366 17.1718 77.1223 17.2292 76.8869C17.5249 75.2909 17.8617 73.7159 18.2137 72.1568C16.4765 72.1918 14.7396 72.0704 13.0242 71.7939C13.0401 74.6667 13.0435 77.3539 12.9091 79.5858C12.8906 79.9008 12.9595 80.2469 13.1863 80.4653C13.3543 80.6291 13.6013 80.6853 13.8339 80.7265C15.3363 80.9938 16.8774 80.9506 18.3624 80.5997C18.4906 80.5695 18.6085 80.5057 18.7039 80.4148C18.7993 80.3239 18.8687 80.2092 18.905 80.0825C18.9413 79.9558 18.9432 79.8218 18.9104 79.6942C18.8776 79.5665 18.8114 79.45 18.7185 79.3565Z" fill="black"/>
<path d="M16.4137 74.5231C16.7204 74.5794 17.0304 74.6156 17.3419 74.6315C17.4956 74.6399 17.6502 74.6416 17.8039 74.6416C17.8376 74.6459 17.8719 74.6402 17.9025 74.6253C17.9331 74.6104 17.9587 74.5868 17.9761 74.5576C17.9857 74.5392 17.9911 74.5189 17.9917 74.4981C17.9924 74.4774 17.9883 74.4568 17.9798 74.4379C17.9713 74.4189 17.9586 74.4022 17.9427 74.3889C17.9268 74.3755 17.908 74.366 17.8879 74.361C17.8613 74.3538 17.833 74.3555 17.8075 74.366C17.7819 74.3765 17.7606 74.3951 17.7468 74.419V74.4232C17.7342 74.446 17.7292 74.4722 17.7325 74.498C17.7358 74.5239 17.7473 74.548 17.7652 74.5668C17.7793 74.5812 17.7969 74.5914 17.8162 74.5966C17.8356 74.6018 17.856 74.6016 17.8753 74.5962L17.7594 74.5651C17.7698 74.5765 17.782 74.5862 17.7955 74.5937L17.7375 74.5173V74.5257L17.7703 74.4014C17.8089 74.3837 17.8089 74.3787 17.7703 74.3862H17.7426L17.6443 74.3921C17.588 74.3921 17.5326 74.3972 17.4763 74.3988H17.126C16.8932 74.3938 16.6608 74.3769 16.4296 74.3484C16.3356 74.3367 16.3137 74.498 16.4078 74.5164L16.4137 74.5231ZM16.3305 75.784C16.7558 75.8409 17.1864 75.8472 17.6132 75.8025C17.64 75.802 17.6656 75.7912 17.6846 75.7722C17.7036 75.7533 17.7144 75.7277 17.7148 75.7008C17.7148 75.6739 17.7041 75.648 17.6851 75.629C17.666 75.6099 17.6401 75.5992 17.6132 75.5992C17.1874 75.6492 16.7578 75.6568 16.3305 75.6219C16.2238 75.6135 16.2297 75.7705 16.3305 75.784ZM16.249 77.1423C16.4242 77.1659 16.6006 77.1791 16.7774 77.1818C16.9561 77.1884 17.1351 77.1802 17.3125 77.1574C17.4225 77.1389 17.3965 76.9617 17.2856 76.9642C17.1134 76.9642 16.9404 76.9894 16.7673 76.9928C16.5943 76.9961 16.4212 76.9928 16.249 76.9869C16.2285 76.9869 16.2087 76.995 16.1941 77.0095C16.1795 77.0239 16.1711 77.0436 16.1709 77.0641C16.1723 77.0844 16.181 77.1035 16.1953 77.1179C16.2097 77.1322 16.2288 77.1409 16.249 77.1423ZM10.968 32.0679C10.36 33.7155 10.0685 35.463 10.1086 37.2188C10.1481 38.8526 10.474 40.4645 10.7991 42.0664L12.6891 51.3904C12.8252 52.0624 12.9646 52.7403 13.2922 53.3392C14.2944 55.1721 16.795 55.6912 18.8094 55.1444C20.4894 54.6874 22.0383 53.6424 23.7763 53.6576C24.77 53.666 25.7343 54.0271 26.7289 54.0532C27.3819 54.0653 28.0295 53.9341 28.6263 53.6688C29.2231 53.4035 29.7545 53.0106 30.183 52.5177C30.9062 51.6777 31.3111 50.5554 32.1821 49.8658C33.1271 49.1174 34.477 48.9947 35.3565 48.1698C36.236 47.345 36.4309 46.0077 37.0651 44.9678C37.4313 44.3663 37.9446 43.8682 38.352 43.2936C38.7594 42.7191 39.0676 42.0135 38.9324 41.3222C38.7526 40.4024 37.8757 39.8102 37.0701 39.3322C32.797 36.792 28.3123 34.43 23.4285 33.5009C23.1881 33.4446 22.9408 33.424 22.6943 33.4396C22.4314 33.469 22.1853 33.5757 21.9383 33.6597C21.1993 33.8991 20.4111 33.9451 19.6492 33.7932C18.8873 33.6412 18.1771 33.2965 17.5863 32.792C16.8597 32.8953 15.2066 33.8142 10.9713 32.0687" fill="#0072BC"/>
<path d="M17.1157 6.99542C17.511 6.77673 17.9652 6.68854 18.4135 6.74342C18.8588 6.8005 19.2911 6.93287 19.692 7.13486C20.3044 7.42634 20.884 7.81862 21.2922 8.36042C22.2431 9.62042 22.0969 11.4281 22.8882 12.7973C23.047 13.0711 23.2427 13.3265 23.3678 13.618C23.493 13.9095 23.5358 14.2572 23.3905 14.5378C23.2924 14.7036 23.1569 14.8442 22.9949 14.9485C22.6169 15.2199 22.1549 15.4223 21.6946 15.3433C21.4577 15.3022 21.2368 15.1888 20.9974 15.1636C20.7454 15.1367 20.4934 15.2098 20.2414 15.2266C19.7729 15.2468 19.3121 15.102 18.9394 14.8175C18.57 14.533 18.272 14.1663 18.0691 13.7465C17.5995 12.8046 17.5157 11.7168 17.8356 10.7141C17.9297 10.426 18.0582 10.1412 18.0708 9.83798C18.0834 9.53474 17.9423 9.19622 17.6508 9.09626" fill="black"/>
<path d="M17.1582 7.06808C17.8621 6.67832 18.7038 6.82784 19.4094 7.13108C20.0629 7.41164 20.6963 7.80308 21.1432 8.37008C21.9933 9.44276 21.9882 10.9052 22.4418 12.1501C22.5577 12.4683 22.7072 12.7733 22.8879 13.0598C23.0844 13.3706 23.3196 13.6932 23.3465 14.072C23.3651 14.2507 23.3176 14.43 23.2129 14.576C23.0994 14.7135 22.9626 14.83 22.8089 14.9204C22.5065 15.1153 22.1503 15.2648 21.7833 15.227C21.5884 15.2068 21.4069 15.1245 21.2188 15.0758C21.0297 15.0297 20.8335 15.0203 20.6409 15.0481C20.4448 15.083 20.2461 15.1004 20.047 15.1002C19.8632 15.0894 19.6821 15.0503 19.5102 14.9842C18.8256 14.728 18.3468 14.0955 18.0763 13.4395C17.7956 12.7557 17.7137 12.0064 17.8403 11.2782C17.9083 10.8985 18.0679 10.5516 18.1603 10.1786C18.2393 9.86192 18.2368 9.5066 18.0377 9.23108C17.9519 9.11158 17.8322 9.02057 17.6941 8.96984C17.5261 8.90768 17.4581 9.17228 17.6211 9.23528C17.9335 9.35624 17.9671 9.7712 17.9075 10.0501C17.8567 10.2467 17.7953 10.4405 17.7235 10.6305C17.662 10.8124 17.6138 10.9986 17.5791 11.1874C17.4389 11.9507 17.5133 12.7379 17.7941 13.4613C18.0688 14.1568 18.5367 14.8204 19.2221 15.1522C19.574 15.3273 19.9687 15.3978 20.3595 15.3555C20.5686 15.3303 20.7795 15.2782 20.9945 15.3034C21.2095 15.3286 21.3843 15.4185 21.5825 15.463C21.9689 15.5521 22.3578 15.463 22.7064 15.2866C23.0197 15.1287 23.3784 14.8952 23.5271 14.5642C23.8723 13.8007 23.1726 13.1144 22.866 12.4777C22.2579 11.2177 22.3091 9.71492 21.543 8.51708C21.1449 7.8938 20.5409 7.44104 19.8849 7.11428C19.1818 6.764 18.3787 6.5078 17.5917 6.71024C17.4091 6.75726 17.2341 6.82964 17.0717 6.92528C17.0549 6.93751 17.0432 6.95554 17.0389 6.97589C17.0346 6.99624 17.038 7.01745 17.0485 7.03543C17.0589 7.05341 17.0757 7.06687 17.0955 7.07321C17.1153 7.07955 17.1368 7.07832 17.1557 7.06976L17.1582 7.06808Z" fill="black"/>
<path d="M20.6261 10.3394C20.4547 11.0186 20.4489 11.729 20.6093 12.4109C20.6639 12.6402 20.6933 12.9569 20.4724 13.0367C20.4067 13.052 20.3398 13.061 20.2724 13.0636C19.9843 13.1098 19.8424 13.4306 19.7416 13.7045C19.5265 14.2874 19.2107 14.9107 18.6269 15.1232C18.0431 15.3358 17.4156 15.0686 16.9082 14.7293C15.513 13.7969 14.5361 12.1068 14.8175 10.4528C14.9494 9.67836 15.3391 8.9652 15.8414 8.36124C16.2152 7.91184 16.668 7.50612 17.2174 7.30536C18.2086 6.94332 19.3669 7.33308 20.1154 8.07816C20.6278 8.5872 20.8714 9.65988 20.6261 10.3394Z" fill="white"/>
<path d="M14.893 10.4764C15.03 9.81111 15.355 9.20463 15.7582 8.66367C16.1421 8.14875 16.6335 7.64895 17.2492 7.42467C17.8137 7.21887 18.4294 7.26927 18.983 7.48263C19.5046 7.68423 20.033 8.04459 20.3052 8.54439C20.5908 9.06603 20.7033 9.74055 20.5387 10.3176C20.5059 10.4335 20.6697 10.4697 20.7134 10.3663C20.9368 9.83127 20.8377 9.16683 20.6193 8.64687C20.3766 8.06811 19.8969 7.65399 19.3417 7.37847C18.7638 7.09035 18.0951 6.96771 17.4592 7.11051C16.778 7.26339 16.2177 7.72875 15.7792 8.25207C15.2509 8.87955 14.8628 9.61623 14.7427 10.4361C14.7284 10.5343 14.8746 10.5797 14.8947 10.4781L14.893 10.4764Z" fill="black"/>
<path d="M20.5497 10.3203C20.3871 10.8712 20.3416 11.45 20.4161 12.0196C20.448 12.2539 20.5362 12.4933 20.5287 12.7311C20.5317 12.7651 20.5267 12.7994 20.5142 12.8312C20.5016 12.8629 20.4819 12.8914 20.4564 12.9142C20.4096 12.9343 20.3587 12.9435 20.3078 12.9411C20.2441 12.9463 20.1818 12.9616 20.123 12.9864C19.7248 13.1595 19.6374 13.6954 19.4728 14.0482C19.288 14.4421 19.0234 14.8512 18.5967 15.0091C18.0272 15.2191 17.4459 14.9251 16.9553 14.6538C16.8713 14.6059 16.7621 14.7311 16.8461 14.7958C17.2661 15.1217 17.8172 15.3729 18.3581 15.3107C18.8512 15.2544 19.2284 14.9335 19.4871 14.527C19.6179 14.3142 19.7276 14.0891 19.8147 13.855C19.8928 13.6559 19.9575 13.4215 20.1213 13.2729C20.2024 13.2086 20.3034 13.1744 20.4069 13.1763C20.462 13.1722 20.5156 13.1562 20.5639 13.1294C20.6122 13.1026 20.654 13.0655 20.6866 13.0209C20.8034 12.8529 20.7765 12.6202 20.7378 12.4329C20.5831 11.7531 20.5711 11.0486 20.7026 10.3639C20.7081 10.3437 20.7054 10.322 20.695 10.3037C20.6846 10.2855 20.6674 10.2721 20.6471 10.2665C20.6268 10.2609 20.6052 10.2636 20.5869 10.274C20.5686 10.2844 20.5552 10.3017 20.5497 10.3219V10.3203Z" fill="black"/>
<path d="M19.9601 11.3712C19.9284 11.372 19.8968 11.3762 19.866 11.3838C19.8468 11.3899 19.828 11.3972 19.8097 11.4057C19.7917 11.4152 19.7751 11.4271 19.7602 11.4409C19.7455 11.4542 19.7325 11.4691 19.7215 11.4855C19.7107 11.5022 19.7027 11.5207 19.698 11.5401C19.6948 11.5547 19.6928 11.5696 19.6921 11.5846C19.6917 11.5899 19.6917 11.5952 19.6921 11.6006C19.6942 11.63 19.7026 11.6586 19.7165 11.6846C19.7269 11.7025 19.7418 11.7174 19.7598 11.7278C19.7778 11.7381 19.7982 11.7435 19.819 11.7434C19.8483 11.7413 19.8769 11.7333 19.903 11.7198C19.9207 11.7111 19.9366 11.6991 19.95 11.6846C19.9856 11.648 20.006 11.5994 20.0071 11.5485C20.006 11.5169 19.9932 11.487 19.971 11.4645C19.9602 11.4529 19.9466 11.4442 19.9315 11.4393C19.917 11.4309 19.9004 11.4271 19.8837 11.4284C19.8521 11.4293 19.8221 11.4422 19.7997 11.4645C19.7884 11.4754 19.7794 11.4885 19.7732 11.5029C19.767 11.5173 19.7637 11.5328 19.7635 11.5485C19.764 11.5535 19.764 11.5586 19.7635 11.5636L19.7677 11.5308C19.7668 11.5372 19.7652 11.5434 19.7627 11.5493L19.7753 11.5199C19.7726 11.5259 19.7692 11.5315 19.7652 11.5367L19.7837 11.5124C19.7793 11.5183 19.7743 11.5236 19.7686 11.5283L19.7929 11.5098L19.7778 11.5182L19.8064 11.5065L19.7896 11.5107L19.9231 11.5653C19.9206 11.5613 19.9183 11.557 19.9164 11.5527L19.9282 11.5804C19.9257 11.5745 19.924 11.5683 19.9231 11.5619V11.593C19.9223 11.5846 19.9223 11.5762 19.9231 11.5678V11.5989C19.9254 11.5848 19.929 11.571 19.9341 11.5577L19.9231 11.5838C19.9271 11.5754 19.9319 11.5676 19.9374 11.5602L19.9206 11.5812C19.93 11.5694 19.9407 11.5587 19.9525 11.5493L19.9332 11.5644C19.9551 11.5485 19.9794 11.5334 20.0029 11.5191C20.0176 11.5099 20.029 11.4964 20.0357 11.4804C20.042 11.4636 20.042 11.4451 20.0357 11.4284C20.0317 11.4152 20.0248 11.4032 20.0155 11.3931C20.0004 11.3785 19.9803 11.3701 19.9593 11.3696L19.9601 11.3712ZM19.6224 10.8076C19.6107 10.7975 19.6149 10.8 19.6359 10.8168C19.6451 10.8233 19.6553 10.8281 19.6661 10.8311L19.6938 10.8361C19.7148 10.8361 19.7367 10.8446 19.7577 10.8496C19.7975 10.8582 19.8368 10.8695 19.8753 10.8832L19.9013 10.8941C19.866 10.8815 19.9013 10.8941 19.9072 10.8941L19.9626 10.9193C19.9231 10.9017 19.9542 10.9151 19.9626 10.9193C20.0017 10.9349 20.0391 10.9543 20.0743 10.9773L20.0399 10.9504C20.0583 10.9667 20.0776 10.9818 20.0979 10.9958L20.0651 10.9706L20.0239 10.9V10.905C20.0316 10.931 20.0457 10.9546 20.065 10.9737C20.0842 10.9928 20.1079 11.0067 20.134 11.0142C20.1606 11.0213 20.1887 11.0213 20.2153 11.0142C20.242 11.0072 20.2664 10.9933 20.286 10.9739C20.3147 10.9461 20.3334 10.9096 20.339 10.87C20.3446 10.8305 20.3369 10.7902 20.3171 10.7555C20.3016 10.7307 20.2813 10.7093 20.2573 10.6925C20.2334 10.6758 20.2063 10.6641 20.1777 10.6581C20.113 10.6412 20.0469 10.6303 19.9803 10.6253H19.8173C19.7887 10.6253 19.7602 10.6253 19.7333 10.6295H19.6905C19.673 10.631 19.6559 10.6356 19.6401 10.6429C19.634 10.6461 19.6283 10.65 19.6233 10.6547C19.6107 10.6648 19.6123 10.6639 19.6233 10.6547C19.6107 10.6621 19.6003 10.6727 19.5931 10.6854C19.5859 10.698 19.5821 10.7124 19.5821 10.7269C19.5821 10.7415 19.5859 10.7558 19.5931 10.7685C19.6003 10.7812 19.6107 10.7918 19.6233 10.7992L19.6224 10.8076ZM17.4855 10.6959H17.4955H17.4905L17.5014 10.7026C17.4913 10.6925 17.5098 10.7026 17.5014 10.7026C17.5034 10.705 17.5057 10.7073 17.5081 10.7093C17.5081 10.7093 17.5174 10.7202 17.5081 10.7093C17.4989 10.6984 17.5123 10.7219 17.5149 10.7236C17.5174 10.7253 17.5098 10.7076 17.5149 10.7186V10.7295C17.5155 10.7336 17.5155 10.7379 17.5149 10.7421V10.7362C17.5152 10.7384 17.5152 10.7407 17.5149 10.7429V10.7816C17.5149 10.7614 17.5149 10.7858 17.5149 10.7816C17.5096 10.813 17.5015 10.844 17.4905 10.8739C17.4905 10.884 17.4997 10.8555 17.4905 10.8739L17.4855 10.884C17.4855 10.8908 17.4779 10.8966 17.4737 10.9034L17.4678 10.9126C17.4678 10.905 17.4771 10.9008 17.4678 10.9126C17.4621 10.9186 17.4559 10.9242 17.4493 10.9294L17.5837 10.947C17.5753 10.9328 17.5888 10.9622 17.5837 10.9538C17.5787 10.9454 17.5837 10.9756 17.5837 10.9613V10.9697C17.5837 10.9596 17.5905 10.9697 17.5837 10.9764C17.5859 10.9743 17.5876 10.9717 17.5888 10.9689C17.5795 10.9798 17.577 10.9832 17.5821 10.9781C17.5821 10.9781 17.5585 10.9848 17.577 10.9823C17.5992 10.9757 17.6181 10.961 17.6299 10.9411C17.639 10.9258 17.6433 10.9082 17.6422 10.8904C17.6411 10.8726 17.6347 10.8556 17.6239 10.8415C17.613 10.8274 17.5982 10.8169 17.5813 10.8113C17.5644 10.8057 17.5463 10.8053 17.5291 10.8101C17.5072 10.8164 17.4871 10.8276 17.4701 10.8429C17.4532 10.8581 17.4399 10.8769 17.4312 10.898C17.4226 10.9191 17.4188 10.9419 17.4202 10.9646C17.4216 10.9873 17.4281 11.0095 17.4393 11.0294C17.4456 11.0409 17.4546 11.0508 17.4655 11.0583C17.4764 11.0658 17.4889 11.0705 17.502 11.0723C17.5151 11.074 17.5284 11.0726 17.5408 11.0682C17.5533 11.0638 17.5645 11.0565 17.5737 11.047C17.6403 10.9762 17.678 10.883 17.6795 10.7858C17.6841 10.7342 17.6733 10.6824 17.6484 10.6371C17.6355 10.6154 17.6181 10.5967 17.5974 10.5822C17.5767 10.5677 17.5531 10.5578 17.5283 10.5531C17.5078 10.5482 17.4862 10.5512 17.4678 10.5615C17.4548 10.5693 17.4443 10.5808 17.4377 10.5944C17.4311 10.6081 17.4287 10.6234 17.4306 10.6385C17.4326 10.6536 17.4389 10.6677 17.4488 10.6793C17.4587 10.6908 17.4717 10.6992 17.4863 10.7034L17.4855 10.6959ZM18.7917 13.5073L18.8211 13.4906C18.8211 13.4906 18.8429 13.4805 18.8278 13.4863C18.8127 13.4922 18.832 13.4863 18.8353 13.4863C18.8565 13.4787 18.8785 13.4737 18.9009 13.4712H18.8765C18.9044 13.4676 18.9326 13.4676 18.9605 13.4712H18.9353C18.9683 13.4765 19.0007 13.4853 19.0319 13.4973C19.0546 13.5041 19.079 13.5024 19.1004 13.4923C19.1218 13.4823 19.1388 13.4646 19.148 13.4428C19.1572 13.421 19.1579 13.3965 19.1501 13.3742C19.1424 13.3518 19.1266 13.3331 19.1058 13.3217C19.0875 13.3113 19.068 13.3028 19.0479 13.2965C19.0273 13.2908 19.0062 13.2872 18.9849 13.2856C18.9489 13.281 18.9125 13.281 18.8765 13.2856C18.8073 13.2968 18.7422 13.3257 18.6875 13.3696C18.6698 13.3832 18.6582 13.4032 18.6553 13.4254C18.6524 13.4475 18.6584 13.4699 18.672 13.4876C18.6855 13.5053 18.7056 13.5169 18.7278 13.5198C18.7499 13.5227 18.7723 13.5167 18.79 13.5031L18.7917 13.5073Z" fill="black"/>
<path d="M20.8742 9.1335C20.7062 9.49554 20.3534 9.73326 20.0006 9.91974C19.4195 10.2287 18.7972 10.453 18.1526 10.5859C18.1403 10.4408 18.0802 10.3039 17.9817 10.1967C17.8831 10.0895 17.7518 10.0181 17.6083 9.99366C17.4637 9.97481 17.3168 9.99816 17.1852 10.0609C17.0536 10.1237 16.9429 10.2231 16.8666 10.3473C16.7934 10.4732 16.7522 10.6152 16.7465 10.7607C16.7408 10.9062 16.7707 11.051 16.8338 11.1823C16.2231 11.6714 15.4832 11.9724 14.7044 12.0483C14.6685 12.0552 14.6313 12.0502 14.5986 12.034C14.5805 12.0183 14.566 11.999 14.556 11.9773C14.546 11.9555 14.5407 11.9319 14.5406 11.908C14.4146 11.0059 14.3726 10.0726 14.5708 9.17802C14.7447 8.39262 15.163 7.33002 16.0257 7.09398C16.5549 6.94698 17.2017 6.84198 17.7494 6.93186C17.788 6.93858 16.9094 6.90246 16.9472 6.90078C16.9988 6.89535 17.0495 6.88262 17.0976 6.86298C17.6085 6.68751 18.1618 6.67811 18.6784 6.8361C19.1824 6.98982 19.6167 7.29306 20.0401 7.6005C20.4903 7.92726 20.9422 8.2725 21.2472 8.73786C21.2785 8.7752 21.3017 8.81874 21.3152 8.86563C21.3286 8.91251 21.3321 8.96171 21.3253 9.01002C21.2682 9.21246 20.938 9.19482 20.8364 9.37878" fill="black"/>
<path d="M20.8075 9.09607C20.5874 9.53372 20.1161 9.76807 19.6928 9.96632C19.1934 10.201 18.6678 10.375 18.127 10.4846L18.2614 10.5871C18.2517 10.468 18.2142 10.3528 18.1521 10.2507C18.0899 10.1487 18.0048 10.0626 17.9034 9.99923C17.8021 9.93591 17.6874 9.89715 17.5684 9.88604C17.4494 9.87493 17.3295 9.89177 17.2181 9.93523C16.6931 10.1402 16.531 10.7442 16.7477 11.2347L16.7637 11.1121C16.2601 11.5058 15.6692 11.7725 15.0409 11.8899C14.9636 11.9042 14.8855 11.9168 14.8082 11.9269C14.7691 11.9357 14.729 11.9396 14.6889 11.9386C14.6486 11.9319 14.6536 11.9218 14.6461 11.879C14.6167 11.7001 14.5999 11.5178 14.5831 11.3372C14.5495 10.9869 14.5377 10.6348 14.5478 10.283C14.5613 9.68044 14.6748 9.08432 14.8838 8.51899C15.0518 8.07211 15.3122 7.60675 15.7288 7.34299C15.9968 7.17499 16.3286 7.12123 16.6352 7.06915C16.8204 7.0375 17.0076 7.01841 17.1955 7.01203C17.3709 6.99883 17.5472 7.00758 17.7205 7.03807L17.6701 6.84739L17.7541 6.81379C17.6232 6.81799 17.4921 6.81378 17.3618 6.80119L17.0997 6.78943H17.0048C16.9931 6.7882 16.9812 6.7882 16.9695 6.78943C16.93 6.79448 16.9359 6.73567 17.0308 6.82135L16.9468 7.01623C17.1308 7.00027 17.308 6.91291 17.4903 6.87931C17.6889 6.8431 17.8912 6.83154 18.0926 6.84487C18.5017 6.87822 18.8978 7.00433 19.2509 7.21363C19.5905 7.41418 19.9165 7.63669 20.227 7.87975C20.5388 8.1024 20.8183 8.36698 21.0578 8.66599C21.1149 8.74075 21.2258 8.85836 21.2165 8.95831C21.2123 9.02636 21.151 9.05323 21.0956 9.08011C20.962 9.14563 20.8243 9.191 20.7428 9.32456C20.6613 9.45812 20.857 9.55472 20.9326 9.43544C21.0082 9.31616 21.1754 9.30775 21.2804 9.23971C21.3507 9.1986 21.4037 9.13335 21.4295 9.05609C21.4553 8.97883 21.4522 8.89483 21.4207 8.81971C21.3347 8.63359 21.2157 8.46455 21.0695 8.32075C20.9295 8.16973 20.7785 8.02934 20.6176 7.90075C20.2861 7.62713 19.9376 7.37464 19.5743 7.14475C19.2142 6.9028 18.8092 6.73569 18.3832 6.65335C18.1394 6.61157 17.8909 6.60366 17.6449 6.62983C17.5292 6.64255 17.4145 6.66247 17.3013 6.68947C17.1857 6.7318 17.0673 6.76576 16.9468 6.79111C16.8561 6.79951 16.7864 6.91459 16.8628 6.98599C16.916 7.01977 16.9793 7.03375 17.0417 7.02547L17.3458 7.03807C17.4449 7.03807 17.5441 7.04647 17.6432 7.04899C17.7028 7.04899 17.7835 7.06495 17.8288 7.01791C17.8427 7.00368 17.8526 6.9861 17.8576 6.9669C17.8626 6.94769 17.8626 6.92752 17.8575 6.90833C17.8525 6.88913 17.8425 6.87158 17.8286 6.85737C17.8148 6.84316 17.7975 6.83278 17.7784 6.82723C17.4424 6.75247 17.072 6.78859 16.7368 6.83395C16.4017 6.87931 16.0648 6.93559 15.7641 7.07419C15.2601 7.30771 14.9359 7.81171 14.7267 8.30647C14.4838 8.90494 14.3487 9.54168 14.3277 10.1872C14.3116 10.5852 14.3237 10.9838 14.3638 11.38C14.3823 11.5716 14.3991 11.7664 14.4335 11.9563C14.4663 12.1318 14.5931 12.1755 14.7553 12.1587C15.5441 12.0702 16.2912 11.7578 16.9082 11.2582C16.9236 11.2422 16.9335 11.2216 16.9363 11.1995C16.9392 11.1775 16.9349 11.1551 16.9241 11.1356C16.7561 10.7685 16.8813 10.2956 17.2753 10.141C17.6113 10.0092 18.0212 10.215 18.0497 10.5904C18.0501 10.6067 18.0542 10.6226 18.0616 10.637C18.0689 10.6515 18.0795 10.6641 18.0924 10.6739C18.1053 10.6837 18.1202 10.6906 18.1361 10.6938C18.152 10.6971 18.1684 10.6968 18.1841 10.6929C18.7537 10.5699 19.3061 10.3775 19.8289 10.12C20.2657 9.90584 20.7319 9.63451 20.9435 9.17419C20.9847 9.08431 20.8545 9.00619 20.8091 9.09607H20.8075Z" fill="black"/>
<path d="M14.6141 11.5796C14.5629 12.2776 14.5125 12.9757 14.4571 13.6737C14.4302 14.0192 14.4022 14.3642 14.3731 14.7086C14.3428 15.058 14.2891 15.4134 14.2891 15.7636C14.2891 15.8745 14.4629 15.9048 14.4873 15.7905C14.5463 15.4465 14.5847 15.0992 14.6024 14.7506C14.6343 14.3989 14.6623 14.047 14.6864 13.6947C14.7368 12.99 14.7771 12.286 14.7998 11.5796C14.804 11.4553 14.6167 11.4578 14.6083 11.5796H14.6141ZM17.3962 15.7939V15.7998L17.4349 15.7326H17.429L17.4903 15.725H17.4836L17.5306 15.7611C17.5357 15.7863 17.5382 15.7888 17.539 15.7678V15.7527L17.5449 15.7032C17.5449 15.6746 17.5516 15.646 17.5541 15.6192L17.5667 15.4402L17.5928 15.0824C17.5941 15.0678 17.5923 15.053 17.5876 15.0391C17.5829 15.0252 17.5754 15.0124 17.5655 15.0016C17.5555 14.9907 17.5435 14.9821 17.53 14.9761C17.5166 14.9702 17.5021 14.9671 17.4874 14.9671C17.4727 14.9671 17.4581 14.9702 17.4447 14.9761C17.4312 14.9821 17.4192 14.9907 17.4093 15.0016C17.3993 15.0124 17.3918 15.0252 17.3871 15.0391C17.3824 15.053 17.3806 15.0678 17.3819 15.0824L17.3727 15.5696C17.3664 15.647 17.3664 15.7249 17.3727 15.8023C17.3744 15.8253 17.3848 15.8468 17.4018 15.8624C17.4189 15.878 17.4412 15.8866 17.4643 15.8863C17.4774 15.8861 17.4902 15.8829 17.5018 15.8768C17.5134 15.8708 17.5235 15.8621 17.5312 15.8515C17.5388 15.8409 17.5439 15.8286 17.546 15.8157C17.5481 15.8028 17.5471 15.7896 17.5432 15.7771C17.5239 15.6931 17.3828 15.7099 17.3903 15.7981L17.3962 15.7939Z" fill="black"/>
<path d="M14.0061 15.7434C14.2271 15.9668 14.5295 16.0374 14.8327 16.0601C15.2015 16.0869 15.5769 16.0752 15.9465 16.076H17.4955C17.5779 16.0857 17.6613 16.0817 17.7425 16.0643C17.897 16.0088 17.8819 15.7509 17.7005 15.7719C17.5803 15.7862 17.5257 15.9769 17.6685 16.0038H17.687L17.6148 15.9483L17.624 15.9685L17.6123 15.8736C17.6795 15.8324 17.6828 15.8165 17.6215 15.8265H17.4543L17.2023 15.8307L16.6983 15.8375C16.3707 15.8425 16.0431 15.8459 15.7155 15.8543C15.4215 15.861 15.1275 15.8803 14.8319 15.8669C14.5799 15.8559 14.3111 15.8072 14.1145 15.6333C14.0406 15.5687 13.9356 15.6711 14.0053 15.7417L14.0061 15.7434Z" fill="black"/>
<path d="M13.4396 16.8129C13.6916 16.5407 13.6361 16.1602 13.6916 15.8209C13.6991 15.737 13.7241 15.6557 13.765 15.5822C13.806 15.5087 13.862 15.4446 13.9293 15.3941C14.0935 15.2987 14.2746 15.2363 14.4627 15.2102C14.6181 15.1783 14.5526 14.9372 14.3972 14.9716C14.2013 15.0049 14.0129 15.0723 13.8403 15.1707C13.6759 15.2765 13.5593 15.4423 13.5152 15.6327C13.4812 15.8158 13.466 16.0018 13.4698 16.1879C13.4639 16.3669 13.4471 16.5584 13.327 16.7012C13.2623 16.7776 13.3682 16.8877 13.4387 16.8129H13.4396ZM17.4909 15.2816C17.6796 15.3161 17.8615 15.3811 18.0293 15.4739C18.1747 15.5579 18.3317 15.6629 18.3595 15.8393C18.3872 16.0157 18.3208 16.2098 18.3158 16.3929C18.3108 16.6023 18.336 16.8114 18.3905 17.0137C18.4241 17.1405 18.6098 17.0859 18.5846 16.9599C18.5428 16.7289 18.5374 16.4928 18.5686 16.2602C18.593 16.0544 18.6367 15.8461 18.5476 15.6487C18.4678 15.4714 18.2956 15.3572 18.1276 15.274C17.9353 15.1809 17.7248 15.1312 17.5111 15.1287C17.4271 15.1287 17.4019 15.2656 17.4901 15.2816H17.4909ZM13.7227 17.731C12.9146 18.4803 12.4736 19.5563 12.3509 20.6383C12.2039 21.931 12.4652 23.2423 12.8054 24.4829C13.4453 26.8078 14.498 28.9987 15.9134 30.9509C16.5795 31.8691 17.3523 32.7653 18.3855 33.2777C19.4599 33.8111 20.6997 33.8968 21.869 33.6977C23.1071 33.4886 24.2747 32.9703 25.3751 32.3823C26.4829 31.7904 27.5342 31.0984 28.5159 30.3151C28.9668 29.9711 29.3722 29.5711 29.7221 29.1248C29.8946 28.8963 30.0382 28.6475 30.1497 28.3839C30.2026 28.2579 30.2463 28.1319 30.3017 28.0034C30.3697 27.866 30.4471 27.7335 30.5336 27.6069C30.6149 27.4807 30.6622 27.3357 30.6709 27.1859C30.6795 27.036 30.6493 26.8865 30.5831 26.7518C30.4805 26.5043 30.3482 26.2702 30.1892 26.0546C30.043 25.8639 29.8431 25.6833 29.6012 25.6346C29.4929 25.6161 29.382 25.6209 29.2757 25.6485C29.1694 25.6762 29.0702 25.7261 28.9846 25.795C28.9024 25.8556 28.8395 25.9387 28.8034 26.0342C28.7673 26.1297 28.7597 26.2337 28.7813 26.3335L28.9972 26.2075C28.7024 25.8328 28.1875 25.8513 27.7658 25.9462C27.5029 26.005 27.2509 26.1016 26.9955 26.1839C26.7021 26.278 26.4072 26.3657 26.111 26.4469C24.898 26.7829 23.6615 27.0231 22.4234 27.2465C22.1235 27.3003 21.8228 27.3549 21.5221 27.4061C21.2869 27.4465 21.0181 27.4901 20.7871 27.3944C20.5561 27.2986 20.4553 27.0584 20.3847 26.8265C20.2915 26.5216 20.1991 26.215 20.1033 25.9109C19.7219 24.7036 19.3073 23.508 18.8593 22.3241C18.6073 21.6681 18.3553 21.0154 18.0806 20.3695C17.8395 19.7974 17.569 19.2313 17.1238 18.7869C17.1046 18.7696 17.0795 18.7603 17.0536 18.761C17.0277 18.7617 17.0031 18.7724 16.9849 18.7907C16.9666 18.8091 16.9561 18.8337 16.9556 18.8596C16.955 18.8855 16.9644 18.9106 16.9819 18.9297C17.3792 19.327 17.6261 19.8428 17.8403 20.3577C18.0806 20.9356 18.3091 21.5177 18.5308 22.1024C18.9827 23.2918 19.3985 24.4939 19.7782 25.7085C19.8712 26.0047 19.9616 26.3024 20.0495 26.6014C20.1268 26.8601 20.1856 27.1483 20.3494 27.3692C20.6795 27.8144 21.2667 27.7136 21.7396 27.6296C22.9727 27.4129 24.2067 27.1928 25.423 26.8946C26.1017 26.7266 26.7721 26.5325 27.434 26.3125C27.854 26.1722 28.4873 25.9765 28.8149 26.3965C28.8989 26.5057 29.056 26.3839 29.0308 26.2705C28.9888 26.0815 29.1795 25.9496 29.3391 25.9076C29.5533 25.8513 29.7448 25.9563 29.8918 26.1075C30.0525 26.2904 30.1844 26.4966 30.2833 26.719C30.3564 26.844 30.4054 26.9816 30.4277 27.1247C30.4312 27.2668 30.3855 27.4056 30.2984 27.5179C30.2252 27.6255 30.159 27.7377 30.1001 27.8539C30.0388 27.9866 29.9901 28.1252 29.9321 28.2604C29.8312 28.5061 29.7006 28.7386 29.5432 28.9526C29.2316 29.3843 28.8292 29.7464 28.4176 30.0799C27.4901 30.8277 26.4975 31.4909 25.4516 32.0614C24.4201 32.6276 23.3339 33.1299 22.1798 33.3844C21.0727 33.628 19.8866 33.6188 18.8198 33.1937C17.8118 32.7897 17.0247 31.9883 16.372 31.1399C14.9938 29.3288 13.9386 27.2933 13.2531 25.123C12.5811 23.0171 11.9931 20.419 13.3371 18.445C13.4833 18.2288 13.6523 18.0288 13.8411 17.8486C13.9184 17.7739 13.8016 17.6579 13.7227 17.7302V17.731Z" fill="black"/>
<path d="M29.4973 27.0489C29.6326 27.2437 29.7821 27.4353 29.8997 27.6427C29.9887 27.8015 30.0744 28.0115 29.9719 28.1845C29.9005 28.3038 30.0753 28.3979 30.1534 28.2912C30.3037 28.0871 30.2416 27.8158 30.1105 27.6192C30.0383 27.5125 29.9535 27.4134 29.8779 27.3093L29.6259 26.9733C29.5687 26.8951 29.4369 26.9691 29.494 27.0505L29.4973 27.0489ZM18.7 17.152C18.9478 17.7786 19.4434 18.2247 19.8911 18.7085C20.3553 19.2124 20.7206 19.7991 20.968 20.4381C21.5089 21.8182 21.5341 23.3327 21.3208 24.7834C21.2536 25.2361 21.1654 25.6864 21.0688 26.1333C21.0201 26.3511 20.9688 26.5678 20.9151 26.7834C20.8873 26.8951 20.8596 27.006 20.8311 27.1194C20.8185 27.1673 20.8101 27.2169 20.7933 27.2631C20.7865 27.2799 20.7781 27.2941 20.7706 27.3101L20.7588 27.3277C20.7429 27.342 20.7437 27.3429 20.7588 27.3277C20.5908 27.2715 20.5236 27.5319 20.6866 27.5881C20.8495 27.6444 20.9848 27.5041 21.0402 27.3597C21.1045 27.1623 21.1567 26.9611 21.1965 26.7574C21.2981 26.3449 21.3913 25.93 21.4711 25.5125C21.6408 24.6766 21.723 23.8253 21.7164 22.9723C21.687 21.5259 21.2964 20.0542 20.3724 18.9168C19.8735 18.3028 19.1788 17.8248 18.8419 17.0923C18.805 17.0134 18.6672 17.0697 18.6991 17.152H18.7ZM13.2643 16.8076C12.2866 17.7064 11.6751 18.9412 11.2945 20.197C10.8855 21.5502 10.7292 22.9547 10.6225 24.3592C10.5637 25.2009 10.5142 26.0476 10.4201 26.8876C10.3722 27.3143 10.3117 27.7402 10.2311 28.1627C10.1505 28.5852 10.0354 28.9842 9.94719 29.3975C9.86319 29.7948 9.82791 30.2005 9.93123 30.5987C10.0261 30.9405 10.1927 31.258 10.4201 31.5303C10.8964 32.1183 11.5961 32.4719 12.2992 32.713C13.8498 33.2352 15.5085 33.3509 17.1166 33.049C17.3199 33.0112 17.5206 32.965 17.7205 32.9163C17.9053 32.8701 17.8272 32.5853 17.6424 32.6315C16.0959 33.0155 14.4772 32.9999 12.9384 32.5861C12.232 32.3963 11.5012 32.1351 10.9451 31.642C10.6888 31.4195 10.481 31.1467 10.3344 30.8406C10.1835 30.5058 10.1297 30.1353 10.179 29.7713C10.2269 29.3589 10.3546 28.9582 10.4386 28.5516C10.5226 28.1451 10.5856 27.7503 10.6377 27.3462C10.7435 26.5272 10.7956 25.7032 10.8485 24.8791C10.9392 23.4772 11.0442 22.0769 11.392 20.7111C11.7078 19.4712 12.1992 18.2188 13.0602 17.2528C13.1627 17.1369 13.2702 17.0268 13.3828 16.921C13.4601 16.8479 13.3441 16.7328 13.266 16.8042L13.2643 16.8076ZM29.5074 25.7763C29.646 25.5394 29.751 25.2857 29.8938 25.0513C30.0347 24.8149 30.2065 24.5982 30.4045 24.4071C30.5885 24.2262 30.8114 24.0898 31.0561 24.0081C31.3008 23.9265 31.5609 23.9017 31.8166 23.9358C31.8451 23.9425 31.8751 23.9379 31.9003 23.923C31.9255 23.908 31.9439 23.8839 31.9518 23.8557C31.9596 23.8274 31.9562 23.7973 31.9422 23.7715C31.9283 23.7457 31.905 23.7264 31.8771 23.7174C31.3235 23.5377 30.7095 23.814 30.3004 24.1845C30.0836 24.3896 29.8994 24.6267 29.7544 24.8875C29.5962 25.1493 29.4672 25.4276 29.3697 25.7175C29.3649 25.7351 29.3666 25.7538 29.3745 25.7703C29.3825 25.7867 29.3961 25.7997 29.4129 25.8069C29.4297 25.8141 29.4485 25.8149 29.4659 25.8093C29.4833 25.8036 29.498 25.7919 29.5074 25.7763ZM31.7847 24.4911C32.1711 24.464 32.5534 24.3945 32.9245 24.2836C33.2899 24.1744 33.6411 24.0408 34.0165 23.9703C34.1577 23.9442 34.0947 23.7401 33.9577 23.7586C33.5949 23.8073 33.2521 23.9686 32.9069 24.0837C32.5426 24.2057 32.1655 24.2857 31.783 24.3222C31.6771 24.3331 31.6746 24.4978 31.783 24.4902L31.7847 24.4911ZM30.7179 27.0447C31.0539 27.0203 31.4058 26.9052 31.7259 26.7927C32.7177 26.4443 33.6064 25.8529 34.3105 25.0723C34.4315 24.9354 34.5558 24.7825 34.5903 24.5977C34.6107 24.5157 34.6075 24.4296 34.581 24.3493C34.5546 24.2691 34.5059 24.1979 34.4407 24.1441C34.3744 24.0946 34.2795 24.192 34.3265 24.2584C34.5365 24.5549 34.2635 24.8271 34.0594 25.0362C33.8373 25.2629 33.5996 25.4737 33.3479 25.6671C32.8504 26.0454 32.3014 26.3506 31.7175 26.5734C31.5545 26.6364 31.3882 26.6927 31.2202 26.7414C31.0522 26.7901 30.8682 26.8254 30.696 26.8758C30.612 26.9027 30.6204 27.0438 30.7187 27.0438L30.7179 27.0447Z" fill="black"/>
<path d="M10.879 33.6082C11.047 33.698 11.215 33.7804 11.3897 33.8543C11.4737 33.8912 11.5644 33.9265 11.6535 33.9593C11.7332 33.9969 11.8182 34.0224 11.9055 34.0349C12.1214 34.0424 12.0802 33.7568 12.0827 33.6149L12.0903 33.3108C12.0903 33.2108 12.1029 33.1058 12.0945 33.0059C12.0945 32.9836 12.0856 32.9622 12.0699 32.9465C12.0541 32.9307 12.0328 32.9219 12.0105 32.9219C11.9882 32.9219 11.9668 32.9307 11.9511 32.9465C11.9353 32.9622 11.9265 32.9836 11.9265 33.0059C11.9192 33.0928 11.917 33.18 11.9198 33.2671L11.9147 33.5284L11.9097 33.7804C11.9143 33.8115 11.9126 33.8432 11.9046 33.8736C11.9046 33.8795 11.9046 33.8786 11.9105 33.8736C11.9035 33.8744 11.8965 33.8744 11.8895 33.8736C11.8727 33.8669 11.8534 33.8627 11.8358 33.8568C11.5315 33.7555 11.2367 33.6279 10.9546 33.4754C10.8639 33.4267 10.7866 33.5645 10.8706 33.614L10.879 33.6082ZM12.9563 37.7527C12.9429 36.9631 12.9328 36.1744 12.9177 35.3856L12.7866 35.4847C13.397 35.6419 13.9598 35.9455 14.4263 36.3692V36.2122C14.1891 36.448 13.9341 36.6654 13.6636 36.8623C13.5342 36.9564 13.4024 37.0454 13.2663 37.1294C13.1302 37.2134 12.963 37.2932 12.8228 37.3907C12.7388 37.4503 12.7858 37.615 12.8992 37.573C13.0548 37.508 13.2038 37.4284 13.3444 37.3352C13.4956 37.242 13.6443 37.1437 13.7879 37.0387C14.0686 36.8348 14.3337 36.6102 14.5809 36.3667C14.6012 36.3461 14.6126 36.3184 14.6126 36.2894C14.6126 36.2605 14.6012 36.2327 14.5809 36.2122C14.0873 35.7641 13.4896 35.4465 12.8421 35.2882C12.8267 35.2842 12.8107 35.2838 12.7951 35.287C12.7796 35.2901 12.765 35.2968 12.7523 35.3064C12.7397 35.316 12.7295 35.3284 12.7223 35.3425C12.7152 35.3567 12.7113 35.3723 12.711 35.3881C12.7379 36.1769 12.769 36.9656 12.795 37.7552C12.795 37.7762 12.8034 37.7963 12.8182 37.8111C12.833 37.8259 12.8531 37.8342 12.874 37.8342C12.8949 37.8342 12.915 37.8259 12.9298 37.8111C12.9446 37.7963 12.953 37.7762 12.953 37.7552L12.9563 37.7527ZM10.5884 38.413C10.9394 38.5611 11.2794 38.7343 11.6056 38.9312L11.588 38.791C11.3211 39.0562 11.0821 39.348 10.8748 39.662C10.8101 39.7612 10.9664 39.8494 11.0327 39.7544C11.2374 39.457 11.4651 39.1761 11.714 38.9144C11.7233 38.9047 11.7304 38.893 11.7346 38.8801C11.7388 38.8673 11.7401 38.8537 11.7383 38.8403C11.7366 38.8269 11.7318 38.814 11.7244 38.8027C11.7169 38.7914 11.7071 38.782 11.6955 38.775C11.3534 38.5773 10.9974 38.4047 10.6304 38.2584C10.5346 38.2206 10.496 38.3726 10.5884 38.4104V38.413ZM12.6321 42.9532L12.8118 41.867L12.8958 41.3328L12.9185 41.1992C12.9185 41.1774 12.9185 41.1043 12.9387 41.09C12.9588 41.0758 12.9227 41.09 12.9387 41.0976C12.9613 41.108 12.9829 41.1203 13.0034 41.1346L13.1319 41.2068C13.432 41.3748 13.7269 41.5523 14.0164 41.7394C14.0886 41.7856 14.1609 41.8326 14.2323 41.8805C14.2627 41.8987 14.2909 41.9204 14.3163 41.9452C14.3457 41.9762 14.3457 41.9813 14.3163 42.0082C14.2504 42.0574 14.1791 42.0988 14.1038 42.1316L13.882 42.2602L13.3562 42.5626L13.0932 42.7138L12.9614 42.7894C12.9479 42.7955 12.9349 42.8028 12.9227 42.8112C12.8883 42.8112 12.8824 42.8381 12.9059 42.8784C12.9294 42.9187 12.9185 42.9515 12.869 42.9414L12.8093 42.8952L12.8001 42.8658C12.7934 42.996 12.9849 42.9901 12.9992 42.8658C13.0193 42.6869 12.7304 42.723 12.7295 42.8876C12.7324 42.9261 12.7495 42.962 12.7774 42.9886C12.8054 43.0151 12.8422 43.0303 12.8807 43.0313C12.9891 43.0388 13.0949 42.9557 13.1831 42.9053L13.8408 42.5273L14.1693 42.3374C14.2708 42.2865 14.3684 42.2284 14.4616 42.1636C14.6397 42.0241 14.5389 41.8326 14.3868 41.7251C14.1827 41.5806 13.9668 41.4521 13.7526 41.3227C13.5384 41.1934 13.3326 41.0707 13.1134 40.954C13.0294 40.9086 12.9261 40.8473 12.8337 40.9094C12.7547 40.9624 12.7497 41.0598 12.7362 41.1446C12.6522 41.7326 12.5607 42.3206 12.4733 42.9086C12.4582 43.012 12.6153 43.0573 12.6321 42.9523V42.9532ZM18.1055 38.1736C17.6429 38.2136 17.1853 38.298 16.7388 38.4256C16.5205 38.4842 16.3061 38.5568 16.0971 38.6431C16.0628 38.6531 16.0319 38.6724 16.008 38.699C15.9841 38.7256 15.9681 38.7583 15.9618 38.7935C15.9492 38.8918 16.0274 38.9934 16.0736 39.0749C16.2865 39.4524 16.5418 39.8044 16.8346 40.124C16.9505 40.2509 17.1042 40.4508 17.3 40.366C17.468 40.2937 17.552 40.0493 17.636 39.9014C17.8893 39.4409 18.1165 38.9664 18.3164 38.4802C18.3668 38.3575 18.1677 38.3054 18.1173 38.4256C17.9694 38.7772 17.8068 39.1228 17.6292 39.4621C17.5385 39.6352 17.4439 39.806 17.3453 39.9745C17.321 40.0157 17.2689 40.1509 17.2143 40.1627C17.1597 40.1744 17.0589 40.0442 17.0236 40.0073C16.7762 39.746 16.555 39.4609 16.3634 39.1564C16.318 39.0833 16.2743 39.0094 16.2315 38.9346C16.2231 38.9195 16.1651 38.8405 16.1693 38.8212C16.2036 38.8102 16.2373 38.7973 16.2701 38.7826C16.4521 38.7092 16.6369 38.6442 16.8245 38.5877C17.2422 38.4601 17.6707 38.3716 18.1047 38.3231C18.2004 38.313 18.2038 38.1618 18.1047 38.1702L18.1055 38.1736ZM15.562 33.5351C15.7261 33.7244 15.8907 33.9131 16.0559 34.1012L16.2945 34.3709C16.3541 34.4381 16.4213 34.528 16.5238 34.5028C16.6263 34.4776 16.6599 34.3835 16.7052 34.3087L16.9043 33.9803C17.037 33.7627 17.1773 33.5468 17.3016 33.3234C17.3128 33.3035 17.3155 33.2799 17.3093 33.2579C17.3031 33.236 17.2884 33.2174 17.2685 33.2062C17.2485 33.1951 17.225 33.1923 17.203 33.1985C17.181 33.2048 17.1624 33.2195 17.1513 33.2394C17.032 33.4217 16.9253 33.614 16.8153 33.8014L16.6473 34.076L16.5574 34.2264C16.5414 34.2533 16.5129 34.3314 16.4835 34.3423C16.5011 34.3356 16.4835 34.3364 16.4709 34.3222C16.4583 34.3079 16.4381 34.286 16.4213 34.2676L16.3172 34.1516L16.108 33.9181C15.9624 33.7546 15.8174 33.5902 15.6729 33.425C15.6048 33.3469 15.4931 33.4603 15.5603 33.5384L15.562 33.5351ZM21.3765 34.8539C20.8456 34.9166 20.3198 35.0171 19.8032 35.1546C19.6007 35.21 19.3983 35.2789 19.4352 35.5318C19.468 35.7577 19.5848 35.9887 19.6746 36.197C19.7755 36.4275 19.8896 36.6518 20.0165 36.869C20.077 36.9724 20.14 37.074 20.2064 37.174C20.261 37.258 20.3189 37.3764 20.4122 37.426C20.628 37.5368 20.7725 37.258 20.854 37.1101C20.9696 36.8996 21.0709 36.6816 21.1572 36.4574C21.2565 36.2012 21.3352 35.9374 21.3924 35.6687C21.4227 35.5301 21.4445 35.3898 21.4655 35.2487C21.479 35.1538 21.4916 35.0387 21.5831 34.9874C21.6747 34.9362 21.6159 34.759 21.5042 34.7993C21.3429 34.8564 21.2858 35.0059 21.2597 35.1647C21.227 35.3696 21.1959 35.5729 21.1455 35.7745C21.0414 36.1959 20.8842 36.6024 20.6776 36.9841C20.6549 37.027 20.5743 37.2235 20.5197 37.226C20.4651 37.2286 20.3693 37.0337 20.3399 36.9875C20.2207 36.8019 20.1113 36.6101 20.0123 36.4129C19.9109 36.2131 19.8206 36.0078 19.7418 35.798C19.7037 35.7082 19.6717 35.6159 19.6461 35.5217C19.6158 35.3856 19.7544 35.3772 19.8569 35.3478C20.362 35.1987 20.8764 35.0828 21.3966 35.0009C21.4806 34.9883 21.4613 34.8421 21.3765 34.853V34.8539ZM24.8079 34.7774C24.5166 34.7796 24.228 34.8342 23.9561 34.9387C23.8239 34.9879 23.6956 35.0468 23.5722 35.1151C23.4622 35.1764 23.3152 35.2487 23.2438 35.357C23.1724 35.4654 23.2085 35.6006 23.2833 35.7065C23.3799 35.8434 23.4857 35.9753 23.5874 36.1088L24.2274 36.9488C24.2375 36.9648 24.2515 36.978 24.268 36.9871C24.2845 36.9962 24.3031 37.001 24.3219 37.001C24.3408 37.001 24.3594 36.9962 24.3759 36.9871C24.3924 36.978 24.4064 36.9648 24.4164 36.9488C24.5973 36.6586 24.7603 36.3576 24.9045 36.0475C24.9739 35.898 25.0392 35.7468 25.1002 35.5939C25.1728 35.4355 25.2304 35.2707 25.2724 35.1017C25.2926 34.9942 25.1372 34.9102 25.0834 35.0219C25.0112 35.1756 24.965 35.3428 24.9028 35.5007C24.8406 35.6586 24.7776 35.8048 24.7079 35.9543C24.5656 36.2582 24.4051 36.5533 24.2274 36.838H24.4164L23.8864 36.1424L23.6268 35.8022C23.5848 35.746 23.5428 35.6905 23.4983 35.6342C23.4538 35.578 23.3908 35.52 23.4252 35.4578C23.4471 35.4167 23.5185 35.3831 23.5563 35.3579C23.6092 35.3226 23.663 35.2898 23.7184 35.2588C23.8262 35.1976 23.9385 35.1448 24.0544 35.1008C24.298 35.012 24.5521 34.9555 24.8104 34.9328C24.8282 34.928 24.8439 34.9174 24.8551 34.9028C24.8663 34.8881 24.8724 34.8702 24.8724 34.8518C24.8724 34.8333 24.8663 34.8154 24.8551 34.8008C24.8439 34.7861 24.8282 34.7756 24.8104 34.7707L24.8079 34.7774ZM12.2516 46.2812C12.4733 46.3518 12.701 46.4039 12.9236 46.4686C13.1462 46.5332 13.3704 46.6013 13.5956 46.6727L13.5536 46.5131C13.306 46.8132 13.0594 47.114 12.8135 47.4152L12.6338 47.6362C12.5834 47.6992 12.5002 47.7722 12.4935 47.8579C12.4809 48.0108 12.7127 48.0662 12.7505 47.91C12.7808 47.7815 12.5825 47.7269 12.5514 47.8554V47.8663L12.5993 47.805C12.648 47.8991 12.6884 47.9167 12.7194 47.8579L12.7404 47.8327L12.8018 47.7554L12.9261 47.6017L13.1848 47.2825C13.3528 47.0734 13.5208 46.8625 13.6888 46.6525C13.7003 46.6405 13.7085 46.6257 13.7126 46.6096C13.7168 46.5935 13.7168 46.5767 13.7126 46.5606C13.7084 46.5445 13.7001 46.5298 13.6886 46.5178C13.6771 46.5058 13.6627 46.4969 13.6468 46.4921C13.4234 46.424 13.1999 46.3594 12.9748 46.2989C12.7497 46.2384 12.5246 46.1729 12.2952 46.1351C12.2758 46.1311 12.2556 46.1347 12.2387 46.1451C12.2219 46.1555 12.2096 46.1719 12.2043 46.191C12.1991 46.2101 12.2013 46.2305 12.2106 46.248C12.2198 46.2656 12.2354 46.2789 12.2541 46.2854L12.2516 46.2812ZM16.4138 46.5828L16.5272 45.2959C16.5307 45.2063 16.5405 45.117 16.5566 45.0288C16.5826 44.9171 16.6288 44.8667 16.7456 44.9238C16.9388 45.0179 17.1252 45.1304 17.3134 45.2338L17.9014 45.553L18.1778 45.7025C18.2742 45.7418 18.3661 45.7916 18.4516 45.8512C18.4844 45.8822 18.4785 45.873 18.4516 45.9024C18.4272 45.9228 18.3985 45.9374 18.3676 45.9452C18.2759 45.971 18.1824 45.9901 18.0879 46.0024C17.8969 46.041 17.7085 46.088 17.5226 46.1435C17.0936 46.2735 16.679 46.4469 16.2852 46.6609C16.1693 46.7248 16.2726 46.9028 16.3894 46.839C16.8109 46.6079 17.2577 46.4261 17.7208 46.2972C17.9434 46.2359 18.1744 46.2132 18.3928 46.1468C18.5322 46.1074 18.7128 45.9948 18.6675 45.8243C18.6552 45.7871 18.6353 45.753 18.6089 45.724C18.5826 45.6951 18.5504 45.672 18.5146 45.6563C18.3995 45.5908 18.2811 45.5303 18.1652 45.4673L17.4638 45.091C17.2412 44.9725 17.0186 44.8306 16.785 44.7331C16.6036 44.6575 16.449 44.7457 16.3911 44.9246C16.3621 45.0383 16.3468 45.1551 16.3457 45.2724L16.3146 45.6806L16.2449 46.5794C16.2374 46.6861 16.4012 46.6844 16.4129 46.5794L16.4138 46.5828ZM21.0741 41.0842C20.5351 41.2497 20.0359 41.5241 19.6074 41.8906C19.5881 41.911 19.5774 41.938 19.5774 41.9662C19.5774 41.9943 19.5881 42.0213 19.6074 42.0418C19.8123 42.284 20.0461 42.5001 20.3038 42.6852C20.5517 42.874 20.8278 43.0226 21.122 43.1254C21.1536 43.1384 21.1877 43.1446 21.2219 43.1437C21.2562 43.1427 21.2898 43.1346 21.3207 43.1197C21.3516 43.1049 21.379 43.0838 21.4012 43.0577C21.4234 43.0316 21.4399 43.0011 21.4496 42.9683C21.464 42.9026 21.4705 42.8355 21.4689 42.7684L21.4798 42.4752C21.4941 42.0989 21.5285 41.7192 21.5193 41.3404C21.517 41.3153 21.5054 41.292 21.4868 41.2751C21.4683 41.2581 21.444 41.2487 21.4189 41.2487C21.3938 41.2487 21.3695 41.2581 21.351 41.2751C21.3324 41.292 21.3208 41.3153 21.3185 41.3404C21.2849 41.6554 21.2858 41.9762 21.2715 42.2921L21.2496 42.7684C21.2496 42.8036 21.2606 42.912 21.2177 42.9204C21.1749 42.9288 21.0816 42.8708 21.0422 42.8532C20.5485 42.6311 20.1101 42.3023 19.7586 41.8906V42.0418C20.1538 41.6873 20.6155 41.4149 21.1169 41.2404C21.2152 41.2068 21.1749 41.0522 21.0741 41.0842ZM25.0212 38.8775L23.7764 39.2236C23.5699 39.2705 23.3661 39.3282 23.1657 39.3966C22.9977 39.463 23.0069 39.6192 23.0817 39.7586C23.4298 40.4068 23.9089 40.9755 24.4887 41.4286C24.5022 41.4412 24.5186 41.4502 24.5366 41.4548C24.5545 41.4593 24.5733 41.4592 24.5911 41.4545C24.609 41.4498 24.6254 41.4407 24.6388 41.4279C24.6522 41.4151 24.6621 41.3992 24.6676 41.3815L25.4933 38.9186C25.5378 38.7859 25.3253 38.7288 25.2842 38.8607L24.4618 41.3244L24.6399 41.2774C24.1326 40.8775 23.7015 40.3895 23.3673 39.8368C23.3233 39.7738 23.2848 39.7072 23.2522 39.6377C23.232 39.5848 23.2371 39.5831 23.29 39.5671L23.4294 39.5243L23.9679 39.3563L25.0649 39.0203C25.0845 39.0148 25.1012 39.0018 25.1112 38.9841C25.1212 38.9664 25.1237 38.9454 25.1183 38.9258C25.1128 38.9062 25.0998 38.8895 25.0821 38.8795C25.0643 38.8695 25.0434 38.867 25.0238 38.8724L25.0212 38.8775ZM29.4044 36.4364C29.0057 36.5714 28.6179 36.7365 28.2443 36.9304C28.1525 36.978 28.0618 37.0275 27.9722 37.079C27.8832 37.1178 27.8015 37.1711 27.7302 37.237C27.5967 37.4008 27.8201 37.573 27.9276 37.6729C28.228 37.9545 28.5514 38.2105 28.8945 38.4382C29.0465 38.539 29.217 38.6708 29.3842 38.5222C29.5078 38.3967 29.5914 38.2374 29.6244 38.0644C29.6816 37.8367 29.7152 37.6024 29.758 37.3722C29.805 37.1202 29.858 36.8682 29.8865 36.6162C29.9 36.4969 29.7093 36.4759 29.6799 36.5885C29.5875 36.9455 29.5362 37.3151 29.4699 37.6805C29.4485 37.8362 29.4142 37.9899 29.3674 38.14C29.3451 38.2068 29.311 38.2691 29.2666 38.3239C29.2422 38.3542 29.2271 38.3735 29.1826 38.3642C29.1397 38.3448 29.0995 38.3196 29.0633 38.2895C28.7728 38.1023 28.4966 37.894 28.2368 37.6662C28.1746 37.6108 28.1133 37.5553 28.0528 37.4982L27.9755 37.4251C27.9621 37.4125 27.905 37.3453 27.9008 37.3663C27.9008 37.3512 27.9923 37.3084 28.0091 37.2983L28.1175 37.2311C28.1956 37.184 28.2746 37.1387 28.3544 37.0942C28.704 36.8994 29.0676 36.7309 29.4422 36.5902C29.5362 36.5557 29.4976 36.4054 29.4002 36.4381L29.4044 36.4364ZM26.8676 34.9312C26.9751 35.1546 27.0818 35.3789 27.1926 35.6032C27.2472 35.714 27.3018 35.8249 27.3606 35.9392C27.4026 36.0232 27.4682 36.1072 27.5748 36.0811C27.6815 36.0551 27.7563 35.9459 27.8268 35.8795C27.9108 35.8022 27.9831 35.7224 28.057 35.6393C28.2063 35.47 28.343 35.29 28.4661 35.1008C28.5316 34.9992 28.3703 34.9051 28.304 35.0059C28.095 35.3241 27.8476 35.6152 27.5673 35.8728C27.5547 35.8846 27.5261 35.8946 27.5505 35.9056C27.5374 35.8881 27.5269 35.8689 27.5194 35.8484L27.448 35.7082L27.3044 35.4284C27.2069 35.2378 27.1061 35.0488 27.0053 34.8598C26.9591 34.7716 26.8306 34.8488 26.8734 34.937L26.8676 34.9312ZM21.8292 47.6168C21.8429 47.2348 21.8887 46.8546 21.9662 46.4803C21.9858 46.3226 22.0309 46.1691 22.0997 46.0259C22.1972 45.8654 22.3517 45.9024 22.476 46.0099C22.6057 46.131 22.7285 46.2592 22.844 46.3938L23.2438 46.8214L24.0435 47.6773L24.1166 47.5018C23.3345 47.4606 22.5357 47.4278 21.7814 47.6748C21.6486 47.7176 21.7066 47.9268 21.8393 47.884C22.5726 47.632 23.3513 47.6706 24.1166 47.7067C24.1368 47.7064 24.1564 47.7002 24.1731 47.6888C24.1898 47.6774 24.2028 47.6614 24.2105 47.6427C24.2182 47.624 24.2202 47.6035 24.2164 47.5837C24.2125 47.5639 24.2029 47.5456 24.1888 47.5312C23.7108 47.0272 23.2346 46.5156 22.7532 46.0116C22.5852 45.831 22.3215 45.6109 22.0695 45.7873C21.8578 45.9352 21.8259 46.2611 21.783 46.4929C21.7146 46.8639 21.6759 47.2397 21.6671 47.6168C21.672 47.6346 21.6825 47.6503 21.6972 47.6615C21.7118 47.6727 21.7297 47.6788 21.7482 47.6788C21.7666 47.6788 21.7845 47.6727 21.7992 47.6615C21.8138 47.6503 21.8244 47.6346 21.8292 47.6168ZM15.7056 51.6497L14.6632 50.3292L14.643 50.4854C15.4502 50.0871 16.319 49.8287 17.2126 49.721L17.1202 49.5614C16.9388 49.9814 16.745 50.3958 16.5389 50.8046C16.4415 50.9978 16.344 51.1927 16.2382 51.3809C16.1584 51.522 16.0492 51.6942 15.8694 51.7009C15.8416 51.7009 15.8149 51.712 15.7952 51.7317C15.7755 51.7514 15.7644 51.7781 15.7644 51.8059C15.7644 51.8338 15.7755 51.8605 15.7952 51.8802C15.8149 51.8999 15.8416 51.9109 15.8694 51.9109C16.2953 51.9244 16.4936 51.3632 16.6506 51.0566C16.883 50.6014 17.1009 50.1385 17.3042 49.6681C17.3319 49.6043 17.3042 49.5001 17.2126 49.5085C16.2814 49.6144 15.3769 49.887 14.5422 50.3132C14.5292 50.3211 14.518 50.3318 14.5097 50.3445C14.5013 50.3573 14.496 50.3718 14.494 50.3869C14.4921 50.402 14.4936 50.4174 14.4985 50.4318C14.5033 50.4463 14.5114 50.4594 14.5221 50.4703L15.5897 51.7664C15.6578 51.8504 15.7703 51.732 15.7056 51.6497ZM19.3806 50.5888L20.2316 51.3859C20.3668 51.5119 20.4978 51.6572 20.6448 51.769C20.6681 51.7893 20.6953 51.8046 20.7248 51.8138C20.7542 51.823 20.7853 51.826 20.816 51.8225C20.8466 51.819 20.8763 51.8092 20.9029 51.7936C20.9296 51.778 20.9527 51.757 20.9708 51.732C21.0724 51.6102 21.127 51.4279 21.19 51.2843C21.2622 51.1163 21.3328 50.9483 21.4008 50.7803C21.5428 50.4275 21.6722 50.0705 21.7914 49.7093C21.795 49.6952 21.7953 49.6805 21.7924 49.6663C21.7895 49.6521 21.7834 49.6387 21.7746 49.6272C21.7658 49.6156 21.7545 49.6062 21.7416 49.5996C21.7286 49.5931 21.7144 49.5895 21.6999 49.5892C20.9279 49.6439 20.1902 49.9292 19.5822 50.4082C19.4781 50.4922 19.6242 50.6341 19.7276 50.5535C20.2964 50.1106 20.9815 49.8421 21.6999 49.7807L21.6083 49.6606C21.4079 50.2809 21.172 50.8892 20.9019 51.4825C20.8834 51.5245 20.854 51.6203 20.807 51.6404C20.7599 51.6606 20.649 51.5354 20.6129 51.5027L20.2484 51.1642L19.4924 50.4745C19.4176 50.4065 19.3059 50.5165 19.3806 50.5862V50.5888ZM16.0744 54.8047L17.594 53.6203L17.4394 53.58C17.5805 54.0277 17.8048 54.4922 18.1307 54.84C18.203 54.9164 18.3449 54.814 18.2802 54.7249C18.1405 54.5465 18.0123 54.3594 17.8964 54.1646C17.7838 53.9637 17.6907 53.7525 17.6183 53.5338C17.6135 53.5185 17.605 53.5046 17.5934 53.4935C17.5818 53.4824 17.5675 53.4744 17.552 53.4703C17.5365 53.4662 17.5201 53.466 17.5046 53.47C17.489 53.4739 17.4747 53.4817 17.4629 53.4926L15.9644 54.6922C15.8854 54.756 15.9971 54.8652 16.0761 54.8039L16.0744 54.8047ZM24.7961 53.2885C25.075 52.8685 25.3455 52.4351 25.6361 52.021L25.49 52.0403C25.826 52.4527 26.1233 52.8887 26.4215 53.328C26.4921 53.4313 26.6584 53.3372 26.5895 53.228C26.3004 52.7652 25.9778 52.3242 25.6244 51.9084C25.6142 51.8985 25.6019 51.8911 25.5884 51.8867C25.575 51.8822 25.5607 51.8809 25.5466 51.8827C25.5326 51.8846 25.5191 51.8896 25.5073 51.8974C25.4954 51.9052 25.4855 51.9156 25.4782 51.9277C25.2186 52.362 24.9347 52.7828 24.6617 53.2087C24.6063 53.2927 24.7457 53.3767 24.7978 53.2885H24.7961ZM28.5644 48.3342C27.9784 48.6447 27.4125 48.9918 26.8701 49.3733C26.8188 49.4086 26.7861 49.4976 26.8474 49.5413C27.1834 49.8034 27.5337 50.0512 27.8764 50.3048C28.0234 50.4266 28.178 50.5388 28.3392 50.6408C28.456 50.716 28.5953 50.7481 28.7332 50.7316C28.8009 50.7157 28.8616 50.6782 28.9061 50.6246C28.9505 50.5711 28.9762 50.5045 28.9793 50.435C29.0037 50.2343 29.0037 50.0293 29.0154 49.8277L29.0499 49.2078C29.0713 48.9881 29.0814 48.7675 29.0801 48.5467C29.0742 48.4375 28.8978 48.3989 28.8777 48.5198C28.8543 48.7001 28.8405 48.8816 28.8365 49.0633L28.8038 49.6211L28.7718 50.1578C28.766 50.2578 28.8029 50.5106 28.6551 50.5123C28.5341 50.5123 28.419 50.4283 28.3266 50.3611L27.8924 50.0394C27.59 49.8168 27.2909 49.5883 26.9826 49.3733L27.0053 49.5413C27.5247 49.1427 28.074 48.7846 28.6484 48.4703C28.7374 48.4207 28.6584 48.2872 28.5644 48.3342ZM27.569 43.4076C26.8929 43.5954 26.2469 43.8782 25.6504 44.2476C25.6353 44.2569 25.6228 44.27 25.6142 44.2855C25.6055 44.301 25.601 44.3185 25.601 44.3362C25.601 44.354 25.6055 44.3714 25.6142 44.3869C25.6228 44.4025 25.6353 44.4155 25.6504 44.4248C26.2611 44.8591 26.8776 45.2858 27.4925 45.7151C27.5087 45.7245 27.5272 45.7296 27.546 45.7296C27.5648 45.7297 27.5832 45.7248 27.5995 45.7154C27.6158 45.706 27.6293 45.6925 27.6387 45.6762C27.6481 45.6599 27.653 45.6415 27.653 45.6227C27.6672 45.28 27.6933 44.9364 27.737 44.5954C27.7806 44.2543 27.8411 43.9175 27.8823 43.5773C27.8957 43.4706 27.7252 43.4521 27.6983 43.5521C27.6151 43.8883 27.557 44.2303 27.5244 44.5752C27.483 44.923 27.455 45.2721 27.4404 45.6227L27.6017 45.5303C26.9868 45.1019 26.3736 44.671 25.7537 44.2476V44.4248C26.3292 44.0505 26.9551 43.7603 27.6126 43.563C27.6299 43.5542 27.6437 43.5398 27.6515 43.5221C27.6594 43.5043 27.6609 43.4844 27.6557 43.4658C27.6506 43.4471 27.6391 43.4307 27.6233 43.4195C27.6075 43.4083 27.5883 43.4029 27.569 43.4042V43.4076ZM30.7332 40.3055L29.3498 40.7784C29.1876 40.8338 28.9743 40.8767 28.8651 41.0228C28.7559 41.169 28.8357 41.3412 28.9491 41.4706C29.2641 41.8444 29.5934 42.2056 29.9151 42.5726C29.9688 42.6331 30.0243 42.7196 30.1074 42.7406C30.1448 42.7492 30.184 42.7463 30.2196 42.7322C30.2553 42.7181 30.2859 42.6935 30.3074 42.6617C30.3578 42.5843 30.3953 42.4992 30.4182 42.4097L30.5442 42.0552L30.8172 41.2866C30.9199 41.0279 31.009 40.7641 31.0844 40.4962C31.1087 40.3954 30.9584 40.3206 30.9088 40.4222C30.8304 40.6029 30.762 40.7877 30.7038 40.9758L30.5006 41.547L30.2981 42.1182L30.1998 42.3946C30.1832 42.4325 30.17 42.4719 30.1604 42.5122C30.1604 42.5306 30.1293 42.5332 30.1604 42.539C30.1478 42.539 30.1217 42.4954 30.1142 42.487C29.8454 42.1837 29.5799 41.8788 29.3128 41.5747L29.1188 41.3555C29.0684 41.2992 28.9793 41.2219 29.0222 41.1404C29.0657 41.0881 29.1244 41.0506 29.1902 41.0329C29.2859 40.996 29.3825 40.9632 29.4783 40.9288L30.7752 40.4575C30.8718 40.4231 30.8315 40.2694 30.7332 40.303V40.3055ZM32.4359 37.5872C32.3935 38.1269 32.4944 38.6682 32.7282 39.1564C32.7357 39.1687 32.7458 39.1792 32.7579 39.1871C32.7699 39.195 32.7836 39.2 32.7979 39.2019C32.8122 39.2037 32.8267 39.2024 32.8404 39.1978C32.8541 39.1933 32.8666 39.1857 32.8769 39.1757C33.2793 38.812 33.6959 38.465 34.0941 38.098C34.1848 38.014 34.0538 37.8922 33.9614 37.9652C33.5414 38.3012 33.1415 38.6759 32.7434 39.0421L32.892 39.0606C32.6691 38.6029 32.5673 38.0956 32.5964 37.5872C32.6031 37.4839 32.4443 37.4856 32.4368 37.5872H32.4359ZM35.1852 41.0002C34.6035 40.8318 33.9934 40.7847 33.3927 40.8616C33.3767 40.8621 33.3611 40.8662 33.3469 40.8735C33.3328 40.8809 33.3204 40.8913 33.3108 40.904C33.3011 40.9167 33.2944 40.9314 33.2911 40.947C33.2879 40.9626 33.2881 40.9788 33.2919 40.9943C33.3809 41.4092 33.4868 41.8217 33.5934 42.2333C33.6455 42.4321 33.699 42.6306 33.7539 42.8288C33.7917 42.9666 33.811 43.211 33.9521 43.2883C34.1092 43.3723 34.2302 43.2287 34.3041 43.1086C34.4141 42.9296 34.5216 42.749 34.6308 42.5701C34.8551 42.1997 35.0912 41.8334 35.3028 41.4538C35.3144 41.4316 35.3169 41.4058 35.31 41.3818C35.3031 41.3578 35.2872 41.3373 35.2656 41.3247C35.244 41.3121 35.2184 41.3083 35.1941 41.314C35.1697 41.3197 35.1485 41.3346 35.1348 41.3555C34.9324 41.657 34.7493 41.9737 34.5594 42.2795L34.2738 42.7448L34.1201 42.9968C34.1061 43.0281 34.0864 43.0566 34.0622 43.0808C34.0622 43.1027 34.0622 43.1002 34.0538 43.0733C34.0454 43.0464 34.0445 43.043 34.0403 43.0288C33.8404 42.3366 33.6732 41.636 33.4968 40.938L33.4238 41.0674C33.9973 40.9774 34.5834 41.0103 35.1432 41.164C35.154 41.1669 35.1652 41.1678 35.1763 41.1664C35.1874 41.165 35.1981 41.1615 35.2078 41.156C35.2175 41.1505 35.226 41.1431 35.2329 41.1344C35.2398 41.1256 35.2448 41.1155 35.2478 41.1047C35.2508 41.094 35.2516 41.0827 35.2503 41.0717C35.2489 41.0606 35.2454 41.0499 35.2399 41.0402C35.2344 41.0305 35.227 41.0219 35.2182 41.0151C35.2094 41.0082 35.1994 41.0031 35.1886 41.0002H35.1852ZM32.068 45.0918C31.5758 45.4555 31.0844 45.8218 30.5846 46.1762C30.5661 46.188 30.5514 46.2048 30.5422 46.2246C30.5329 46.2444 30.5295 46.2664 30.5323 46.2881C30.5352 46.3098 30.5441 46.3302 30.5581 46.347C30.5721 46.3638 30.5906 46.3762 30.6114 46.3829C30.9566 46.5007 31.2758 46.6841 31.5514 46.923C31.7194 47.0675 32.0554 47.5597 32.3124 47.3044C32.4376 47.18 32.3964 46.9373 32.3964 46.7785C32.3964 46.5601 32.3838 46.3409 32.3654 46.1233C32.3427 45.8377 32.2377 45.4244 32.5006 45.2178C32.593 45.1447 32.4737 44.9935 32.3763 45.0557C32.1243 45.2178 32.0974 45.5294 32.1142 45.805C32.1402 46.1989 32.173 46.5887 32.1663 46.981C32.1663 47.0053 32.1789 47.107 32.1579 47.1263C32.1369 47.1456 32.1411 47.1322 32.1192 47.1263C32.0462 47.1044 31.9882 47.0188 31.9395 46.9658C31.8253 46.8431 31.7005 46.7306 31.5665 46.6298C31.2971 46.4262 30.9956 46.2689 30.6744 46.1645L30.7248 46.3543C31.2011 45.9688 31.6858 45.5983 32.1696 45.2195C32.241 45.1632 32.1453 45.0372 32.0705 45.0918H32.068ZM35.1432 47.39C34.9668 46.9398 34.7963 46.4879 34.6191 46.0385L34.4939 46.1636L35.2306 46.3232C35.4734 46.3874 35.7196 46.4376 35.9681 46.4736C36.0824 46.4845 36.0924 46.3157 35.9942 46.2821C35.8758 46.2469 35.7555 46.2189 35.6338 46.1981L35.2718 46.1208L34.5477 45.9662C34.4813 45.952 34.3906 46.0141 34.4225 46.0922C34.609 46.5391 34.8022 46.9843 34.9904 47.4312C35.029 47.5228 35.1802 47.485 35.1432 47.3892V47.39ZM37.8615 40.6549C37.6708 40.88 37.502 41.1253 37.3247 41.3614C37.1475 41.5974 36.9694 41.8326 36.793 42.0703C36.7266 42.1594 36.6796 42.2627 36.7359 42.371C36.7922 42.4794 36.9123 42.5508 37.0038 42.623C37.2315 42.8062 37.4532 43.0111 37.6952 43.1741C37.7968 43.2421 37.9136 43.0901 37.8254 43.0061C37.6456 42.8381 37.4339 42.6877 37.2374 42.5315C37.1385 42.4617 37.0442 42.3857 36.9551 42.3038C36.9081 42.2551 36.94 42.2249 36.9744 42.1762C37.0089 42.1274 37.0584 42.0644 37.0937 42.0082C37.3919 41.5882 37.7145 41.1841 37.9858 40.7482C38.0328 40.6726 37.9194 40.5802 37.8598 40.6507L37.8615 40.6549Z" fill="white"/>
<path d="M32.3442 24.1613C32.2048 23.8581 32.067 23.554 31.9242 23.2525C31.8116 22.9883 31.6829 22.7313 31.5387 22.483C31.3934 22.2579 31.1951 22.1428 30.9507 22.0429C30.7298 21.9513 30.5349 21.8463 30.3946 21.6455C30.1367 21.2759 30.0956 20.7871 30.0813 20.3503C30.0695 19.9849 30.0376 19.4095 30.3938 19.1827C30.5162 19.1176 30.6545 19.0885 30.7928 19.0987H32.2283L34.1729 19.0936L38.0562 19.076L45.8607 19.0533L53.6374 19.0315L55.5812 19.0264H56.553C56.8244 19.0264 57.1738 18.971 57.4157 19.1222C57.7694 19.3439 57.7332 19.8925 57.6803 20.2478C57.6383 20.5334 57.5736 20.8156 57.519 21.0987C57.4762 21.3188 57.4678 21.7052 57.225 21.806C57.0083 21.895 56.7513 21.8438 56.5262 21.9194C56.3224 21.992 56.1362 22.1064 55.9793 22.2554C55.6341 22.5746 55.4056 23.0013 55.1948 23.4154C54.6252 24.536 54.1002 25.6767 53.5551 26.8132C53.2838 27.3819 53.0108 27.9481 52.7285 28.5109C52.4824 28.9989 52.2447 29.497 51.9398 29.9523C51.4526 30.6797 50.7848 31.2963 49.9624 31.618C48.9494 32.017 47.8162 31.9448 46.7486 31.9187C46.1177 31.9036 45.4886 31.8793 44.8552 31.8793C44.2218 31.8793 43.57 31.9011 42.9232 31.9246C41.7044 31.9683 40.4805 32.0263 39.2616 31.9633C38.8117 31.9414 38.3641 31.8852 37.9227 31.7953C37.4262 31.6919 36.9147 31.5827 36.4401 31.3929C36.0913 31.2532 35.7813 31.0317 35.5362 30.7469C35.2738 30.423 35.0448 30.0735 34.8525 29.7037C34.451 28.9905 34.0965 28.2513 33.7344 27.5197C33.492 27.0308 33.245 26.5441 32.9936 26.0597L32.9482 26.2328C33.1624 26.1143 33.3682 25.9808 33.5715 25.843C33.8873 25.6238 34.2334 25.376 34.4384 25.0433C34.6064 24.7779 34.6316 24.3243 34.4837 24.0454C34.2536 23.6069 33.6874 23.8018 33.327 23.9194C33.0456 24.011 32.7634 24.1126 32.4761 24.1849C32.3283 24.2218 32.3921 24.4495 32.5383 24.4125C32.6844 24.3755 32.8524 24.3201 33.0078 24.2722C33.2598 24.1941 33.506 24.0967 33.7638 24.0395C33.9108 24.0068 34.1192 23.9774 34.2326 24.1051C34.3241 24.2075 34.3266 24.3722 34.3224 24.5015C34.3294 24.6476 34.2963 24.7929 34.2267 24.9215C34.0469 25.2113 33.7353 25.4297 33.4598 25.6204C33.2544 25.7636 33.0419 25.8963 32.823 26.0177C32.7945 26.035 32.7738 26.0628 32.7653 26.0951C32.7568 26.1274 32.7613 26.1617 32.7777 26.1908C33.2481 27.1005 33.6933 28.0237 34.157 28.9376C34.3342 29.2879 34.5173 29.6356 34.7139 29.9767C34.9143 30.3553 35.1597 30.7084 35.4447 31.0283C35.716 31.3066 36.0456 31.5211 36.4098 31.6567C36.9067 31.8348 37.4179 31.9703 37.9378 32.0615C38.9979 32.2741 40.0874 32.264 41.1634 32.2438C42.4839 32.2186 43.8035 32.1329 45.124 32.1455C45.7742 32.1523 46.4243 32.1791 47.0745 32.1917C47.691 32.2027 48.321 32.2195 48.9342 32.1439C49.8338 32.041 50.6785 31.6591 51.3501 31.0519C52.1246 30.3454 52.5765 29.4046 53.0368 28.4815C53.6181 27.3147 54.1632 26.1295 54.7286 24.9535C55.0007 24.3881 55.2687 23.8186 55.5686 23.2667C55.7878 22.861 56.06 22.4192 56.4926 22.2117C56.7202 22.1017 56.9579 22.1277 57.1973 22.079C57.3097 22.0569 57.4134 22.0032 57.4963 21.9242C57.5792 21.8451 57.6378 21.7441 57.6652 21.6329C57.7415 21.34 57.8016 21.043 57.845 20.7434C57.9003 20.4966 57.9382 20.2462 57.9584 19.9941C57.9777 19.6018 57.908 19.1423 57.5459 18.9172C57.3032 18.7652 57.0016 18.787 56.7278 18.7879H55.7273L47.7011 18.8131L39.6741 18.8374L31.6202 18.8626C31.301 18.8626 30.9734 18.8441 30.655 18.8702C30.5453 18.8744 30.4378 18.902 30.3397 18.9513C30.2416 19.0005 30.1552 19.0703 30.0863 19.1558C29.8192 19.501 29.8343 19.9958 29.8494 20.4158C29.8679 20.861 29.9217 21.3398 30.1644 21.727C30.2836 21.9198 30.454 22.0757 30.6567 22.1773C30.9087 22.3016 31.175 22.3604 31.3413 22.6065C31.4895 22.8524 31.6219 23.1074 31.7378 23.3701C31.8873 23.6674 32.0435 23.9581 32.1981 24.2554C32.251 24.3545 32.3921 24.2672 32.3468 24.1714L32.3442 24.1613ZM18.5069 16.5081C20.7312 16.6173 22.3264 18.4653 23.7788 19.9353C24.2508 20.4124 24.724 20.8884 25.1984 21.3633C25.2222 21.3832 25.2527 21.3935 25.2838 21.392C25.3148 21.3906 25.3442 21.3776 25.3661 21.3555C25.3881 21.3335 25.4009 21.304 25.4022 21.273C25.4035 21.2419 25.3931 21.2115 25.3731 21.1877C24.539 20.3318 23.7082 19.4699 22.8531 18.6383C22.0685 17.8823 21.2235 17.1608 20.2088 16.7307C19.6719 16.4968 19.0956 16.3668 18.5103 16.3477C18.407 16.3477 18.4078 16.5031 18.5103 16.5081H18.5069Z" fill="black"/>
<path d="M21.4911 24.8862C22.0313 25.4456 22.7133 25.8665 23.3996 26.2218C24.0859 26.5771 24.8553 26.8442 25.6399 26.7157C26.3379 26.6015 26.9453 26.1798 27.4669 25.7253C28.0374 25.2169 28.5813 24.6794 29.0965 24.1151C29.3982 23.7938 29.6833 23.4574 29.9508 23.1071C30.086 22.929 30.2154 22.7459 30.3355 22.5577C30.4556 22.3695 30.5942 22.1847 30.5648 21.9621C30.5463 21.8252 30.3439 21.8143 30.3431 21.9621C30.3431 22.1469 30.2019 22.3183 30.1053 22.4661C30.0087 22.614 29.8962 22.7744 29.7836 22.9239C29.5585 23.223 29.3141 23.5119 29.0604 23.7849C28.569 24.3209 28.0524 24.8391 27.5165 25.3322C27.0318 25.7799 26.4891 26.2117 25.8449 26.3957C25.1216 26.6023 24.3875 26.4209 23.7222 26.1117C23.3457 25.9318 22.9792 25.7316 22.6243 25.512C22.261 25.2986 21.9229 25.045 21.6163 24.756C21.6 24.7397 21.578 24.7306 21.555 24.7306C21.532 24.7306 21.5099 24.7397 21.4937 24.756C21.4774 24.7723 21.4683 24.7943 21.4683 24.8173C21.4683 24.8403 21.4774 24.8624 21.4937 24.8786L21.4911 24.8862ZM24.7839 22.2099C25.5005 21.3985 26.2035 20.5745 26.9175 19.7605C27.2692 19.3584 27.6237 18.958 27.981 18.5593C28.307 18.1791 28.6551 17.8184 29.0234 17.4791C29.3393 17.2002 29.96 16.6542 30.3884 17.0381C30.4013 17.0506 30.4169 17.0601 30.434 17.0658C30.4511 17.0715 30.4693 17.0732 30.4871 17.0709C30.505 17.0685 30.5221 17.0622 30.5372 17.0523C30.5522 17.0424 30.5648 17.0292 30.5741 17.0137C30.6765 16.7903 30.7958 16.5391 31.0167 16.4097C31.1923 16.3073 31.4367 16.3089 31.5644 16.4778C31.6484 16.5828 31.8315 16.4417 31.7501 16.335C31.6601 16.2247 31.5359 16.1476 31.3971 16.1158C31.2584 16.084 31.113 16.0993 30.984 16.1594C30.674 16.2888 30.5018 16.6038 30.3699 16.8944L30.5556 16.8709C30.1675 16.5248 29.6467 16.7138 29.2754 16.9818C28.8584 17.2969 28.4761 17.6553 28.1347 18.0511C27.3787 18.8911 26.6437 19.7513 25.9137 20.6139C25.4965 21.1073 25.0844 21.604 24.6773 22.1041C24.6168 22.178 24.7184 22.2847 24.7839 22.2108V22.2099Z" fill="black"/>
<path d="M31.141 17.0586C31.603 16.6008 32.1642 16.0833 32.8706 16.2345C33.0215 16.2667 33.1656 16.325 33.2965 16.4067C33.362 16.4498 33.4231 16.4993 33.4787 16.5546C33.541 16.6018 33.5923 16.662 33.6291 16.731C33.6988 16.9569 32.7463 16.9502 32.6278 16.9401C32.6103 16.9403 32.5931 16.9445 32.5774 16.9524C32.5618 16.9602 32.5481 16.9716 32.5375 16.9855C32.5269 16.9994 32.5196 17.0156 32.5162 17.0328C32.5128 17.05 32.5133 17.0677 32.5178 17.0846C32.5816 17.3425 32.3498 17.5651 32.1944 17.7381C32.1772 17.7584 32.1685 17.7844 32.1699 17.8109C32.1713 17.8375 32.1828 17.8624 32.2019 17.8808C32.2211 17.8991 32.2466 17.9094 32.2731 17.9096C32.2997 17.9098 32.3253 17.8998 32.3447 17.8818C32.59 17.6667 32.8261 17.3652 32.7412 17.0191L32.6312 17.1636C32.827 17.1818 33.0243 17.1779 33.2192 17.1518C33.3886 17.1406 33.5539 17.0954 33.7056 17.0191C33.7675 16.9888 33.8176 16.9388 33.8481 16.8769C33.8785 16.815 33.8874 16.7448 33.8736 16.6772C33.8349 16.5336 33.6955 16.4093 33.5837 16.3202C33.3452 16.1281 33.0532 16.014 32.7475 15.9936C32.4418 15.9731 32.1372 16.0473 31.8752 16.206C31.5509 16.3983 31.2872 16.6764 31.0352 16.9502C30.9663 17.0241 31.0747 17.1333 31.1469 17.0619L31.141 17.0586Z" fill="black"/>
<path d="M32.438 16.234C32.8418 15.9629 33.2951 15.7742 33.7719 15.6787C34.0004 15.6376 34.2709 15.6082 34.4968 15.6712C34.7228 15.7342 34.8454 15.9341 34.9672 16.1088C35.0512 16.2314 35.252 16.1197 35.1705 15.9895C35.042 15.7837 34.8933 15.5695 34.6665 15.4729C34.4145 15.3654 34.1188 15.399 33.8593 15.441C33.3141 15.53 32.8135 15.7862 32.3699 16.1071C32.2952 16.1617 32.3632 16.286 32.4439 16.234H32.438ZM34.3431 16.5557C34.4974 16.7022 34.6406 16.86 34.7715 17.0278C34.7887 17.0449 34.8119 17.0545 34.8362 17.0545C34.8604 17.0545 34.8837 17.0449 34.9009 17.0278C34.9172 17.0102 34.9263 16.9871 34.9263 16.9631C34.9263 16.9391 34.9172 16.916 34.9009 16.8984C34.7632 16.7364 34.6136 16.5851 34.4531 16.4456C34.4379 16.4324 34.4183 16.4251 34.3981 16.4251C34.3779 16.4251 34.3584 16.4324 34.3431 16.4456C34.3288 16.4604 34.3208 16.4801 34.3208 16.5007C34.3208 16.5212 34.3288 16.5409 34.3431 16.5557ZM34.3809 17.4528L34.4036 17.4654L34.412 17.4721C34.3969 17.4587 34.4187 17.4763 34.412 17.4721L34.4288 17.4881L34.4363 17.4973C34.4456 17.5074 34.4279 17.4847 34.4363 17.4931C34.4447 17.5015 34.4523 17.5225 34.4607 17.5351C34.4607 17.5351 34.454 17.5166 34.4607 17.5301C34.4674 17.5435 34.4607 17.536 34.4607 17.5402C34.4634 17.5481 34.4657 17.5563 34.4674 17.5645V17.5754V17.5696C34.4685 17.5852 34.4685 17.6009 34.4674 17.6166C34.4674 17.6166 34.4674 17.6368 34.4674 17.6166C34.4674 17.6326 34.459 17.6468 34.4557 17.662C34.4615 17.6376 34.4607 17.6494 34.4557 17.6561C34.454 17.6602 34.4521 17.6641 34.4498 17.6678C34.4455 17.6752 34.4407 17.6822 34.4355 17.6888C34.4295 17.6988 34.4257 17.71 34.4242 17.7215C34.4228 17.7331 34.4238 17.7449 34.4271 17.756C34.4299 17.7669 34.4348 17.7771 34.4416 17.7861C34.4483 17.795 34.4568 17.8025 34.4666 17.8081C34.4866 17.8193 34.5102 17.8223 34.5325 17.8165C34.5547 17.8108 34.5738 17.7966 34.5859 17.777C34.6102 17.7392 34.6264 17.6966 34.6333 17.6521C34.6402 17.6076 34.6376 17.5621 34.6258 17.5186C34.614 17.4751 34.5932 17.4346 34.5648 17.3997C34.5363 17.3648 34.5009 17.3362 34.4607 17.3159C34.4421 17.3063 34.4206 17.3036 34.4002 17.3083C34.3856 17.3125 34.3726 17.3209 34.3627 17.3325C34.3528 17.344 34.3465 17.3582 34.3445 17.3732C34.3426 17.3883 34.345 17.4036 34.3517 17.4173C34.3583 17.431 34.3687 17.4424 34.3817 17.4503L34.3809 17.4528ZM31.0049 16.9328C31.0402 17.0949 31.1006 17.2505 31.1839 17.394C31.2594 17.5415 31.3453 17.6836 31.4409 17.819C31.63 18.0953 31.864 18.338 32.1331 18.5372C32.2381 18.6128 32.3708 18.4423 32.2717 18.3575C32.0291 18.1581 31.8091 17.9328 31.6156 17.6855C31.523 17.5631 31.4388 17.4345 31.3636 17.3008C31.2855 17.1613 31.2301 17.0059 31.1444 16.8707C31.1345 16.8553 31.1196 16.8438 31.1021 16.8384C31.0846 16.833 31.0658 16.834 31.049 16.8411C31.0322 16.8483 31.0184 16.8612 31.0102 16.8775C31.002 16.8938 30.9998 16.9125 31.0041 16.9303L31.0049 16.9328Z" fill="black"/>
<path d="M32.9933 22.1818C35.835 22.1885 38.6759 22.1894 41.5168 22.202L49.9966 22.2431C51.5926 22.2507 53.1886 22.2524 54.7796 22.2188C54.8085 22.2163 54.8354 22.2031 54.8551 22.1817C54.8747 22.1603 54.8856 22.1323 54.8856 22.1033C54.8856 22.0742 54.8747 22.0462 54.8551 22.0249C54.8354 22.0035 54.8085 21.9902 54.7796 21.9878C51.9395 21.9281 49.097 21.9684 46.2569 21.9819C43.43 21.9953 40.602 22.006 37.7729 22.0138L32.9891 22.0239C32.9682 22.0239 32.9481 22.0322 32.9333 22.047C32.9185 22.0618 32.9102 22.0819 32.9102 22.1028C32.9102 22.1238 32.9185 22.1439 32.9333 22.1587C32.9481 22.1735 32.9682 22.1818 32.9891 22.1818H32.9933ZM38.1039 25.0722L38.6625 27.7913C38.7036 27.9904 38.7532 28.2113 38.87 28.3256C38.8977 28.3541 38.9321 28.376 38.9624 28.3608C39.0144 28.3348 39.0178 28.2281 39.0119 28.1441C38.9297 26.9841 38.6929 25.8403 38.308 24.743C38.2592 24.7742 38.2191 24.8171 38.1914 24.8679C38.1636 24.9187 38.1491 24.9757 38.1492 25.0336" fill="#0072BC"/>
<path d="M38.0282 25.0932C38.1198 25.6249 38.2248 26.1533 38.3281 26.6825L38.4793 27.4561C38.5263 27.6972 38.5557 27.9517 38.6473 28.181C38.7019 28.3179 38.8564 28.5792 39.0362 28.4507C39.2042 28.3331 39.1202 28.013 39.1042 27.8484C39.0581 27.3457 38.9841 26.846 38.8825 26.3515C38.768 25.7947 38.6147 25.2465 38.4239 24.711C38.4186 24.6938 38.4096 24.678 38.3974 24.6648C38.3853 24.6515 38.3703 24.6411 38.3537 24.6344C38.337 24.6276 38.3191 24.6246 38.3011 24.6257C38.2832 24.6267 38.2657 24.6318 38.25 24.6404C38.1845 24.683 38.1307 24.7413 38.0935 24.81C38.0562 24.8786 38.0367 24.9554 38.0366 25.0335C38.0265 25.1604 38.2433 25.1923 38.2609 25.0638C38.2607 25.0213 38.2703 24.9794 38.2891 24.9414C38.308 24.9033 38.3354 24.8702 38.3692 24.8445L38.1962 24.774C38.4921 25.6241 38.7001 26.5023 38.817 27.3948C38.8464 27.6182 38.8691 27.8417 38.8867 28.0668C38.8924 28.1173 38.8952 28.168 38.8951 28.2188C38.8951 28.2306 38.8858 28.2575 38.89 28.2667C38.9026 28.2953 38.9463 28.26 38.9421 28.2339C38.9379 28.2079 38.8858 28.1499 38.8741 28.1214C38.8541 28.0754 38.8378 28.028 38.8254 27.9794C38.701 27.5376 38.6255 27.0773 38.5289 26.6287C38.4155 26.1029 38.3037 25.5762 38.1777 25.0529C38.1542 24.9546 38.0097 24.9974 38.0274 25.0949L38.0282 25.0932ZM40.4079 25.0722L40.9674 27.7913C41.0085 27.9903 41.0581 28.2113 41.174 28.3255C41.2026 28.3541 41.237 28.3759 41.2672 28.3608C41.3185 28.3347 41.3218 28.2281 41.316 28.1441C41.2352 26.9842 40.9996 25.8403 40.6154 24.7429C40.5667 24.7741 40.5265 24.8171 40.4988 24.8679C40.4711 24.9187 40.4566 24.9757 40.4567 25.0335" fill="#0072BC"/>
<path d="M40.3296 25.0932C40.4212 25.6249 40.5262 26.1533 40.6295 26.6825L40.7807 27.4561C40.8277 27.6972 40.8571 27.9517 40.9487 28.181C41.0033 28.318 41.1579 28.5792 41.3385 28.4507C41.5065 28.3331 41.4225 28.013 41.4065 27.8484C41.3597 27.3457 41.2854 26.846 41.1839 26.3515C41.0698 25.7946 40.9165 25.2464 40.7253 24.711C40.7201 24.6938 40.7112 24.678 40.6991 24.6648C40.6871 24.6515 40.6722 24.6411 40.6556 24.6344C40.639 24.6276 40.6211 24.6246 40.6032 24.6257C40.5853 24.6267 40.5679 24.6318 40.5522 24.6404C40.4867 24.683 40.4328 24.7412 40.3954 24.8099C40.358 24.8785 40.3383 24.9554 40.338 25.0336C40.3288 25.1604 40.5455 25.1923 40.5631 25.0638C40.5626 25.0213 40.5721 24.9792 40.5909 24.9411C40.6098 24.903 40.6374 24.8699 40.6715 24.8446L40.4985 24.774C40.7944 25.6241 41.0024 26.5023 41.1192 27.3948C41.1478 27.6188 41.171 27.8428 41.1889 28.0668C41.1944 28.1173 41.1969 28.168 41.1965 28.2188C41.1933 28.2346 41.1916 28.2506 41.1915 28.2667C41.2041 28.2953 41.2477 28.26 41.2444 28.2339C41.241 28.2079 41.1873 28.1499 41.1755 28.1214C41.1559 28.0753 41.1396 28.0279 41.1268 27.9794C41.0033 27.5376 40.9277 27.0773 40.8311 26.6287C40.7169 26.1029 40.6051 25.5762 40.48 25.0529C40.4556 24.9546 40.312 24.9974 40.3296 25.0949V25.0932ZM42.706 25.0722L43.2637 27.7913C43.3041 27.9903 43.3536 28.2113 43.4704 28.3255C43.4981 28.3541 43.5325 28.3759 43.5628 28.3608C43.6149 28.3347 43.6182 28.2281 43.6123 28.1441C43.5313 26.9841 43.2954 25.8403 42.9109 24.7429C42.8622 24.7741 42.8221 24.8171 42.7943 24.8679C42.7666 24.9187 42.7521 24.9757 42.7522 25.0336" fill="#0072BC"/>
<path d="M42.6318 25.0932C42.7226 25.6249 42.8284 26.1533 42.9317 26.6825L43.0821 27.4561C43.1156 27.7024 43.1718 27.9451 43.2501 28.181C43.3047 28.318 43.4592 28.5792 43.639 28.4507C43.807 28.3331 43.723 28.013 43.707 27.8484C43.6609 27.3457 43.5869 26.846 43.4853 26.3515C43.3708 25.7947 43.2175 25.2465 43.0266 24.711C43.0215 24.6938 43.0125 24.678 43.0005 24.6648C42.9884 24.6515 42.9736 24.6411 42.957 24.6344C42.9404 24.6276 42.9225 24.6246 42.9046 24.6257C42.8867 24.6267 42.8693 24.6318 42.8536 24.6404C42.7879 24.6828 42.7338 24.741 42.6964 24.8097C42.659 24.8784 42.6394 24.9553 42.6394 25.0336C42.6293 25.1604 42.846 25.1923 42.8645 25.0638C42.864 25.0214 42.8735 24.9794 42.8921 24.9413C42.9108 24.9033 42.9382 24.8701 42.972 24.8446L42.799 24.774C43.0957 25.6239 43.3037 26.5021 43.4198 27.3948C43.4492 27.6182 43.4718 27.8417 43.4895 28.0668C43.4956 28.1172 43.4984 28.168 43.4979 28.2188C43.4979 28.2306 43.4886 28.2575 43.4928 28.2667C43.5054 28.2953 43.5491 28.26 43.5449 28.2339C43.5407 28.2079 43.4886 28.1499 43.4769 28.1214C43.4582 28.0748 43.4434 28.0267 43.4324 27.9777C43.308 27.5359 43.2324 27.0756 43.1358 26.627C43.0224 26.1012 42.9107 25.5745 42.7847 25.0512C42.7612 24.9529 42.6167 24.9957 42.6352 25.0932H42.6318ZM45.0074 25.0722L45.5668 27.7913C45.608 27.9903 45.6575 28.2113 45.7734 28.3255C45.802 28.3541 45.8364 28.3759 45.8667 28.3608C45.9179 28.3347 45.9213 28.2281 45.9154 28.1441C45.8347 26.9842 45.599 25.8403 45.2148 24.7429C45.1661 24.7741 45.126 24.8171 45.0982 24.8679C45.0705 24.9187 45.056 24.9757 45.0561 25.0336" fill="#0072BC"/>
<path d="M44.9321 25.0936C45.0237 25.6253 45.1287 26.1537 45.232 26.6829L45.3832 27.4565C45.4302 27.6976 45.4596 27.9521 45.5512 28.1814C45.6058 28.3184 45.7604 28.5796 45.9401 28.4511C46.1081 28.3335 46.0241 28.0134 46.0082 27.8488C45.9616 27.346 45.8867 26.8463 45.7839 26.3519C45.6698 25.795 45.5165 25.2468 45.3252 24.7114C45.3202 24.6941 45.3114 24.6783 45.2993 24.6649C45.2873 24.6516 45.2724 24.6411 45.2558 24.6343C45.2391 24.6275 45.2212 24.6246 45.2032 24.6257C45.1853 24.6269 45.1679 24.632 45.1522 24.6408C45.0869 24.6843 45.0336 24.7434 44.9972 24.8128C44.9608 24.8823 44.9425 24.9598 44.9439 25.0382C44.9338 25.165 45.1505 25.1969 45.1682 25.0684C45.1679 25.0259 45.1776 24.984 45.1964 24.946C45.2152 24.9079 45.2427 24.8748 45.2765 24.8492L45.1035 24.7786C45.3994 25.6287 45.6074 26.5069 45.7242 27.3994C45.7528 27.6234 45.776 27.8474 45.794 28.0714C45.7998 28.1219 45.8024 28.1726 45.8015 28.2234C45.8015 28.2352 45.7931 28.2621 45.8015 28.2713C45.8141 28.2999 45.8578 28.2646 45.8536 28.2386C45.8336 28.1993 45.8105 28.1617 45.7847 28.126C45.7654 28.0799 45.7494 28.0324 45.7369 27.984C45.6125 27.5422 45.5369 27.0819 45.4403 26.6333C45.3261 26.1075 45.2144 25.5808 45.0892 25.0575C45.0648 24.9592 44.9212 25.002 44.9389 25.0995L44.9321 25.0936ZM47.3085 25.0726L47.8679 27.7917C47.9091 27.9908 47.9587 28.2117 48.0746 28.3259C48.1023 28.3545 48.1376 28.3763 48.1678 28.3612C48.2191 28.3352 48.2224 28.2285 48.2165 28.1445C48.1354 26.9846 47.8998 25.8408 47.516 24.7433C47.467 24.7743 47.4266 24.8172 47.3987 24.868C47.3708 24.9189 47.3562 24.976 47.3564 25.034" fill="#0072BC"/>
<path d="M47.2339 25.0942C47.3246 25.626 47.4304 26.1543 47.5338 26.6835L47.685 27.4572C47.732 27.6982 47.7614 27.9528 47.853 28.1821C47.9076 28.319 48.0621 28.5802 48.2427 28.4517C48.4107 28.3341 48.3267 28.0141 48.3108 27.8494C48.2639 27.3468 48.1896 26.8471 48.0882 26.3526C47.9745 25.7958 47.8221 25.2476 47.632 24.712C47.6269 24.6949 47.6179 24.6791 47.6059 24.6659C47.5938 24.6526 47.579 24.6422 47.5624 24.6354C47.5458 24.6287 47.5279 24.6257 47.51 24.6268C47.4921 24.6278 47.4747 24.6328 47.459 24.6415C47.3934 24.6841 47.3395 24.7423 47.3021 24.8109C47.2647 24.8796 47.245 24.9564 47.2448 25.0346C47.2347 25.1614 47.4514 25.1934 47.4699 25.0648C47.4694 25.0224 47.4789 24.9805 47.4975 24.9424C47.5162 24.9043 47.5436 24.8712 47.5774 24.8456L47.4044 24.775C47.7009 25.625 47.9092 26.5032 48.026 27.3958C48.0546 27.6198 48.0778 27.8438 48.0957 28.0678C48.1012 28.1183 48.1037 28.1691 48.1033 28.2199C48.1033 28.2316 48.094 28.2585 48.0982 28.2678C48.1108 28.2963 48.1545 28.261 48.1512 28.235C48.1478 28.209 48.094 28.151 48.0823 28.1224C48.0627 28.0764 48.0464 28.0289 48.0336 27.9805C47.9101 27.5386 47.8345 27.0783 47.737 26.6298C47.6236 26.1039 47.5119 25.5772 47.3859 25.0539C47.3624 24.9556 47.2179 24.9985 47.2364 25.0959L47.2339 25.0942ZM36.5743 18.3835C36.1022 16.8821 35.6895 15.3645 35.3361 13.8307C35.2605 13.5031 35.1387 13.1318 35.2076 12.7924C35.2689 12.4867 35.5058 12.2977 35.7796 12.1801C36.1126 12.0512 36.4616 11.9687 36.817 11.9348C37.1984 11.8852 37.5823 11.8668 37.9662 11.8508C38.7653 11.8144 39.565 11.7942 40.3652 11.7903C41.0322 11.7903 41.7462 11.7391 42.3938 11.9281C42.6938 12.0098 42.9656 12.1726 43.1792 12.3985C43.3796 12.6331 43.5363 12.9016 43.642 13.1914C43.9234 13.8962 44.146 14.6278 44.398 15.3444C44.9256 16.862 45.4536 18.3793 45.9823 19.8963L46.1755 20.4507L46.2494 20.2693C46.1739 20.3215 46.1187 20.3981 46.093 20.4862C46.0673 20.5743 46.0727 20.6685 46.1083 20.7531C46.1454 20.8394 46.2146 20.9079 46.3013 20.9441C46.388 20.9803 46.4853 20.9814 46.5728 20.9472C46.6632 20.9175 46.7388 20.8545 46.7842 20.771C46.8296 20.6875 46.8415 20.5897 46.8172 20.4978C46.7861 20.4002 46.7191 20.3182 46.6297 20.2683C46.5403 20.2183 46.4353 20.2043 46.3359 20.229C46.307 20.2395 46.2815 20.2577 46.2623 20.2817C46.2431 20.3057 46.2308 20.3346 46.2268 20.3651C46.2228 20.3956 46.2273 20.4266 46.2397 20.4547C46.2521 20.4829 46.272 20.5071 46.2973 20.5246C46.367 20.5734 46.2906 20.733 46.2133 20.7313L46.372 20.8472C46.3617 20.8176 46.358 20.786 46.3611 20.7548C46.3659 20.7386 46.3715 20.7226 46.3779 20.7069C46.3779 20.7069 46.3527 20.7178 46.3485 20.7145C46.343 20.7029 46.3406 20.6901 46.3415 20.6773C46.3424 20.6645 46.3465 20.6521 46.3536 20.6414L46.6224 20.7128L46.572 20.5448C46.514 20.3474 46.2066 20.4306 46.2628 20.6288L46.3124 20.7968C46.3202 20.8236 46.3348 20.8479 46.3548 20.8673C46.3747 20.8868 46.3993 20.9008 46.4263 20.908C46.4532 20.9152 46.4815 20.9153 46.5085 20.9083C46.5355 20.9013 46.5603 20.8875 46.5804 20.8682C46.7752 20.7002 46.5879 20.3911 46.3611 20.3886C46.0797 20.3886 45.9991 20.7136 46.0587 20.9329C46.0689 20.9667 46.0895 20.9964 46.1176 21.0178C46.1456 21.0392 46.1797 21.0512 46.215 21.0522C46.635 21.058 46.7904 20.47 46.4611 20.2416L46.4224 20.5364C46.493 20.5188 46.5476 20.6112 46.4653 20.6414C46.4525 20.6455 46.4388 20.6449 46.4264 20.6399C46.414 20.6349 46.4038 20.6257 46.3975 20.6139C46.3912 20.6021 46.3893 20.5885 46.392 20.5754C46.3947 20.5623 46.4019 20.5506 46.4124 20.5423C46.4419 20.5236 46.465 20.4962 46.4782 20.4638C46.4915 20.4314 46.4943 20.3957 46.4863 20.3617C45.9336 18.7858 45.3806 17.21 44.8273 15.6342C44.5585 14.8698 44.2981 14.1012 44.0192 13.3401C43.7924 12.7194 43.4875 12.1011 42.8692 11.7912C42.251 11.4812 41.5521 11.4913 40.886 11.4888C40.051 11.4888 39.2164 11.5036 38.382 11.5333C37.584 11.5644 36.7633 11.5795 35.9896 11.7996C35.6948 11.8836 35.3882 12.0096 35.1748 12.2389C34.9321 12.501 34.8724 12.8496 34.9178 13.1956C34.9821 13.5756 35.0697 13.9512 35.1799 14.3204C35.2824 14.7169 35.3893 15.1128 35.5008 15.5082C35.7208 16.2922 35.9572 17.0711 36.2097 17.845C36.2736 18.0399 36.338 18.2359 36.4029 18.433C36.439 18.5397 36.6079 18.4952 36.5709 18.386L36.5743 18.3835Z" fill="#0072BC"/>
<path d="M47.5661 12.0028C48.2842 12.1936 49.017 12.3237 49.7568 12.3918C50.0374 12.417 50.3549 12.3918 50.4784 12.0927C50.5207 11.9554 50.5524 11.8149 50.5733 11.6727C50.6032 11.549 50.646 11.4288 50.701 11.314C50.9404 10.8201 51.3646 10.4438 51.793 10.1137C52.2533 9.75752 52.7422 9.44168 53.179 9.05108C54.1265 8.21108 54.8749 7.09136 55.0816 5.8238C55.1927 5.1782 55.1553 4.51578 54.9724 3.88676C54.7926 3.29984 54.4713 2.76615 54.0366 2.33276C53.1714 1.46588 51.9635 1.02236 50.7539 0.959358C50.0351 0.930152 49.3158 1.00369 48.6178 1.17776C48.2638 1.26263 47.9144 1.36581 47.5711 1.48688C47.3032 1.57637 47.046 1.69526 46.8042 1.84136C46.3624 2.11772 45.9566 2.55788 46.0314 3.11732C46.0776 3.45332 46.2834 3.76244 46.4573 4.05056C46.6415 4.35968 46.8358 4.66208 47.0402 4.95776C47.2446 5.25344 47.4546 5.53736 47.6702 5.80952C47.8685 6.06152 48.0701 6.35804 48.3498 6.52688C48.6295 6.69572 48.9722 6.66632 49.2738 6.542C49.5754 6.41768 49.8366 6.19508 50.1398 6.06152C50.3767 5.95736 50.664 5.92628 50.879 6.09848C51.1436 6.31016 50.9454 6.62768 50.7724 6.82928C50.3792 7.2854 49.8391 7.57352 49.3494 7.9112C49.0945 8.08159 48.8585 8.27871 48.6455 8.4992C48.4327 8.73093 48.2481 8.98694 48.0953 9.26192C47.9391 9.54598 47.8019 9.84006 47.6845 10.1422C47.5619 10.4472 47.4384 10.7571 47.3443 11.073C47.2502 11.3888 47.2276 11.6929 47.3636 12.0045C47.4224 12.1372 47.6156 12.0222 47.5594 11.8903C47.43 11.5938 47.5594 11.2183 47.6602 10.9302C47.761 10.642 47.8702 10.3489 47.9894 10.0641C48.2204 9.49964 48.522 8.94188 48.9764 8.51936C49.4023 8.12372 49.9265 7.85828 50.3902 7.51136C50.6257 7.34397 50.838 7.14627 51.0218 6.92336C51.1999 6.6974 51.3436 6.40844 51.2142 6.12284C51.1126 5.89856 50.8715 5.76332 50.6354 5.7272C50.3448 5.68352 50.0676 5.79272 49.8181 5.93384C49.5401 6.09092 49.2822 6.29168 48.9613 6.35384C48.6404 6.416 48.4103 6.23708 48.2112 6.00776C47.7637 5.4838 47.3549 4.92793 46.9882 4.34456C46.8067 4.06148 46.6295 3.77252 46.4707 3.47516C46.343 3.23492 46.2666 2.97116 46.3733 2.7116C46.5598 2.2538 47.0974 1.9808 47.5333 1.81952C48.1811 1.57586 48.8538 1.40458 49.5392 1.3088C50.769 1.14584 52.0475 1.3088 53.1143 1.97156C53.5883 2.26167 53.9929 2.6522 54.2995 3.11564C54.6307 3.63193 54.8226 4.22518 54.8564 4.83764C54.9304 6.09092 54.4205 7.28456 53.6141 8.22536C53.2215 8.67063 52.7796 9.06994 52.297 9.41564C51.8627 9.73736 51.4133 10.049 51.037 10.4362C50.6749 10.8058 50.3902 11.251 50.307 11.7685C50.2868 11.897 50.2776 12.0608 50.1466 12.1272C50.0155 12.1935 49.871 12.1717 49.74 12.1624C49.3738 12.1364 49.0084 12.0944 48.648 12.0356C48.3028 11.9793 47.96 11.9071 47.6207 11.8222C47.5977 11.8183 47.574 11.823 47.5542 11.8355C47.5345 11.8481 47.5201 11.8675 47.514 11.89C47.5078 11.9126 47.5102 11.9366 47.5208 11.9575C47.5313 11.9783 47.5493 11.9945 47.5711 12.0028H47.5661ZM50.0777 13.4628C49.6951 13.4005 49.3091 13.3612 48.9218 13.3452C48.5612 13.319 48.1989 13.3277 47.8399 13.3712C47.6908 13.3869 47.5465 13.4334 47.4164 13.5079C47.2862 13.5824 47.173 13.6832 47.0839 13.8038C46.926 14.0331 46.8798 14.3246 46.8731 14.5968C46.8711 14.737 46.877 14.8772 46.8907 15.0168C46.8935 15.1763 46.9254 15.334 46.9848 15.4821C47.0607 15.6135 47.182 15.7127 47.3258 15.761C47.4932 15.8303 47.6675 15.8815 47.8458 15.9139C48.2011 15.9718 48.5619 15.9887 48.921 15.9643C49.2637 15.9466 49.6283 15.929 49.9231 15.7308C50.2011 15.5378 50.4003 15.2513 50.4842 14.9235C50.5892 14.5287 50.5187 14.1062 50.3801 13.729C50.3255 13.5804 50.0903 13.6408 50.1398 13.7954C50.3137 14.333 50.3078 14.9941 49.8677 15.4057C49.6518 15.6056 49.3738 15.6518 49.0907 15.6753C48.7755 15.707 48.4582 15.7109 48.1423 15.6871C47.9917 15.6737 47.8425 15.6475 47.6963 15.609C47.5462 15.5824 47.4033 15.5252 47.2763 15.441C47.1797 15.3612 47.1696 15.2226 47.157 15.105C47.142 14.9752 47.1325 14.8449 47.1284 14.7144C47.1094 14.4735 47.1513 14.2317 47.2502 14.0113C47.3096 13.9034 47.3927 13.8105 47.4933 13.7395C47.5938 13.6685 47.7092 13.6212 47.8307 13.6014C48.1742 13.5266 48.5464 13.5375 48.8966 13.5417C49.2822 13.5459 49.6686 13.5703 50.0516 13.6114C50.1356 13.6207 50.1592 13.4728 50.0726 13.4586L50.0777 13.4628Z" fill="black"/>
<path d="M29.3056 2.64233C28.6244 2.89314 28.0435 3.35905 27.6508 3.96953C27.2031 4.64741 27.004 5.46389 27.0015 6.27029C27.0006 6.69673 27.0494 7.12183 27.1468 7.53701C27.2265 7.91363 27.3724 8.27312 27.5777 8.59877C27.9683 9.18677 28.7336 9.62693 29.4459 9.35477C30.0834 9.11117 30.4211 8.22077 29.923 7.68401C29.8996 7.66122 29.8683 7.64847 29.8356 7.64847C29.803 7.64847 29.7717 7.66122 29.7483 7.68401C29.2082 8.20733 29.2863 9.02801 29.4904 9.68489C29.6987 10.3569 30.0398 11.0574 30.5606 11.5413C30.8462 11.8151 31.211 11.9915 31.603 12.0453C31.6364 12.0453 31.6685 12.032 31.6921 12.0084C31.7157 11.9848 31.729 11.9527 31.729 11.9193C31.729 11.8859 31.7157 11.8538 31.6921 11.8302C31.6685 11.8066 31.6364 11.7933 31.603 11.7933C30.957 11.7093 30.4942 11.1784 30.1851 10.645C29.8667 10.0956 29.5971 9.44213 29.5836 8.79701C29.5769 8.44589 29.6676 8.10233 29.9196 7.85117H29.7483C30.1145 8.24177 29.8508 8.92049 29.3972 9.11117C28.7604 9.37913 28.0725 8.95157 27.7382 8.41901C27.3585 7.81505 27.23 7.03889 27.2182 6.33749C27.194 5.59545 27.3729 4.8609 27.7356 4.21313C28.0989 3.57727 28.6725 3.08802 29.3577 2.82965C29.4744 2.78765 29.4249 2.60033 29.3056 2.64233ZM34.5228 5.48909C35.0442 6.66845 35.5079 7.87077 35.9139 9.09605C35.9517 9.20861 36.1314 9.15989 36.0928 9.04649C35.6728 7.81449 35.1943 6.60265 34.6572 5.41097C34.6161 5.31941 34.4825 5.39837 34.5228 5.48909ZM39.5385 4.57013L39.5284 8.57525C39.5284 8.5983 39.5376 8.62042 39.5539 8.63672C39.5702 8.65303 39.5923 8.66219 39.6153 8.66219C39.6384 8.66219 39.6605 8.65303 39.6768 8.63672C39.6931 8.62042 39.7023 8.5983 39.7023 8.57525L39.6922 4.56929C39.6902 4.55029 39.6813 4.5327 39.6671 4.51991C39.6529 4.50713 39.6344 4.50005 39.6153 4.50005C39.5962 4.50005 39.5778 4.50713 39.5636 4.51991C39.5494 4.5327 39.5405 4.55029 39.5385 4.56929V4.57013ZM44.3828 4.96325L43.3546 8.38289C43.3505 8.40574 43.3551 8.42929 43.3675 8.44893C43.3799 8.46857 43.3991 8.48289 43.4215 8.48909C43.4439 8.49529 43.4678 8.49292 43.4885 8.48244C43.5092 8.47196 43.5252 8.45414 43.5335 8.43245L44.5415 5.00693C44.5417 4.98845 44.5358 4.97043 44.5247 4.95566C44.5136 4.94088 44.4979 4.93018 44.4801 4.92521C44.4623 4.92023 44.4434 4.92126 44.4263 4.92814C44.4091 4.93502 44.3947 4.94736 44.3853 4.96325H44.3828ZM45.0564 10.2082C45.3317 10.0596 45.6275 9.9529 45.9342 9.89153C45.958 9.88507 45.9782 9.86944 45.9904 9.8481C46.0026 9.82675 46.0058 9.80143 45.9993 9.77771C45.9929 9.75398 45.9773 9.73379 45.9559 9.72158C45.9346 9.70937 45.9092 9.70615 45.8855 9.71261C45.5625 9.77799 45.2511 9.89124 44.9615 10.0486C44.8582 10.1049 44.9506 10.2628 45.0539 10.2065L45.0564 10.2082ZM59.7993 4.86329C60.3419 5.07917 60.6796 5.61257 60.8594 6.14513C61.0188 6.63624 61.076 7.15482 61.0274 7.66889C60.932 8.69126 60.4821 9.6481 59.7556 10.3737C59.3975 10.7355 58.9713 11.0227 58.5015 11.2187C58.2654 11.3145 57.9849 11.4153 57.7278 11.3531C57.6666 11.3418 57.6089 11.3159 57.5598 11.2775C57.5355 11.232 57.5253 11.1802 57.5304 11.1288C57.534 11.0071 57.5706 10.8887 57.6363 10.7861C57.7029 10.6785 57.7923 10.5868 57.8983 10.5175C58.0043 10.4483 58.1241 10.4032 58.2495 10.3854C58.3788 10.3757 58.5087 10.3925 58.6313 10.4346C58.7539 10.4768 58.8667 10.5435 58.9626 10.6307C59.4482 11.0507 59.528 11.7093 59.4045 12.3107C59.281 12.9122 59.0189 13.5354 58.6124 14C58.226 14.4418 57.6522 14.7492 57.0516 14.6661C56.91 14.6464 56.7728 14.6027 56.6459 14.5367L56.6972 14.7324C56.8652 14.4628 57.0718 14.1789 57.3692 14.0453C57.6044 13.9412 57.932 13.9479 58.1092 14.1562C58.2965 14.3771 58.2251 14.7123 58.1092 14.95C57.9665 15.2323 57.7662 15.4816 57.5212 15.6816C57.2421 15.9182 56.9189 16.0972 56.5703 16.2083C56.4023 16.2621 56.4737 16.5208 56.6426 16.4712C57.3591 16.2596 58.0806 15.7379 58.3856 15.0374C58.5284 14.7106 58.5821 14.3066 58.3545 14.0042C58.1369 13.7144 57.7472 13.6379 57.4086 13.727C56.971 13.842 56.6736 14.2217 56.4443 14.588C56.4255 14.6208 56.4204 14.6597 56.43 14.6963C56.4395 14.7329 56.4631 14.7643 56.4956 14.7837C57.102 15.097 57.8555 14.971 58.394 14.5745C58.961 14.1545 59.3087 13.5195 59.5313 12.8643C59.7606 12.1923 59.8514 11.3825 59.4288 10.7643C59.0844 10.2603 58.4309 9.93185 57.8488 10.2443C57.7182 10.3131 57.6028 10.4076 57.5096 10.5221C57.4163 10.6365 57.3471 10.7686 57.3062 10.9104C57.2667 11.0531 57.2667 11.2038 57.3062 11.3464C57.3482 11.4842 57.5262 11.5589 57.6564 11.5892C57.9605 11.6597 58.2764 11.564 58.5561 11.448C58.8224 11.3387 59.076 11.2004 59.3121 11.0356C60.2664 10.3598 60.9261 9.34463 61.1559 8.19809C61.2713 7.63531 61.269 7.05474 61.1492 6.49289C61.0181 5.89901 60.7384 5.29001 60.2403 4.91621C60.1191 4.82649 59.9863 4.75359 59.8455 4.69949C59.7438 4.66001 59.701 4.82297 59.8001 4.86749L59.7993 4.86329Z" fill="#0072BC"/>
</svg>
