<svg width="32" height="32" viewBox="0 0 32 32" fill="none" xmlns="http://www.w3.org/2000/svg">
<g clip-path="url(#clip0_37_33817)">
<g clip-path="url(#clip1_37_33817)">
<path d="M28.1379 5.51709C25.3793 5.51709 24.5555 7.48716 23.7241 8.27571C22.8927 7.48716 22.0689 5.51709 19.3103 5.51709C16.7497 5.51709 15.4482 8.47371 15.4482 11.0343C15.4482 15.4481 23.7241 20.4136 23.7241 20.4136C23.7241 20.4136 32 15.4481 32 11.0343C32 8.47371 30.6985 5.51709 28.1379 5.51709Z" fill="#DD3E46"/>
<path d="M12.6897 0C9.93103 0 9.10724 1.97007 8.27586 2.75862C7.44448 1.97007 6.62069 0 3.86207 0C1.30145 0 0 2.95662 0 5.51724C0 9.93103 8.27586 14.8966 8.27586 14.8966C8.27586 14.8966 16.5517 9.93103 16.5517 5.51724C16.5517 2.95662 15.2503 0 12.6897 0ZM20.4138 17.1034C17.6552 17.1034 16.8314 19.0735 16 19.8621C15.1686 19.0735 14.3448 17.1034 11.5862 17.1034C9.02559 17.1034 7.72414 20.0601 7.72414 22.6207C7.72414 27.0345 16 32 16 32C16 32 24.2759 27.0345 24.2759 22.6207C24.2759 20.0601 22.9744 17.1034 20.4138 17.1034Z" fill="#F98C96"/>
<path d="M9.13404 12.0451L8.52148 11.127C8.56838 11.0955 13.2416 7.9403 13.2416 4.96533H14.345C14.345 8.53002 9.34638 11.9034 9.13404 12.0451ZM14.345 3.31016H13.2416C13.2486 3.23538 13.239 3.15997 13.2133 3.08938C13.1876 3.01879 13.1466 2.9548 13.0931 2.90202C13.0397 2.84918 12.9752 2.80889 12.9043 2.78405C12.8334 2.75922 12.7578 2.75047 12.6831 2.75844L12.6898 1.65499C12.9089 1.64856 13.127 1.687 13.3307 1.76793C13.5344 1.84886 13.7194 1.97058 13.8744 2.12561C14.0294 2.28056 14.1511 2.46556 14.2321 2.66927C14.313 2.87297 14.3514 3.09106 14.345 3.31016ZM24.5823 17.5623L23.9698 16.6442C24.0167 16.6127 28.6898 13.4575 28.6898 10.4826H29.7933C29.7933 14.0473 24.7947 17.4206 24.5823 17.5623ZM29.7933 8.8274H28.6898C28.6969 8.75262 28.6872 8.67721 28.6616 8.60662C28.6359 8.53604 28.5949 8.47204 28.5414 8.41926C28.488 8.36642 28.4235 8.32613 28.3525 8.30129C28.2816 8.27646 28.2061 8.26771 28.1313 8.27568L28.1381 7.17223C28.3572 7.16581 28.5753 7.20424 28.779 7.28517C28.9827 7.3661 29.1677 7.48782 29.3227 7.64285C29.4777 7.7978 29.5994 7.98281 29.6803 8.18651C29.7613 8.39021 29.7997 8.60831 29.7933 8.8274ZM16.8582 29.1485L16.2456 28.2304C16.2925 28.1989 20.9657 25.0437 20.9657 22.0688H22.0691C22.0691 25.6335 17.0705 29.0068 16.8582 29.1485ZM22.0691 20.4136H20.9657C20.9728 20.3388 20.9631 20.2634 20.9374 20.1928C20.9118 20.1222 20.8707 20.0582 20.8173 20.0055C20.7638 19.9526 20.6993 19.9123 20.6284 19.8875C20.5575 19.8627 20.4819 19.8539 20.4072 19.8619L20.414 18.7584C20.6331 18.752 20.8512 18.7904 21.0549 18.8714C21.2586 18.9523 21.4436 19.074 21.5985 19.2291C21.7536 19.384 21.8753 19.569 21.9562 19.7727C22.0371 19.9764 22.0756 20.1945 22.0691 20.4136Z" fill="white"/>
</g>
</g>
<defs>
<clipPath id="clip0_37_33817">
<rect width="32" height="32" fill="white"/>
</clipPath>
<clipPath id="clip1_37_33817">
<rect width="32" height="32" fill="white"/>
</clipPath>
</defs>
</svg>
