<svg width="28" height="23" viewBox="0 0 28 23" fill="none" xmlns="http://www.w3.org/2000/svg">
<g clip-path="url(#clip0_1106_60039)">
<path d="M27.4476 22.2005V22.2571H27.4999C27.5097 22.2572 27.5193 22.2548 27.5279 22.2499C27.5313 22.2474 27.534 22.2442 27.5358 22.2404C27.5377 22.2366 27.5385 22.2324 27.5384 22.2282C27.5385 22.2241 27.5377 22.22 27.5358 22.2163C27.534 22.2126 27.5312 22.2095 27.5279 22.2072C27.5194 22.2021 27.5097 22.1995 27.4999 22.2H27.4476V22.2005ZM27.5004 22.1605C27.5228 22.1591 27.545 22.1656 27.5631 22.1789C27.5704 22.1849 27.5762 22.1926 27.58 22.2013C27.5838 22.21 27.5856 22.2195 27.5851 22.229C27.5855 22.2371 27.584 22.2453 27.581 22.2529C27.578 22.2604 27.5734 22.2673 27.5675 22.2729C27.5535 22.2852 27.5359 22.2926 27.5174 22.294L27.5874 22.3746H27.5335L27.4691 22.2946H27.4482V22.3746H27.4031V22.1607H27.5011L27.5004 22.1605ZM27.4864 22.4484C27.5101 22.4486 27.5335 22.4438 27.5552 22.4342C27.5761 22.4252 27.5951 22.4122 27.6112 22.3959C27.6273 22.3797 27.6402 22.3605 27.6491 22.3394C27.6675 22.2946 27.6675 22.2442 27.6491 22.1994C27.64 22.1783 27.6272 22.1592 27.6112 22.1428C27.595 22.1266 27.576 22.1136 27.5552 22.1045C27.5334 22.0955 27.51 22.091 27.4864 22.0912C27.4625 22.091 27.4387 22.0955 27.4164 22.1045C27.3951 22.1134 27.3756 22.1265 27.3592 22.1428C27.3344 22.1685 27.3176 22.2009 27.311 22.2361C27.3044 22.2713 27.3081 22.3077 27.3218 22.3408C27.3303 22.362 27.343 22.3813 27.3592 22.3973C27.3756 22.4137 27.3951 22.4267 27.4164 22.4357C27.4385 22.4452 27.4624 22.45 27.4864 22.4498V22.4484ZM27.4864 22.0398C27.5479 22.0397 27.607 22.0641 27.6509 22.1076C27.6721 22.1286 27.6889 22.1535 27.7005 22.181C27.7124 22.2093 27.7186 22.2397 27.7186 22.2704C27.7186 22.3012 27.7124 22.3316 27.7005 22.3599C27.6887 22.3873 27.6718 22.4121 27.6509 22.4333C27.6294 22.4541 27.6045 22.4708 27.5771 22.4827C27.5485 22.495 27.5176 22.5013 27.4864 22.5011C27.4549 22.5014 27.4236 22.4951 27.3946 22.4827C27.3669 22.4711 27.3417 22.4543 27.3202 22.4333C27.2993 22.4114 27.2827 22.3856 27.2714 22.3575C27.2594 22.3292 27.2532 22.2988 27.2532 22.268C27.2532 22.2373 27.2594 22.2069 27.2714 22.1786C27.2829 22.1511 27.2998 22.1261 27.3209 22.1052C27.3421 22.0838 27.3674 22.067 27.3953 22.0557C27.4243 22.0434 27.4556 22.0371 27.4871 22.0374L27.4864 22.0398ZM6.04962 21.2136C6.04962 20.8057 6.31422 20.4706 6.74668 20.4706C7.15996 20.4706 7.43884 20.7913 7.43884 21.2136C7.43884 21.636 7.15996 21.9566 6.74668 21.9566C6.31422 21.9566 6.04962 21.6215 6.04962 21.2136ZM7.90994 21.2136V20.0528H7.41028V20.3356C7.2518 20.1266 7.01142 19.9956 6.68452 19.9956C6.04052 19.9956 5.53512 20.5057 5.53512 21.2142C5.53512 21.9227 6.04024 22.4328 6.68452 22.4328C7.01128 22.4328 7.2518 22.3016 7.41028 22.0928V22.3746H7.90938V21.2136H7.90994ZM24.7928 21.2136C24.7928 20.8057 25.0574 20.4706 25.49 20.4706C25.9037 20.4706 26.1822 20.7913 26.1822 21.2136C26.1822 21.636 25.9037 21.9566 25.49 21.9566C25.0576 21.9566 24.7928 21.6215 24.7928 21.2136ZM26.6537 21.2136V19.1211H26.1536V20.3356C25.9951 20.1266 25.7548 19.9956 25.4279 19.9956C24.7839 19.9956 24.2785 20.5057 24.2785 21.2142C24.2785 21.9227 24.7836 22.4328 25.4279 22.4328C25.7548 22.4328 25.9951 22.3016 26.1536 22.0928V22.3746H26.6537V21.2136ZM14.1114 20.4468C14.4334 20.4468 14.6402 20.6506 14.6929 21.0096H13.5007C13.554 20.6745 13.7555 20.4468 14.1115 20.4468H14.1114ZM14.1215 19.9943C13.4481 19.9943 12.977 20.4892 12.977 21.2129C12.977 21.9508 13.467 22.4316 14.1549 22.4316C14.501 22.4316 14.818 22.3443 15.0968 22.1064L14.852 21.7324C14.6593 21.8879 14.4141 21.9752 14.1835 21.9752C13.8615 21.9752 13.5683 21.8246 13.4962 21.4068H15.2024C15.2073 21.344 15.2123 21.2807 15.2123 21.2128C15.2073 20.4893 14.7643 19.9942 14.1212 19.9942L14.1215 19.9943ZM20.1538 21.2128C20.1538 20.8049 20.4184 20.4698 20.8508 20.4698C21.2641 20.4698 21.543 20.7905 21.543 21.2128C21.543 21.6351 21.2641 21.9558 20.8508 21.9558C20.4184 21.9558 20.1536 21.6207 20.1536 21.2128H20.1538ZM22.014 21.2128V20.0528H21.5146V20.3356C21.3555 20.1266 21.1157 19.9956 20.7888 19.9956C20.1448 19.9956 19.6394 20.5057 19.6394 21.2142C19.6394 21.9227 20.1445 22.4328 20.7888 22.4328C21.1157 22.4328 21.3555 22.3016 21.5146 22.0928V22.3746H22.0141V21.2136L22.014 21.2128ZM17.3321 21.2128C17.3321 21.9168 17.8173 22.4314 18.5579 22.4314C18.904 22.4314 19.1346 22.3537 19.3839 22.1547L19.144 21.7468C18.9564 21.883 18.7594 21.9558 18.542 21.9558C18.1431 21.9508 17.8498 21.6596 17.8498 21.2128C17.8498 20.766 18.1431 20.4749 18.542 20.4698C18.7588 20.4698 18.9558 20.5426 19.144 20.6788L19.3839 20.2709C19.1342 20.0719 18.9036 19.9942 18.5579 19.9942C17.8173 19.9942 17.3321 20.5087 17.3321 21.2128ZM23.7735 19.9942C23.4852 19.9942 23.2975 20.1303 23.1677 20.3342V20.0528H22.6725V22.3733H23.1727V21.0725C23.1727 20.6885 23.3361 20.4752 23.6627 20.4752C23.7697 20.4736 23.8759 20.4935 23.9752 20.5336L24.1292 20.0579C24.0186 20.014 23.8744 19.9946 23.7732 19.9946L23.7735 19.9942ZM10.3802 20.2374C10.1399 20.0773 9.80862 19.9946 9.44322 19.9946C8.8611 19.9946 8.48632 20.2764 8.48632 20.7374C8.48632 21.1158 8.76534 21.3492 9.27914 21.422L9.51518 21.456C9.78916 21.4949 9.91852 21.5677 9.91852 21.6987C9.91852 21.8782 9.73652 21.9805 9.39478 21.9805C9.0487 21.9805 8.79894 21.8688 8.63052 21.7378L8.39574 22.1313C8.66972 22.3351 9.0158 22.4324 9.39058 22.4324C10.0542 22.4324 10.4388 22.1168 10.4388 21.675C10.4388 21.2671 10.1361 21.0537 9.636 20.9809L9.40052 20.9464C9.18422 20.9181 9.0109 20.8742 9.0109 20.7186C9.0109 20.549 9.17428 20.4469 9.4484 20.4469C9.7417 20.4469 10.0256 20.5586 10.1648 20.6458L10.3811 20.2379L10.3802 20.2374ZM16.8274 19.995C16.5391 19.995 16.3514 20.1312 16.2222 20.3351V20.0528H15.727V22.3733H16.2266V21.0725C16.2266 20.6885 16.39 20.4752 16.7166 20.4752C16.8236 20.4736 16.9298 20.4935 17.0291 20.5336L17.1831 20.0579C17.0725 20.014 16.9283 19.9946 16.8271 19.9946L16.8274 19.995ZM12.5635 20.0528H11.7465V19.3489H11.2414V20.0528H10.7753V20.5141H11.2414V21.5726C11.2414 22.111 11.4483 22.4317 12.0394 22.4317C12.2562 22.4317 12.506 22.3638 12.6645 22.2523L12.5201 21.8202C12.371 21.9074 12.2077 21.9514 12.0777 21.9514C11.828 21.9514 11.7465 21.7959 11.7465 21.563V20.5145H12.5635V20.0528ZM5.09328 22.3739V20.9176C5.09328 20.3691 4.7472 20.0001 4.1893 19.9952C3.896 19.9902 3.59346 20.0824 3.38164 20.408C3.22316 20.1507 2.9734 19.9952 2.62228 19.9952C2.37686 19.9952 2.13704 20.068 1.9493 20.3397V20.0528H1.44922V22.3733H1.95322V21.0867C1.95322 20.6839 2.17442 20.4698 2.51602 20.4698C2.84782 20.4698 3.01568 20.6882 3.01568 21.0816V22.373H3.5208V21.0864C3.5208 20.6836 3.75138 20.4695 4.08304 20.4695C4.42422 20.4695 4.58704 20.688 4.58704 21.0813V22.3727L5.09328 22.3739Z" fill="#231F20"/>
<path d="M27.7332 14.6557V14.3164H27.6457L27.5444 14.5493L27.4438 14.3164H27.356V14.6557H27.4182V14.4001L27.5128 14.6207H27.5772L27.6718 14.3995V14.6557H27.7334H27.7332ZM27.1781 14.6557V14.3745H27.2901V14.3173H27.0039V14.3745H27.1159V14.6557H27.1775H27.1781Z" fill="#F79410"/>
<path d="M17.7869 16.1101H10.2148V2.36719H17.787L17.7869 16.1101Z" fill="#FF5F00"/>
<path d="M10.696 9.2402C10.696 6.45245 11.9885 3.96911 14.0011 2.36874C12.4777 1.15555 10.5934 0.497114 8.65326 0.50001C3.87408 0.50001 0 4.41307 0 9.2402C0 14.0673 3.87408 17.9804 8.65326 17.9804C10.5934 17.9833 12.4778 17.3249 14.0013 16.1117C11.9888 14.5116 10.696 12.0281 10.696 9.2402Z" fill="#EB001B"/>
<path d="M28.002 9.2402C28.002 14.0673 24.1279 17.9804 19.3487 17.9804C17.4083 17.9833 15.5238 17.3248 14 16.1117C16.0132 14.5113 17.3057 12.0281 17.3057 9.2402C17.3057 6.45231 16.0132 3.96911 14 2.36874C15.5238 1.15559 17.4083 0.497165 19.3486 0.500009C24.1277 0.500009 28.0018 4.41307 28.0018 9.2402" fill="#F79E1B"/>
</g>
<defs>
<clipPath id="clip0_1106_60039">
<rect width="28" height="22" fill="white" transform="translate(0 0.5)"/>
</clipPath>
</defs>
</svg>
