<svg width="32" height="32" viewBox="0 0 32 32" fill="none" xmlns="http://www.w3.org/2000/svg">
<g clip-path="url(#clip0_37_33728)">
<path d="M16.3231 31.8198C18.1398 31.2035 19.1129 29.2311 18.4966 27.4144C17.8803 25.5977 15.9079 24.6246 14.0912 25.241C12.2745 25.8573 11.3014 27.8297 11.9177 29.6464C12.5341 31.4631 14.5064 32.4362 16.3231 31.8198Z" fill="#FFE266"/>
<path d="M15.2137 25.0527C14.9926 25.0527 14.7766 25.0743 14.5669 25.1138C15.5842 25.3517 16.3421 26.2638 16.3421 27.3537C16.3421 28.6245 15.3119 29.6546 14.0412 29.6546C12.9513 29.6546 12.0392 28.8967 11.8013 27.8794C11.7609 28.0927 11.7404 28.3092 11.7402 28.5262C11.7402 30.4447 13.2954 31.9998 15.2138 31.9998C17.1322 31.9998 18.6874 30.4447 18.6874 28.5262C18.6873 26.6079 17.1322 25.0527 15.2137 25.0527Z" fill="#EFAA66"/>
<path d="M24.6145 0.868179C23.6517 0.312293 22.4206 0.642172 21.8647 1.605L20.1968 4.49394C19.6409 5.45677 19.9708 6.68789 20.9336 7.24378C21.8964 7.79967 23.1276 7.46979 23.6835 6.50696L25.3514 3.61802C25.9073 2.65519 25.5774 1.42407 24.6145 0.868179Z" fill="#FFE266"/>
<path d="M23.661 29.9249C22.285 27.7427 27.0019 18.0858 27.0628 17.9625C29.6179 12.7847 27.6419 6.59008 22.6493 4.12635C17.6567 1.66261 11.538 3.86278 8.98293 9.04054C8.85206 9.3058 4.30757 18.9869 1.69482 19.085L23.661 29.9249Z" fill="#FFE266"/>
<path d="M22.6493 4.12598C22.1159 3.86252 21.5596 3.64826 20.9873 3.48584C23.6621 5.61205 24.5532 9.47548 22.9256 12.7739C22.9015 12.8226 21.88 14.9136 21.1084 17.0733C20.3386 19.2279 17.8728 20.2397 15.821 19.2272L6.0883 14.4243C4.64626 16.7848 2.94835 19.0376 1.69482 19.0847L23.661 29.9244C22.285 27.7423 27.0019 18.0854 27.0628 17.9621C29.6179 12.7844 27.6419 6.58971 22.6493 4.12598Z" fill="#EFAA66"/>
<path d="M12.6331 9.40884C12.4849 9.40898 12.3412 9.35807 12.2262 9.26469C11.9481 9.03972 11.905 8.632 12.1299 8.35392C12.7351 7.60541 13.4537 6.95627 14.2597 6.43008C14.559 6.23444 14.9604 6.31876 15.1559 6.61827C15.3515 6.91771 15.2672 7.31902 14.9677 7.51453C14.2748 7.96686 13.6571 8.52493 13.1369 9.16846C13.0762 9.24364 12.9995 9.30426 12.9123 9.34586C12.8251 9.38746 12.7297 9.40898 12.6331 9.40884ZM16.5862 6.67215C16.3138 6.67215 16.0604 6.49898 15.971 6.22609C15.8596 5.88624 16.0448 5.52042 16.3846 5.40903C16.6307 5.32834 16.8837 5.25763 17.1366 5.1987C17.4849 5.11749 17.8331 5.33404 17.9142 5.68238C17.9954 6.03065 17.7789 6.37886 17.4306 6.46006C17.2139 6.51058 16.9995 6.57054 16.788 6.63977C16.7211 6.66166 16.653 6.67215 16.5862 6.67215Z" fill="white"/>
<path d="M21.8761 31.0673L1.73627 21.1288C0.95451 20.743 0.633503 19.7965 1.01927 19.0147L1.04465 18.9633C1.43042 18.1816 2.37693 17.8606 3.15869 18.2463L23.2985 28.1849C24.0803 28.5706 24.4013 29.5171 24.0155 30.2989L23.9901 30.3503C23.6044 31.1322 22.6579 31.4532 21.8761 31.0673Z" fill="#FFE266"/>
<path d="M18.3051 29.9533C18.2058 29.9533 18.1079 29.9304 18.019 29.8863L12.4827 27.1543C12.162 26.996 12.0303 26.6077 12.1886 26.287C12.3469 25.9663 12.7351 25.8345 13.0559 25.9928L18.5922 28.7248C18.9129 28.8831 19.0446 29.2714 18.8864 29.5921C18.8328 29.7006 18.75 29.7919 18.6473 29.8557C18.5446 29.9196 18.426 29.9534 18.3051 29.9533Z" fill="#D0844B"/>
<path d="M2.59474 6.38084L3.12667 7.87663C3.14946 7.94068 3.19454 7.99145 3.25146 8.0171L4.58037 8.61585C4.7681 8.70043 4.7681 8.99955 4.58037 9.08419L3.25146 9.68294C3.19454 9.70859 3.14946 9.75929 3.12667 9.82334L2.59474 11.3191C2.51962 11.5304 2.25379 11.5304 2.17867 11.3191L1.64674 9.82334C1.62395 9.75929 1.57888 9.70852 1.52196 9.68294L0.193047 9.08419C0.00531241 8.99961 0.00531241 8.70049 0.193047 8.61585L1.52196 8.0171C1.57888 7.99145 1.62395 7.94068 1.64674 7.87663L2.17867 6.38084C2.25379 6.16954 2.51956 6.16954 2.59474 6.38084ZM9.19926 0.117537L9.59384 1.22704C9.61074 1.27458 9.64415 1.3122 9.68638 1.33124L10.6721 1.77535C10.8114 1.8381 10.8114 2.05997 10.6721 2.12272L9.68638 2.56683C9.64415 2.58587 9.61074 2.62349 9.59384 2.67103L9.19926 3.78053C9.14351 3.93731 8.94638 3.93731 8.89062 3.78053L8.49605 2.67103C8.47915 2.62349 8.44573 2.58587 8.40351 2.56683L7.41776 2.12272C7.27853 2.05997 7.27853 1.8381 7.41776 1.77535L8.40351 1.33124C8.44573 1.3122 8.47915 1.27458 8.49605 1.22704L8.89062 0.117537C8.94638 -0.0391789 9.14351 -0.0391789 9.19926 0.117537Z" fill="#FEF2A8"/>
<path d="M31.9353 5.4326C32.0745 4.80636 31.6797 4.18587 31.0534 4.04669C30.4272 3.90751 29.8067 4.30235 29.6675 4.92859C29.5284 5.55483 29.9232 6.17533 30.5494 6.3145C31.1757 6.45368 31.7962 6.05884 31.9353 5.4326Z" fill="#FFE266"/>
<path d="M3.57867 3.69494C3.85539 3.69494 4.07971 3.47062 4.07971 3.19391C4.07971 2.91719 3.85539 2.69287 3.57867 2.69287C3.30196 2.69287 3.07764 2.91719 3.07764 3.19391C3.07764 3.47062 3.30196 3.69494 3.57867 3.69494Z" fill="#FFE266"/>
</g>
<defs>
<clipPath id="clip0_37_33728">
<rect width="32" height="32" fill="white"/>
</clipPath>
</defs>
</svg>
