<svg width="30" height="30" viewBox="0 0 30 30" fill="none" xmlns="http://www.w3.org/2000/svg">
<path d="M27.9174 20.8912L20.959 17.9026C20.6855 17.7851 20.3868 17.7385 20.0905 17.7671C19.7942 17.7957 19.5099 17.8985 19.264 18.0662L15.532 20.5492C15.4507 20.6072 15.3552 20.642 15.2557 20.6499C15.1561 20.6577 15.0563 20.6383 14.967 20.5938C12.5566 19.4349 10.6078 17.4966 9.43592 15.0925C9.39164 15.0005 9.37244 14.8984 9.38027 14.7966C9.3881 14.6947 9.42269 14.5968 9.48053 14.5126L11.9487 10.736C12.1101 10.49 12.2082 10.2078 12.2341 9.91466C12.26 9.62152 12.2131 9.32651 12.0974 9.05592L9.10882 2.08263C8.95499 1.72831 8.69122 1.43291 8.35651 1.24012C8.0218 1.04733 7.63393 0.967381 7.25026 1.0121C5.38566 1.25389 3.67263 2.1656 2.43063 3.57722C1.18863 4.98883 0.502433 6.80399 0.5 8.68421C0.5 20.1626 9.83737 29.5 21.3158 29.5C23.196 29.4976 25.0112 28.8114 26.4228 27.5694C27.8344 26.3274 28.7461 24.6143 28.9879 22.7497C29.0326 22.3661 28.9527 21.9782 28.7599 21.6435C28.5671 21.3088 28.2717 21.045 27.9174 20.8912ZM27.8133 22.6011C27.6076 24.1792 26.835 25.6286 25.6395 26.6791C24.444 27.7296 22.9072 28.3094 21.3158 28.3105C16.1118 28.3066 11.122 26.2376 7.44224 22.5578C3.76244 18.878 1.69341 13.8882 1.68947 8.68421C1.69056 7.09275 2.27041 5.55601 3.32091 4.36052C4.37141 3.16503 5.82084 2.3924 7.39895 2.18671H7.47329C7.58948 2.1879 7.70264 2.22398 7.79808 2.29026C7.89352 2.35654 7.96685 2.44996 8.00855 2.55842L10.9971 9.51684C11.0386 9.60696 11.0563 9.70623 11.0485 9.80516C11.0407 9.90408 11.0077 9.99935 10.9525 10.0818L8.48434 13.8584C8.31604 14.1162 8.21673 14.4129 8.1959 14.7201C8.17508 15.0273 8.23344 15.3347 8.3654 15.6129C9.66045 18.2521 11.8011 20.3822 14.4466 21.6643C14.7253 21.797 15.0339 21.8545 15.3416 21.831C15.6494 21.8075 15.9457 21.7039 16.2011 21.5305L19.9182 19.0475C20.0012 18.9936 20.0963 18.9614 20.195 18.9536C20.2937 18.9458 20.3927 18.9627 20.4832 19.0029L27.4416 21.9914C27.5612 22.0391 27.6621 22.1243 27.7291 22.2343C27.7961 22.3442 27.8257 22.4729 27.8133 22.6011ZM18.5205 11.4795C18.4648 11.4254 18.4204 11.3607 18.3902 11.2892C18.3599 11.2177 18.3443 11.1408 18.3443 11.0632C18.3443 10.9855 18.3599 10.9086 18.3902 10.8371C18.4204 10.7656 18.4648 10.7009 18.5205 10.6468L24.6315 4.52105H20.1263C19.9686 4.52105 19.8173 4.45839 19.7058 4.34685C19.5942 4.23532 19.5316 4.08405 19.5316 3.92631C19.5316 3.76858 19.5942 3.6173 19.7058 3.50577C19.8173 3.39423 19.9686 3.33157 20.1263 3.33157H26.0737C26.2314 3.33157 26.3827 3.39423 26.4942 3.50577C26.6058 3.6173 26.6684 3.76858 26.6684 3.92631V9.87368C26.6684 10.0314 26.6058 10.1827 26.4942 10.2942C26.3827 10.4058 26.2314 10.4684 26.0737 10.4684C25.916 10.4684 25.7647 10.4058 25.6531 10.2942C25.5416 10.1827 25.479 10.0314 25.479 9.87368V5.36855L19.3532 11.4795C19.2991 11.5352 19.2344 11.5796 19.1629 11.6098C19.0914 11.6401 19.0145 11.6557 18.9368 11.6557C18.8592 11.6557 18.7823 11.6401 18.7108 11.6098C18.6393 11.5796 18.5746 11.5352 18.5205 11.4795Z" fill="#0072BC" stroke="#0072BC" stroke-width="0.4"/>
</svg>
