<svg width="24" height="24" viewBox="0 0 24 24" fill="none" xmlns="http://www.w3.org/2000/svg">
<g clip-path="url(#clip0_513_29021)">
<path d="M14.1248 11.991L16.2458 9.87002C16.539 9.57604 16.539 9.102 16.2458 8.80953L15.1853 7.74827C14.892 7.4558 14.418 7.45504 14.1248 7.74827L12.003 9.87002L9.88278 7.74978C9.58879 7.4558 9.114 7.4558 8.82077 7.74827L7.76027 8.80953C7.46704 9.102 7.46779 9.57755 7.76178 9.87078L9.88202 11.991L7.76547 14.1075C7.69576 14.1771 7.64045 14.2597 7.60272 14.3507C7.56499 14.4417 7.54556 14.5392 7.54556 14.6377C7.54556 14.7362 7.56499 14.8338 7.60272 14.9248C7.64045 15.0157 7.69576 15.0984 7.76547 15.168L8.82597 16.2292C9.1192 16.5217 9.59324 16.5225 9.88647 16.2292L12.0029 14.1128L14.1344 16.245C14.4284 16.539 14.9032 16.539 15.1964 16.2458L16.2569 15.1853C16.5502 14.892 16.5494 14.4172 16.2562 14.1233L14.1248 11.991ZM12 0C5.37222 0 0 5.3723 0 11.9992C0 18.627 5.37222 23.9992 12 23.9992C18.6278 23.9992 24 18.627 24 11.9992C24 5.37306 18.6277 0 12 0ZM12 21.7493C6.61503 21.7493 2.25004 17.3843 2.25004 11.9993C2.25004 6.61436 6.61503 2.24928 12 2.24928C17.385 2.24928 21.75 6.61428 21.75 11.9992C21.75 17.3842 17.385 21.7493 12 21.7493Z" fill="#ED7C00"/>
</g>
<defs>
<clipPath id="clip0_513_29021">
<rect width="24" height="24" fill="white"/>
</clipPath>
</defs>
</svg>
