<svg width="34" height="32" viewBox="0 0 34 32" fill="none" xmlns="http://www.w3.org/2000/svg">
<path d="M31.52 1H2.48001C1.95488 1 1.45126 1.20748 1.07994 1.57681C0.708616 1.94614 0.50001 2.44705 0.50001 2.96936V29.0305C0.498827 29.4055 0.605341 29.7731 0.807027 30.09C1.00871 30.4069 1.29718 30.6599 1.63851 30.8193C1.90177 30.9417 2.18942 31.0034 2.48001 30.9999C2.94561 31.0055 3.3973 30.8421 3.75051 30.5403L9.06351 26.0929C9.18513 25.996 9.33667 25.9438 9.49251 25.9452H31.52C32.0451 25.9452 32.5487 25.7377 32.9201 25.3684C33.2914 24.999 33.5 24.4981 33.5 23.9758V2.96936C33.5 2.44705 33.2914 1.94614 32.9201 1.57681C32.5487 1.20748 32.0451 1 31.52 1ZM32.18 23.9758C32.18 24.1499 32.1105 24.3169 31.9867 24.44C31.8629 24.5631 31.695 24.6323 31.52 24.6323H9.49251C9.02792 24.6324 8.57819 24.7951 8.22201 25.0918L2.90901 29.5392C2.81249 29.6214 2.69419 29.6741 2.56831 29.691C2.44243 29.7079 2.31432 29.6883 2.19934 29.6346C2.08437 29.5809 1.98742 29.4953 1.92014 29.3882C1.85285 29.281 1.81808 29.1568 1.82001 29.0305V2.96936C1.82001 2.79525 1.88954 2.62828 2.01332 2.50517C2.13709 2.38207 2.30497 2.3129 2.48001 2.3129H31.52C31.695 2.3129 31.8629 2.38207 31.9867 2.50517C32.1105 2.62828 32.18 2.79525 32.18 2.96936V23.9758ZM10.4 13.4726C10.4 13.7323 10.3226 13.9861 10.1775 14.202C10.0325 14.4179 9.82635 14.5862 9.58515 14.6856C9.34395 14.7849 9.07854 14.8109 8.82249 14.7603C8.56643 14.7096 8.33123 14.5846 8.14663 14.4009C7.96202 14.2173 7.8363 13.9834 7.78537 13.7287C7.73444 13.474 7.76058 13.2101 7.86049 12.9702C7.96039 12.7303 8.12958 12.5252 8.34665 12.3809C8.56373 12.2367 8.81894 12.1597 9.08001 12.1597C9.43009 12.1597 9.76584 12.298 10.0134 12.5442C10.2609 12.7904 10.4 13.1244 10.4 13.4726ZM18.32 13.4726C18.32 13.7323 18.2426 13.9861 18.0975 14.202C17.9525 14.4179 17.7463 14.5862 17.5051 14.6856C17.2639 14.7849 16.9985 14.8109 16.7425 14.7603C16.4864 14.7096 16.2512 14.5846 16.0666 14.4009C15.882 14.2173 15.7563 13.9834 15.7054 13.7287C15.6544 13.474 15.6806 13.2101 15.7805 12.9702C15.8804 12.7303 16.0496 12.5252 16.2667 12.3809C16.4837 12.2367 16.7389 12.1597 17 12.1597C17.3501 12.1597 17.6858 12.298 17.9334 12.5442C18.1809 12.7904 18.32 13.1244 18.32 13.4726ZM26.24 13.4726C26.24 13.7323 26.1626 13.9861 26.0175 14.202C25.8725 14.4179 25.6663 14.5862 25.4251 14.6856C25.1839 14.7849 24.9185 14.8109 24.6625 14.7603C24.4064 14.7096 24.1712 14.5846 23.9866 14.4009C23.802 14.2173 23.6763 13.9834 23.6254 13.7287C23.5744 13.474 23.6006 13.2101 23.7005 12.9702C23.8004 12.7303 23.9696 12.5252 24.1866 12.3809C24.4037 12.2367 24.6589 12.1597 24.92 12.1597C25.2701 12.1597 25.6058 12.298 25.8534 12.5442C26.1009 12.7904 26.24 13.1244 26.24 13.4726Z" fill="#0072BC" stroke="#0072BC" stroke-width="0.4"/>
</svg>
