<svg width="24" height="24" viewBox="0 0 24 24" fill="none" xmlns="http://www.w3.org/2000/svg">
<path d="M11.3952 2.30235C9.64678 2.48516 7.88428 3.19297 6.45928 4.2711C4.44834 5.80391 3.10771 8.11953 2.74209 10.7023C2.65303 11.3258 2.65303 12.6805 2.74209 13.3086C3.29521 17.1852 5.9624 20.2648 9.73115 21.3711C10.6405 21.6383 11.3015 21.7227 12.4218 21.7227C13.4952 21.7227 13.9218 21.6711 14.8171 21.4461C16.3921 21.0477 17.8593 20.2461 19.0312 19.1398C19.4624 18.7367 19.5468 18.6008 19.5468 18.3242C19.5468 17.9211 19.2046 17.5789 18.7968 17.5789C18.5437 17.5789 18.4733 17.6211 17.9999 18.0477C16.453 19.4398 14.7608 20.1477 12.7499 20.2367C9.10303 20.3961 5.74678 18.0898 4.59365 14.6398C4.25146 13.6086 4.1999 13.2477 4.1999 12.0008C4.1999 11.0305 4.20928 10.8383 4.30303 10.407C4.94521 7.44922 6.94678 5.16172 9.73115 4.20078C10.5093 3.9336 11.5405 3.75078 12.2624 3.75078C12.7968 3.75078 13.1343 3.46016 13.1343 3.00078C13.1343 2.70078 12.9983 2.47578 12.7312 2.34922C12.5108 2.24141 12.1265 2.22734 11.3952 2.30235Z" fill="#62D07A" stroke="#62D07A" stroke-width="0.6"/>
<path d="M20.414 5.43892C20.3202 5.46704 18.9468 6.80767 16.1952 9.56392L12.1171 13.642L10.3358 11.8608C9.35616 10.8858 8.49366 10.0608 8.42335 10.0374C7.77178 9.7936 7.15303 10.4217 7.44835 11.0264C7.51397 11.167 8.18897 11.8702 9.61866 13.2999C11.4468 15.1186 11.7187 15.3764 11.8968 15.4233C12.3515 15.5405 12.0515 15.8077 16.8655 11.003C19.2702 8.59829 21.2718 6.57798 21.3093 6.50767C21.4733 6.19829 21.3515 5.74829 21.0468 5.52798C20.9015 5.42017 20.6015 5.38267 20.414 5.43892Z" fill="#62D07A" stroke="#62D07A" stroke-width="0.6"/>
</svg>
