<svg width="35" height="29" viewBox="0 0 35 29" fill="none" xmlns="http://www.w3.org/2000/svg">
<path d="M5.44737 0.5H29.0526C30.4974 0.5 32.1165 0.618775 33.138 1.68773C34.1596 2.75669 34.5 4.68827 34.5 6.2V23.3C34.5 24.8117 34.1596 26.2688 33.138 27.3377C32.1165 28.4067 30.4974 29 29.0526 29H5.44737C4.00264 29 2.15634 28.4067 1.13476 27.3377C0.113178 26.2688 0 24.8117 0 23.3V6.2C0 4.68827 0.113178 2.75669 1.13476 1.68773C2.15634 0.618775 4.00264 0.5 5.44737 0.5ZM5.44737 2.4C4.59534 2.3985 3.14911 2.53943 2.4966 3.11273L17.25 12.888L31.7762 3.11273C31.1235 2.53972 29.9046 2.39883 29.0526 2.4H5.44737ZM17.25 15.1528L1.81579 4.53773C1.6547 4.97411 1.81553 5.7322 1.81579 6.2V23.3C1.81579 24.3078 1.81555 25.2001 2.4966 25.9127C3.17765 26.6254 4.48421 27.1 5.44737 27.1H29.0526C30.0158 27.1 31.0951 26.6254 31.7762 25.9127C32.4573 25.2001 32.6842 24.3078 32.6842 23.3V6.2C32.6842 5.7174 32.6151 4.96143 32.4571 4.53773L17.25 15.1509V15.1528Z" fill="#0072BC"/>
</svg>
