<svg width="18" height="20" viewBox="0 0 18 20" fill="none" xmlns="http://www.w3.org/2000/svg">
<path d="M17.1289 3.75244H8.37891" stroke="#232323" stroke-width="1.2" stroke-linecap="round" stroke-linejoin="round"/>
<path d="M3.37384 3.75244H0.871338" stroke="#232323" stroke-width="1.2" stroke-linecap="round" stroke-linejoin="round"/>
<path d="M5.87628 6.255C7.25837 6.255 8.37878 5.13459 8.37878 3.7525C8.37878 2.37041 7.25837 1.25 5.87628 1.25C4.49419 1.25 3.37378 2.37041 3.37378 3.7525C3.37378 5.13459 4.49419 6.255 5.87628 6.255Z" stroke="#232323" stroke-width="1.2" stroke-linecap="round" stroke-linejoin="round"/>
<path d="M17.1289 16.2476H8.37891" stroke="#232323" stroke-width="1.2" stroke-linecap="round" stroke-linejoin="round"/>
<path d="M3.37384 16.2476H0.871338" stroke="#232323" stroke-width="1.2" stroke-linecap="round" stroke-linejoin="round"/>
<path d="M5.87628 18.75C7.25837 18.75 8.37878 17.6296 8.37878 16.2475C8.37878 14.8654 7.25837 13.745 5.87628 13.745C4.49419 13.745 3.37378 14.8654 3.37378 16.2475C3.37378 17.6296 4.49419 18.75 5.87628 18.75Z" stroke="#232323" stroke-width="1.2" stroke-linecap="round" stroke-linejoin="round"/>
<path d="M0.871338 10H9.62134" stroke="#232323" stroke-width="1.2" stroke-linecap="round" stroke-linejoin="round"/>
<path d="M14.6262 10H17.1287" stroke="#232323" stroke-width="1.2" stroke-linecap="round" stroke-linejoin="round"/>
<path d="M12.1238 12.5026C13.5059 12.5026 14.6263 11.3822 14.6263 10.0001C14.6263 8.61797 13.5059 7.49756 12.1238 7.49756C10.7417 7.49756 9.62134 8.61797 9.62134 10.0001C9.62134 11.3822 10.7417 12.5026 12.1238 12.5026Z" stroke="#232323" stroke-width="1.2" stroke-linecap="round" stroke-linejoin="round"/>
</svg>
