<svg width="26" height="22" viewBox="0 0 26 22" fill="none" xmlns="http://www.w3.org/2000/svg">
<path d="M13.077 21.7227C12.7847 21.7229 12.5037 21.6095 12.2935 21.4065C12.278 21.3918 10.4518 19.6256 3.07494 12.2488L3.02351 12.1974C2.97085 12.1458 2.92071 12.0918 2.87324 12.0355C1.66861 10.7331 1 9.03948 1 7.27703C1 3.41748 4.1402 0.277283 7.99975 0.277283C9.89401 0.277283 11.6932 1.03981 12.9997 2.38263C14.3065 1.03975 16.106 0.277283 18.0003 0.277283C21.8599 0.277283 25.0001 3.41748 25.0001 7.27703C25.0001 9.21108 24.2251 11.0104 22.8174 12.3468C22.7967 12.3709 22.7779 12.39 22.764 12.4035C15.3277 19.8397 13.9173 21.3478 13.9038 21.3621C13.6968 21.5833 13.4064 21.7145 13.1059 21.722L13.077 21.7227ZM8.00012 1.02892C4.55455 1.02892 1.75164 3.83183 1.75164 7.27741C1.75164 8.85012 2.34961 10.3628 3.43521 11.5369C3.47203 11.5794 3.49829 11.6102 3.55393 11.6654L3.6065 11.718C10.9811 19.0926 12.7979 20.8494 12.8141 20.8651C12.8839 20.9329 12.9771 20.9711 13.0744 20.9718L13.0902 20.9715C13.1882 20.9688 13.2859 20.9249 13.355 20.8509C13.3659 20.8389 14.788 19.3187 22.2317 11.8751L22.2858 11.8168C23.552 10.6227 24.2496 9.01058 24.2496 7.27778C24.2496 3.83221 21.4466 1.0293 18.0011 1.0293C16.1842 1.0293 14.4653 1.81474 13.2851 3.18463L13.0004 3.51481L12.7157 3.18425C11.5358 1.81437 9.81734 1.02892 8.00012 1.02892Z" fill="#585866" stroke="#585866" stroke-width="0.3"/>
</svg>
