<svg width="34" height="34" viewBox="0 0 34 34" fill="none" xmlns="http://www.w3.org/2000/svg">
<path d="M18.3705 25.2841H26.7364L23.8216 21.8682V15.5375C23.8219 13.984 23.2903 12.4772 22.3154 11.2678C21.3404 10.0584 19.9807 9.21917 18.4625 8.88978V8.23524C18.4625 7.84736 18.3085 7.47536 18.0342 7.20109C17.7599 6.92682 17.3879 6.77274 17 6.77274C16.6122 6.77274 16.2402 6.92682 15.9659 7.20109C15.6916 7.47536 15.5375 7.84736 15.5375 8.23524V8.88978C14.0194 9.21917 12.6597 10.0584 11.6847 11.2678C10.7097 12.4772 10.1782 13.984 10.1784 15.5375V21.8682L7.26367 25.2841H18.3705Z" stroke="#585866" stroke-width="0.872727" stroke-linecap="round" stroke-linejoin="round"/>
<path d="M18.4626 25.7648C18.4626 26.1527 18.3085 26.5247 18.0343 26.7989C17.76 27.0732 17.388 27.2273 17.0001 27.2273C16.6122 27.2273 16.2403 27.0732 15.966 26.7989C15.6917 26.5247 15.5376 26.1527 15.5376 25.7648C15.5365 25.6001 15.5678 25.4368 15.6297 25.2841H18.3706C18.4324 25.4368 18.4637 25.6001 18.4626 25.7648Z" fill="#585866"/>
</svg>
