<svg width="24" height="24" viewBox="0 0 24 24" fill="none" xmlns="http://www.w3.org/2000/svg">
<path d="M19.245 19.441C18.2453 20.5231 17.0328 21.3868 15.6834 21.9779C14.334 22.5691 12.8769 22.8748 11.4037 22.876C8.9025 22.876 6.5325 22.0135 4.6275 20.4385L5.57625 20.446H5.58C5.67647 20.4465 5.76919 20.4086 5.83776 20.3407C5.90633 20.2729 5.94513 20.1806 5.94562 20.0841C5.94612 19.9876 5.90828 19.8949 5.84041 19.8263C5.77255 19.7578 5.68022 19.719 5.58375 19.7185L3.705 19.7072C3.6 19.7072 3.50625 19.7485 3.43875 19.8197C3.3675 19.8947 3.33375 19.9922 3.34125 20.0935L3.465 21.9685C3.47625 22.1597 3.6375 22.3097 3.82875 22.3097H3.855C4.05375 22.2947 4.2075 22.1222 4.1925 21.9235L4.125 20.9672C6.165 22.6735 8.715 23.6035 11.4037 23.6035C14.58 23.6035 17.6362 22.2647 19.7812 19.9322C19.8136 19.8971 19.8387 19.8559 19.8551 19.811C19.8715 19.7661 19.8789 19.7184 19.8768 19.6707C19.8747 19.6229 19.8632 19.576 19.843 19.5328C19.8227 19.4895 19.7941 19.4506 19.7587 19.4185C19.6874 19.3539 19.5934 19.3201 19.4973 19.3243C19.4011 19.3285 19.3105 19.3704 19.245 19.441ZM23.94 13.6922C23.9135 13.6522 23.8794 13.6178 23.8396 13.591C23.7997 13.5642 23.755 13.5456 23.708 13.5362C23.6609 13.5268 23.6124 13.5268 23.5654 13.5362C23.5183 13.5456 23.4736 13.5642 23.4338 13.591L22.6388 14.1235C22.7475 13.4897 22.8075 12.8447 22.8075 12.1997C22.8075 11.0485 22.635 9.90845 22.2975 8.80595C21.7951 7.18914 20.9351 5.70621 19.7812 4.46721C18.2188 2.76419 16.1718 1.58104 13.9163 1.07721C13.8218 1.05684 13.7231 1.07456 13.6417 1.12652C13.5602 1.17848 13.5026 1.26048 13.4813 1.35471C13.4708 1.4015 13.4696 1.4499 13.4779 1.49713C13.4862 1.54437 13.5037 1.5895 13.5295 1.62992C13.5553 1.67035 13.5888 1.70528 13.6282 1.7327C13.6675 1.76012 13.7119 1.7795 13.7587 1.78971C15.87 2.26221 17.7675 3.35721 19.2488 4.9622C20.3363 6.13221 21.1275 7.49721 21.6038 9.02345C21.9225 10.051 22.0837 11.1197 22.0837 12.1997C22.0837 12.7847 22.0312 13.3697 21.9338 13.9472L21.465 13.126C21.4417 13.0842 21.4103 13.0476 21.3727 13.0181C21.3351 12.9887 21.2919 12.9671 21.2459 12.9545C21.1998 12.9419 21.1516 12.9387 21.1043 12.9449C21.0569 12.9512 21.0112 12.9668 20.97 12.991C20.7937 13.0885 20.7338 13.3135 20.835 13.486L21.7612 15.1172C21.81 15.2035 21.8962 15.2672 21.9938 15.2897C22.02 15.2972 22.05 15.301 22.0763 15.301C22.1475 15.301 22.2188 15.2785 22.2787 15.241L23.8387 14.1947C24.0037 14.086 24.0487 13.861 23.94 13.6922ZM0.7275 12.1997C0.7275 11.1197 0.88875 10.051 1.2075 9.02345C1.67625 7.52346 2.49 6.12096 3.56625 4.95846C4.7025 3.72846 6.105 2.79096 7.65375 2.20971L7.17375 3.02346C7.12485 3.10658 7.11081 3.20567 7.1347 3.29911C7.15859 3.39255 7.21846 3.47274 7.30125 3.52221C7.38506 3.56979 7.48416 3.5827 7.57736 3.55818C7.67056 3.53365 7.75047 3.47363 7.8 3.39096L8.75625 1.77471C8.80875 1.68846 8.82 1.58346 8.79 1.48596C8.76 1.38846 8.6925 1.30971 8.6025 1.26471L6.91875 0.432205C6.87591 0.41103 6.82931 0.3985 6.78162 0.395332C6.73394 0.392164 6.6861 0.398419 6.64083 0.413741C6.59556 0.429062 6.55375 0.45315 6.51779 0.484629C6.48183 0.516108 6.45243 0.554361 6.43125 0.597205C6.41007 0.640049 6.39754 0.686644 6.39438 0.73433C6.39121 0.782016 6.39746 0.829859 6.41279 0.875128C6.42811 0.920396 6.45219 0.962204 6.48367 0.998163C6.51515 1.03412 6.55341 1.06353 6.59625 1.08471L7.45125 1.50846C5.76448 2.12981 4.24922 3.14255 3.03 4.46346C1.8825 5.70096 1.0125 7.20471 0.51 8.80595C0.1725 9.90845 0 11.0485 0 12.1997C0 13.3472 0.1725 14.4872 0.51 15.5897C0.55875 15.7472 0.70125 15.8485 0.85875 15.8485C0.8925 15.8485 0.93 15.8447 0.9675 15.8335C1.15875 15.7735 1.2675 15.571 1.2075 15.3797C0.88875 14.3447 0.7275 13.276 0.7275 12.1997ZM7.54875 6.51846C7.47932 6.45137 7.38655 6.41387 7.29 6.41387C7.19345 6.41387 7.10068 6.45137 7.03125 6.51846L5.715 7.83471C5.5725 7.97721 5.5725 8.20596 5.715 8.34846L6.28125 8.91471C5.89037 9.52429 5.61101 10.1985 5.45625 10.906H4.65375C4.45125 10.906 4.29 11.0672 4.29 11.2697V13.1297C4.29 13.3322 4.45125 13.4935 4.65375 13.4935H5.45625C5.61 14.1947 5.89125 14.8735 6.28125 15.4847L5.715 16.051C5.5725 16.1935 5.5725 16.4222 5.715 16.5647L7.03125 17.881C7.10068 17.948 7.19345 17.9855 7.29 17.9855C7.38655 17.9855 7.47932 17.948 7.54875 17.881L8.11875 17.311C8.72625 17.701 9.40125 17.9822 10.11 18.1397V18.9422C10.11 19.1447 10.2712 19.306 10.4738 19.306H12.3375C12.54 19.306 12.7013 19.1447 12.7013 18.9422V18.1397C13.4062 17.986 14.085 17.7047 14.6925 17.3147L15.2587 17.881C15.4012 18.0235 15.63 18.0235 15.7725 17.881L17.0887 16.5647C17.2313 16.4222 17.2313 16.1935 17.0887 16.051L16.5187 15.481C16.9125 14.8735 17.1937 14.1947 17.3475 13.4897H18.15C18.3525 13.4897 18.5138 13.3285 18.5138 13.126V11.266C18.5138 11.0635 18.3525 10.9022 18.15 10.9022H17.3475C17.1937 10.1972 16.9125 9.51846 16.5187 8.91096L17.0887 8.34096C17.2313 8.19846 17.2313 7.96971 17.0887 7.82721L15.7725 6.51096C15.7031 6.44387 15.6103 6.40637 15.5138 6.40637C15.4172 6.40637 15.3244 6.44387 15.255 6.51096L14.6887 7.07721C14.0792 6.68632 13.4049 6.40697 12.6975 6.25221V5.45346C12.6975 5.25096 12.5363 5.08971 12.3337 5.08971H10.47C10.2675 5.08971 10.1063 5.25096 10.1063 5.45346V6.25221C9.40125 6.40596 8.7225 6.6872 8.115 7.08096L7.54875 6.51846ZM10.53 6.91596C10.7063 6.88596 10.8337 6.73596 10.8337 6.55595V5.82096H11.97V6.55595C11.97 6.73221 12.0975 6.88596 12.2738 6.91596C13.08 7.04721 13.8562 7.36971 14.5162 7.84596C14.6625 7.95096 14.8612 7.93221 14.985 7.80846L15.5062 7.28721L16.3088 8.08971L15.7838 8.61471C15.7223 8.67536 15.6848 8.75607 15.6779 8.84211C15.671 8.92815 15.6953 9.0138 15.7463 9.08346C16.2262 9.74345 16.5487 10.5197 16.68 11.326C16.71 11.5022 16.86 11.6297 17.04 11.6297H17.7787V12.7622H17.04C16.86 12.7622 16.71 12.8935 16.68 13.066C16.5487 13.8722 16.2262 14.6485 15.7463 15.3085C15.6413 15.4547 15.6562 15.6535 15.7838 15.7772L16.3088 16.3022L15.5062 17.1047L14.985 16.5835C14.9243 16.522 14.8436 16.4845 14.7576 16.4776C14.6716 16.4707 14.5859 16.495 14.5162 16.546C13.8498 17.0236 13.0826 17.3418 12.2738 17.476C12.0975 17.506 11.97 17.656 11.97 17.836V18.5747H10.8337V17.836C10.8337 17.6597 10.7063 17.506 10.53 17.476C9.72375 17.3447 8.9475 17.0222 8.2875 16.5422C8.21791 16.4911 8.13222 16.4667 8.04614 16.4736C7.96005 16.4805 7.87933 16.5182 7.81875 16.5797L7.29375 17.1047L6.49125 16.3022L7.0125 15.781C7.07391 15.7203 7.11148 15.6396 7.11836 15.5535C7.12524 15.4675 7.10098 15.3819 7.05 15.3122C6.57051 14.6454 6.25217 13.8765 6.12 13.066C6.10591 12.9808 6.06193 12.9034 5.99596 12.8478C5.92998 12.7921 5.84632 12.7618 5.76 12.7622H5.025V11.6297H5.76375C5.94 11.6297 6.09375 11.5022 6.12375 11.326C6.25875 10.5085 6.57 9.75471 7.05375 9.07971C7.15875 8.93346 7.14 8.73845 7.01625 8.61096L6.495 8.08971L7.2975 7.28721L7.8225 7.81221C7.95 7.93971 8.14875 7.95471 8.29125 7.84971C8.95586 7.37061 9.72193 7.05109 10.53 6.91596Z" fill="#0072BC"/>
<path d="M11.4036 16.088C13.5486 16.088 15.2924 14.3443 15.2924 12.1993C15.2924 10.0543 13.5486 8.31055 11.4036 8.31055C9.25864 8.31055 7.51489 10.0543 7.51489 12.1993C7.51489 14.3443 9.25864 16.088 11.4036 16.088ZM11.4036 9.0418C13.1474 9.0418 14.5649 10.4593 14.5649 12.203C14.5649 13.9468 13.1474 15.3643 11.4036 15.3643C9.65989 15.3643 8.24239 13.9468 8.24239 12.203C8.24239 10.4593 9.65989 9.0418 11.4036 9.0418Z" fill="#0072BC"/>
</svg>
