<svg width="24" height="24" viewBox="0 0 24 24" fill="none" xmlns="http://www.w3.org/2000/svg">
<g clip-path="url(#clip0_577_67149)">
<path d="M10.6118 7.54297C10.1585 7.54297 9.79102 7.91047 9.79102 8.36375V12.83C9.79102 14.1036 10.827 15.1395 12.1005 15.1395H15.078C15.5313 15.1395 15.8988 14.772 15.8988 14.3188C15.8988 13.8655 15.5313 13.498 15.078 13.498H12.1005C11.7321 13.498 11.4326 13.1984 11.4326 12.83V8.36375C11.4326 7.91 11.0651 7.54297 10.6118 7.54297Z" fill="black"/>
<path d="M20.2502 4.08355C18.0466 1.88042 15.117 0.66683 12.0007 0.66683C10.3001 0.66683 8.63602 1.03433 7.11211 1.73792L7.35398 1.11964C7.51898 0.697298 7.31039 0.221517 6.88852 0.0565171C6.46617 -0.108483 5.99039 0.100111 5.82539 0.521986L4.81336 3.11089C4.75751 3.25433 4.73164 3.4077 4.73737 3.56153C4.74309 3.71535 4.78028 3.86637 4.84664 4.00527C4.91343 4.14393 5.00789 4.26745 5.12422 4.36822C5.24055 4.46899 5.37628 4.54488 5.52305 4.5912L8.17523 5.42277C8.2568 5.44855 8.33977 5.46074 8.42086 5.46074C8.77008 5.46074 9.09352 5.2362 9.20367 4.88558C9.33914 4.45292 9.09867 3.99261 8.66602 3.85714L7.3568 3.44652C8.7832 2.6998 10.3718 2.30886 12.0002 2.30886C14.6782 2.30886 17.1954 3.35183 19.0891 5.24511C20.9824 7.13886 22.0254 9.65605 22.0254 12.334C22.0254 15.012 20.9824 17.5296 19.0891 19.4229C17.1954 21.3162 14.6782 22.3592 12.0002 22.3592C9.32227 22.3592 6.80461 21.3162 4.91133 19.4229C3.01758 17.5292 1.97508 15.012 1.97508 12.334C1.97508 10.7412 2.33742 9.2187 3.0518 7.8087C3.25664 7.40464 3.09492 6.91058 2.69086 6.70574C2.2868 6.50089 1.79273 6.66261 1.58789 7.06667C0.755859 8.70824 0.333984 10.4801 0.333984 12.3331C0.333984 15.4493 1.54758 18.379 3.75117 20.5826C5.95477 22.7862 8.88445 23.9998 12.0007 23.9998C15.117 23.9998 18.0466 22.7862 20.2502 20.5826C22.4538 18.379 23.6674 15.4493 23.6674 12.3331C23.6674 9.21683 22.4538 6.28714 20.2502 4.08355Z" fill="black"/>
</g>
<defs>
<clipPath id="clip0_577_67149">
<rect width="24" height="24" fill="white"/>
</clipPath>
</defs>
</svg>
