<svg width="18" height="24" viewBox="0 0 18 24" fill="none" xmlns="http://www.w3.org/2000/svg">
<path d="M9.00048 0C4.20775 0 0.308594 3.89916 0.308594 8.69184C0.308594 14.6397 8.08698 23.3715 8.41816 23.7404C8.72922 24.0868 9.27231 24.0862 9.58281 23.7404C9.91398 23.3715 17.6924 14.6397 17.6924 8.69184C17.6923 3.89916 13.7932 0 9.00048 0ZM9.00048 22.0185C6.38266 18.909 1.87384 12.774 1.87384 8.69194C1.87384 4.76222 5.07081 1.56525 9.00048 1.56525C12.9302 1.56525 16.1271 4.76222 16.1271 8.69189C16.1271 12.7741 11.619 18.908 9.00048 22.0185Z" fill="#28211B"/>
<path d="M9.00002 4.31836C6.58867 4.31836 4.62695 6.28012 4.62695 8.69147C4.62695 11.1028 6.58872 13.0646 9.00002 13.0646C11.4113 13.0646 13.373 11.1028 13.373 8.69147C13.373 6.28012 11.4113 4.31836 9.00002 4.31836ZM9.00002 11.4993C7.45173 11.4993 6.1922 10.2397 6.1922 8.69147C6.1922 7.14319 7.45178 5.88361 9.00002 5.88361C10.5483 5.88361 11.8078 7.14319 11.8078 8.69147C11.8078 10.2397 10.5483 11.4993 9.00002 11.4993Z" fill="#28211B"/>
</svg>
