<svg width="18" height="18" viewBox="0 0 18 18" fill="none" xmlns="http://www.w3.org/2000/svg">
<path d="M8.9834 17.6051C7.85147 17.6072 6.73028 17.3856 5.68427 16.953C4.63826 16.5205 3.68805 15.8854 2.88824 15.0844C-0.473164 11.7231 -0.473164 6.25409 2.88824 2.89273C3.68686 2.08961 4.63684 1.45288 5.6832 1.01937C6.72956 0.585867 7.8515 0.364206 8.9841 0.367218C11.2868 0.367218 13.4517 1.26374 15.0793 2.89273C16.7075 4.52101 17.6048 6.68581 17.6048 8.98858C17.6048 11.2914 16.7082 13.4562 15.0793 15.0844C14.2793 15.8854 13.3289 16.5204 12.2828 16.953C11.2367 17.3856 10.1154 17.6072 8.9834 17.6051ZM8.9841 1.74655C8.03267 1.74384 7.09017 1.92994 6.21117 2.29408C5.33218 2.65821 4.53418 3.19314 3.8634 3.86788C2.49582 5.2355 1.7427 7.05409 1.7427 8.98858C1.7427 10.9231 2.49582 12.741 3.8634 14.1093C6.68684 16.9327 11.2813 16.9334 14.1041 14.1093C15.4717 12.7417 16.2255 10.9231 16.2255 8.98858C16.2255 7.05409 15.4723 5.23616 14.1041 3.86788C13.4333 3.19337 12.6354 2.65858 11.7565 2.29445C10.8777 1.93032 9.93539 1.74412 8.9841 1.74655Z" fill="black"/>
<path d="M6.05765 12.604C5.92113 12.6043 5.7876 12.564 5.674 12.4883C5.56041 12.4126 5.47186 12.3048 5.41961 12.1787C5.36738 12.0525 5.35379 11.9137 5.38058 11.7799C5.40737 11.646 5.47333 11.5231 5.57007 11.4268L11.4218 5.57504C11.4858 5.511 11.5618 5.4602 11.6455 5.42554C11.7291 5.39089 11.8188 5.37305 11.9094 5.37305C11.9999 5.37305 12.0896 5.39089 12.1733 5.42554C12.2569 5.4602 12.3329 5.511 12.3969 5.57504C12.461 5.63907 12.5118 5.71508 12.5464 5.79874C12.5811 5.8824 12.5989 5.97207 12.5989 6.06262C12.5989 6.15318 12.5811 6.24285 12.5464 6.3265C12.5118 6.41016 12.461 6.48618 12.3969 6.5502L6.54523 12.402C6.48136 12.4662 6.40538 12.5172 6.32169 12.5518C6.23799 12.5865 6.14825 12.6042 6.05765 12.604Z" fill="black"/>
<path d="M11.9101 12.6037C11.8196 12.6038 11.7299 12.586 11.6462 12.5513C11.5625 12.5167 11.4865 12.4658 11.4226 12.4016L5.5708 6.54988C5.4442 6.42 5.37386 6.24548 5.37501 6.06411C5.37617 5.88274 5.44874 5.70913 5.57699 5.58088C5.70524 5.45263 5.87886 5.38007 6.06023 5.37892C6.2416 5.37777 6.41612 5.44812 6.546 5.57473L12.3977 11.4264C12.4945 11.5227 12.5605 11.6456 12.5873 11.7795C12.6141 11.9134 12.6005 12.0522 12.5482 12.1784C12.4959 12.3045 12.4074 12.4123 12.2938 12.488C12.1802 12.5637 12.0467 12.604 11.9101 12.6037Z" fill="black"/>
</svg>
