<svg width="20" height="20" viewBox="0 0 20 20" fill="none" xmlns="http://www.w3.org/2000/svg">
<path d="M10.0001 19.1667C9.83344 19.1667 9.66678 19.0833 9.50011 19L7.50011 17.5833H5.08344C4.75011 17.5833 4.41678 17.3333 4.25011 17L3.50011 14.6667L1.50011 13.25C1.16678 13 1.08344 12.6667 1.16678 12.3333L2.00011 10L1.25011 7.66667C1.16678 7.33333 1.25011 6.91667 1.58344 6.75L3.58344 5.33333L4.33344 3C4.41678 2.66667 4.75011 2.41667 5.16678 2.41667H7.58344L9.58344 1C9.91678 0.75 10.2501 0.75 10.5834 1L12.5001 2.41667H14.9168C15.2501 2.41667 15.5834 2.66667 15.7501 3L16.5001 5.33333L18.5001 6.75C18.8334 7 18.9168 7.33333 18.8334 7.66667L18.0001 10L18.7501 12.3333C18.8334 12.6667 18.7501 13.0833 18.4168 13.25L16.4168 14.6667L15.6668 17C15.5834 17.3333 15.2501 17.5833 14.8334 17.5833H12.4168L10.4168 19C10.3334 19.0833 10.1668 19.1667 10.0001 19.1667ZM7.83344 15.9167C8.00011 15.9167 8.16678 16 8.33344 16.0833L10.0001 17.3333L11.6668 16.0833C11.8334 16 12.0001 15.9167 12.1668 15.9167H14.2501L14.9168 13.9167C15.0001 13.75 15.0834 13.5833 15.2501 13.5L16.9168 12.25L16.2501 10.25C16.1668 10.0833 16.1668 9.91667 16.2501 9.75L16.9168 7.75L15.2501 6.5C15.0834 6.41667 15.0001 6.25 14.9168 6.08333L14.2501 4.08333H12.1668C12.0001 4.08333 11.8334 4 11.6668 3.91667L10.0001 2.66667L8.33344 3.91667C8.16678 4 8.00011 4.08333 7.83344 4.08333H5.75011L5.08344 6.08333C5.00011 6.25 4.91678 6.41667 4.75011 6.5L3.08344 7.75L3.75011 9.75C3.83344 9.91667 3.83344 10.0833 3.75011 10.25L3.08344 12.25L4.75011 13.5C4.91678 13.5833 5.00011 13.75 5.08344 13.9167L5.75011 15.9167H7.83344Z" fill="black"/>
<path d="M9.16667 12.9173C8.91667 12.9173 8.75 12.834 8.58333 12.6673L6.5 10.584C6.16667 10.2507 6.16667 9.75065 6.5 9.41732C6.83333 9.08398 7.33333 9.08398 7.66667 9.41732L9.16667 10.9173L12.75 7.33398C13.0833 7.00065 13.5833 7.00065 13.9167 7.33398C14.25 7.66732 14.25 8.16732 13.9167 8.50065L9.75 12.6673C9.58333 12.834 9.41667 12.9173 9.16667 12.9173Z" fill="black"/>
</svg>
