<svg width="24" height="24" viewBox="0 0 24 24" fill="none" xmlns="http://www.w3.org/2000/svg">
<path d="M17.0557 12.577C14.6477 12.6346 14.6437 16.1642 17.0509 16.2282C19.4589 16.1698 19.4621 12.6418 17.0557 12.577ZM16.4277 14.405C16.4285 13.5858 17.6741 13.5826 17.6789 14.4018C17.6757 15.2186 16.4341 15.2218 16.4277 14.405ZM12.2549 11.4266C14.6621 11.3658 14.6621 7.83619 12.2549 7.77539C9.84687 7.83699 9.84847 11.3642 12.2549 11.4266ZM12.2549 8.97619C13.0733 8.97939 13.0733 10.2242 12.2549 10.2274C11.4365 10.2234 11.4373 8.98099 12.2549 8.97619ZM18.5509 8.11219C18.4381 7.99923 18.2852 7.93561 18.1256 7.93531C17.966 7.93501 17.8128 7.99805 17.6997 8.11059L10.7477 15.0298C10.6902 15.085 10.6444 15.1511 10.6128 15.2242C10.5812 15.2974 10.5645 15.376 10.5636 15.4557C10.5627 15.5354 10.5777 15.6144 10.6077 15.6882C10.6377 15.762 10.6821 15.8291 10.7383 15.8855C10.7945 15.942 10.8614 15.9867 10.935 16.0171C11.0087 16.0474 11.0876 16.0628 11.1673 16.0623C11.247 16.0618 11.3257 16.0454 11.399 16.0142C11.4723 15.9829 11.5386 15.9374 11.5941 15.8802L18.5469 8.96179C18.603 8.90632 18.6477 8.84032 18.6782 8.76757C18.7088 8.69481 18.7248 8.61674 18.7251 8.53782C18.7255 8.4589 18.7103 8.38068 18.6804 8.30764C18.6505 8.23461 18.6065 8.16819 18.5509 8.11219ZM7.08047 8.43139C6.92134 8.43139 6.76873 8.4946 6.6562 8.60713C6.54368 8.71965 6.48047 8.87226 6.48047 9.03139V10.5698C6.48047 10.7289 6.54368 10.8815 6.6562 10.9941C6.76873 11.1066 6.92134 11.1698 7.08047 11.1698C7.2396 11.1698 7.39221 11.1066 7.50473 10.9941C7.61725 10.8815 7.68047 10.7289 7.68047 10.5698V9.03139C7.68047 8.87226 7.61725 8.71965 7.50473 8.60713C7.39221 8.4946 7.2396 8.43139 7.08047 8.43139ZM7.08047 12.8346C6.92134 12.8346 6.76873 12.8978 6.6562 13.0103C6.54368 13.1228 6.48047 13.2755 6.48047 13.4346V14.9722C6.48047 15.1313 6.54368 15.2839 6.6562 15.3965C6.76873 15.509 6.92134 15.5722 7.08047 15.5722C7.2396 15.5722 7.39221 15.509 7.50473 15.3965C7.61725 15.2839 7.68047 15.1313 7.68047 14.9722V13.4346C7.68047 13.2755 7.61725 13.1228 7.50473 13.0103C7.39221 12.8978 7.2396 12.8346 7.08047 12.8346Z" fill="black"/>
<path d="M22.7024 10.0185C23.035 9.84018 23.3127 9.57472 23.5059 9.25059C23.6991 8.92646 23.8005 8.55588 23.7992 8.17854V6.12094C23.7986 5.56588 23.5778 5.03373 23.1853 4.64125C22.7928 4.24876 22.2607 4.02798 21.7056 4.02734H2.29284C1.73777 4.02798 1.20563 4.24876 0.813139 4.64125C0.420651 5.03373 0.199872 5.56588 0.199237 6.12094V8.17694C0.197959 8.55428 0.299355 8.92486 0.492562 9.24899C0.68577 9.57312 0.963511 9.83858 1.29604 10.0169C1.65493 10.2091 1.95494 10.4951 2.16411 10.8443C2.37327 11.1936 2.48374 11.593 2.48374 12.0001C2.48374 12.4072 2.37327 12.8067 2.16411 13.156C1.95494 13.5052 1.65493 13.7912 1.29604 13.9833C0.963271 14.1618 0.685373 14.4275 0.49215 14.752C0.298927 15.0764 0.197669 15.4473 0.199237 15.8249V17.8809C0.199872 18.436 0.420651 18.9682 0.813139 19.3606C1.20563 19.7531 1.73777 19.9739 2.29284 19.9745H21.7056C22.2607 19.9739 22.7928 19.7531 23.1853 19.3606C23.5778 18.9682 23.7986 18.436 23.7992 17.8809V15.8249C23.8005 15.4476 23.6991 15.077 23.5059 14.7529C23.3127 14.4288 23.035 14.1633 22.7024 13.9849C21.1312 13.1985 21.1432 10.8049 22.7024 10.0185ZM20.7264 13.6281C21.0473 14.2275 21.5383 14.7185 22.1376 15.0393C22.4248 15.1945 22.6024 15.4953 22.5992 15.8217V17.8777C22.599 18.1147 22.5048 18.3418 22.3373 18.5094C22.1697 18.6769 21.9426 18.7711 21.7056 18.7713H7.67924C7.64644 18.2513 7.88564 17.2561 7.07924 17.2361C6.27204 17.2553 6.51204 18.2553 6.47924 18.7745H2.29284C2.0559 18.7743 1.82874 18.6801 1.6612 18.5126C1.49366 18.345 1.39945 18.1179 1.39924 17.8809V15.8249C1.39766 15.6649 1.43981 15.5074 1.52116 15.3695C1.60251 15.2316 1.71995 15.1186 1.86084 15.0425C2.41085 14.7479 2.87061 14.3095 3.19114 13.7742C3.51167 13.2388 3.68095 12.6265 3.68095 12.0025C3.68095 11.3786 3.51167 10.7663 3.19114 10.2309C2.87061 9.69558 2.41085 9.25721 1.86084 8.96254C1.71995 8.88651 1.60251 8.77346 1.52116 8.63558C1.43981 8.4977 1.39766 8.34022 1.39924 8.18014V6.12094C1.40004 5.62734 1.79924 5.22814 2.29284 5.22734H6.47924C6.51204 5.74814 6.27124 6.74574 7.07924 6.76574C7.88644 6.74654 7.64644 5.74654 7.67924 5.22734H21.7056C22.1992 5.22814 22.5984 5.62734 22.5992 6.12094V8.17694C22.6024 8.50334 22.4248 8.80414 22.1376 8.95934C21.7383 9.17316 21.3851 9.46355 21.098 9.81393C20.811 10.1643 20.5958 10.5678 20.4648 11.0014C20.3337 11.4349 20.2894 11.8901 20.3343 12.3408C20.3792 12.7915 20.5124 13.229 20.7264 13.6281Z" fill="black"/>
</svg>
