<svg width="24" height="20" viewBox="0 0 24 20" fill="none" xmlns="http://www.w3.org/2000/svg">
<path d="M21.5154 0.881954H6.11048C6.02262 0.84664 5.92451 0.84664 5.83665 0.881954H2.48458C1.11304 0.883382 0.00142731 1.99499 0 3.36654V16.6617C0.00142731 18.0332 1.11304 19.1448 2.48458 19.1463H21.5154C22.887 19.1448 23.9986 18.0332 24 16.6617V3.36654C23.9986 1.99499 22.887 0.883382 21.5154 0.881954ZM23.2599 3.36654V12.7498H8.94449C9.22408 12.5829 9.45573 12.3465 9.61693 12.0636C9.77813 11.7807 9.86339 11.4609 9.86442 11.1353C9.86442 10.0932 9.00518 9.24532 7.94918 9.24532C7.63133 9.24497 7.31834 9.32334 7.03817 9.47346C6.75801 9.62357 6.51938 9.84074 6.34361 10.1056V1.62204H21.5154C22.4783 1.6231 23.2589 2.40363 23.2599 3.36654ZM2.8228 11.1353C2.83068 10.4936 3.35641 9.97922 3.99796 9.98541C4.20719 9.98541 4.41267 10.0401 4.59415 10.1444C4.73747 10.2263 4.86151 10.338 4.95785 10.472C5.0542 10.606 5.1206 10.7591 5.15255 10.921L5.47507 12.5834L3.77683 12.2647C3.22879 12.1667 2.82798 11.6923 2.8228 11.1353ZM6.47228 12.5834L6.79459 10.921C6.91766 10.3358 7.45951 9.93566 8.05507 9.99059C8.65041 10.0453 9.11022 10.5376 9.12434 11.1354C9.11915 11.6921 8.71856 12.1664 8.17052 12.2647L6.47228 12.5834ZM2.48458 1.62204H5.60352V10.1058C5.44016 9.8578 5.22108 9.65147 4.96377 9.50324C4.6701 9.3341 4.33712 9.24515 3.99822 9.24532C2.94201 9.24532 2.08298 10.0932 2.08298 11.1354C2.08399 11.461 2.16923 11.7808 2.33042 12.0637C2.49161 12.3466 2.72327 12.5829 3.00285 12.7498H0.740088V3.36654C0.741145 2.40363 1.52167 1.6231 2.48458 1.62204ZM0.740088 16.6617V13.4899H5.08028L3.33304 15.237C3.18846 15.3816 3.18846 15.6158 3.33304 15.7604C3.47762 15.9049 3.71175 15.9049 3.85628 15.7604L5.60352 14.0131V18.4062H2.48458C1.52167 18.4051 0.741145 17.6246 0.740088 16.6617ZM21.5154 18.4062H6.34361V14.0131L8.69868 16.3682C8.84326 16.5128 9.07745 16.5128 9.22203 16.3682C9.36661 16.2237 9.36656 15.9895 9.22203 15.845L6.8668 13.4899H23.2599V16.6617C23.2589 17.6246 22.4783 18.4051 21.5154 18.4062Z" fill="black"/>
</svg>
