<svg width="24" height="27" viewBox="0 0 24 27" fill="none" xmlns="http://www.w3.org/2000/svg">
<g clip-path="url(#clip0_577_67231)">
<path d="M15.6729 0.270585C14.0116 0.074008 12.3395 -0.0163978 10.6667 -8.21222e-05C4.68533 -8.21222e-05 0 2.34258 0 5.33325V12.4444C0 14.8368 3.01467 16.8519 7.45555 17.531C6.15416 18.4694 4.84208 19.3929 3.51956 20.3013C3.40522 20.3797 3.31089 20.484 3.24417 20.6055C3.17744 20.7271 3.14018 20.8626 3.13538 21.0012C3.13059 21.1399 3.15838 21.2776 3.21654 21.4035C3.27469 21.5294 3.36158 21.6399 3.47022 21.7261L9.40089 26.4715C9.55388 26.5935 9.74267 26.662 9.93832 26.6664C10.134 26.6708 10.3257 26.6109 10.484 26.4959C11.4744 25.7729 12.4436 25.0212 13.3902 24.2417C14.3015 23.4922 15.1908 22.7163 16.0569 21.915C16.0613 21.9101 16.0676 21.9088 16.0716 21.9039L16.0747 21.8986C16.9045 21.1322 17.7114 20.3414 18.4942 19.527C18.5036 19.5181 18.516 19.5146 18.5244 19.5044C18.5329 19.4941 18.5316 19.4897 18.5364 19.483C19.0968 18.9017 19.6435 18.3073 20.176 17.7004C21.6569 16.0017 23.4996 13.8884 23.8507 11.2853C24.2089 8.63014 23.7142 4.69547 21.1422 2.34436C19.5356 0.870584 17.4764 0.501251 15.6729 0.270585ZM10.6667 0.888807C15.9667 0.888807 20.4444 2.92436 20.4444 5.33325C20.4444 8.2137 14.7111 9.7777 10.6667 9.7777C5.36667 9.7777 0.888889 7.74214 0.888889 5.33325C0.888889 2.92436 5.36667 0.888807 10.6667 0.888807ZM0.888889 12.4444V7.49947C2.52 9.38081 6.23689 10.6666 10.6667 10.6666C13.0033 10.7044 15.3255 10.2933 17.5071 9.45547C14.7795 11.9714 11.9015 14.3192 8.88889 16.4857V14.2221C8.88889 14.1043 8.84206 13.9912 8.75871 13.9079C8.67536 13.8245 8.56232 13.7777 8.44444 13.7777C8.32657 13.7777 8.21352 13.8245 8.13017 13.9079C8.04682 13.9912 8 14.1043 8 14.2221V16.711C7.2503 16.6131 6.50793 16.4655 5.77778 16.2693V13.7777C5.77778 13.6598 5.73095 13.5468 5.6476 13.4634C5.56425 13.3801 5.45121 13.3333 5.33333 13.3333C5.21546 13.3333 5.10241 13.3801 5.01906 13.4634C4.93571 13.5468 4.88889 13.6598 4.88889 13.7777V15.9999C4.27413 15.794 3.67914 15.5333 3.11111 15.2208V12.4444C3.11111 12.3265 3.06429 12.2134 2.98094 12.1301C2.89759 12.0467 2.78454 11.9999 2.66667 11.9999C2.54879 11.9999 2.43575 12.0467 2.3524 12.1301C2.26905 12.2134 2.22222 12.3265 2.22222 12.4444V14.6359C1.37778 13.9773 0.888889 13.2244 0.888889 12.4444ZM9.95555 25.7777L4.02267 21.0341C4.74419 20.5383 5.46286 20.0382 6.17867 19.5341C6.56956 19.7847 7.0383 19.8844 7.49733 19.8146C7.63947 19.7842 7.7864 19.7839 7.92866 19.8138C8.07091 19.8436 8.20534 19.9029 8.32329 19.9879C8.44123 20.0728 8.54007 20.1815 8.61345 20.307C8.68683 20.4325 8.73312 20.5719 8.74933 20.7164C8.83529 21.2124 9.11182 21.6551 9.51983 21.9499C9.92785 22.2447 10.435 22.3683 10.9329 22.2941C11.0752 22.265 11.2221 22.2658 11.3641 22.2964C11.5062 22.327 11.6403 22.3868 11.7581 22.4719C11.8758 22.5571 11.9746 22.6657 12.0481 22.7911C12.1217 22.9164 12.1684 23.0556 12.1853 23.1999C12.2351 23.4355 12.3196 23.6621 12.436 23.8733C11.625 24.5284 10.7979 25.1634 9.95555 25.7777ZM22.9738 11.1644C22.8709 11.8671 22.6589 12.5494 22.3453 13.1866L21.7133 12.2977C21.645 12.2016 21.5412 12.1367 21.425 12.1171C21.3087 12.0975 21.1894 12.1249 21.0933 12.1933C20.9973 12.2616 20.9323 12.3653 20.9127 12.4816C20.8931 12.5979 20.9205 12.7172 20.9889 12.8133L21.8738 14.0577C21.4455 14.7468 20.9678 15.4039 20.4444 16.0239L19.2076 14.6097C19.1693 14.5654 19.1226 14.5291 19.0702 14.5029C19.0178 14.4767 18.9608 14.4611 18.9024 14.457C18.844 14.453 18.7853 14.4605 18.7298 14.4791C18.6743 14.4978 18.623 14.5272 18.5789 14.5657C18.5348 14.6043 18.4988 14.6511 18.4729 14.7036C18.4469 14.7561 18.4316 14.8133 18.4279 14.8717C18.4241 14.9301 18.4319 14.9887 18.4508 15.0442C18.4698 15.0996 18.4995 15.1507 18.5382 15.1946L19.8613 16.711C19.309 17.3546 18.7404 17.984 18.156 18.5986L16.2893 16.9986C16.2454 16.958 16.1938 16.9267 16.1375 16.9066C16.0812 16.8864 16.0215 16.8779 15.9618 16.8813C15.9021 16.8848 15.8438 16.9003 15.7902 16.9269C15.7367 16.9534 15.689 16.9905 15.6502 17.0359C15.6113 17.0813 15.5819 17.1341 15.5639 17.1911C15.5459 17.2481 15.5396 17.3082 15.5453 17.3677C15.5511 17.4271 15.5687 17.4849 15.5973 17.5374C15.6259 17.5899 15.6647 17.6361 15.7116 17.6733L17.5413 19.2435C16.9484 19.8483 16.3419 20.4395 15.7222 21.0168L13.6222 19.2177C13.5779 19.1798 13.5265 19.1509 13.471 19.1329C13.4155 19.1148 13.357 19.1078 13.2988 19.1124C13.2406 19.1169 13.1838 19.1329 13.1318 19.1593C13.0798 19.1858 13.0335 19.2222 12.9956 19.2666C12.9576 19.3109 12.9288 19.3623 12.9107 19.4178C12.8926 19.4733 12.8857 19.5319 12.8902 19.59C12.8948 19.6482 12.9107 19.705 12.9372 19.757C12.9636 19.809 13.0001 19.8553 13.0444 19.8933L15.0667 21.6239C14.4444 22.1897 13.7969 22.7439 13.1404 23.2906C13.1031 23.1898 13.0721 23.0868 13.0476 22.9821C12.9618 22.4869 12.6857 22.0449 12.2782 21.7507C11.8706 21.4565 11.3642 21.3334 10.8671 21.4079C10.7243 21.4369 10.577 21.4359 10.4345 21.405C10.2921 21.3742 10.1576 21.3141 10.0395 21.2286C9.92148 21.1431 9.82246 21.034 9.74872 20.9083C9.67498 20.7826 9.62812 20.6429 9.61111 20.4981C9.52659 20.0026 9.25055 19.5601 8.84259 19.2663C8.43462 18.9725 7.92748 18.851 7.43067 18.9279C7.29733 18.9421 7.164 18.943 7.03067 18.9301C12.0884 15.3301 18.1298 10.6813 20.4084 7.53992C20.9639 6.95358 21.2918 6.18828 21.3333 5.3817C21.3564 3.98436 20.3751 2.87592 19.2049 2.09858C19.6932 2.33349 20.1456 2.63667 20.5484 2.99903C22.7164 4.98214 23.3289 8.52881 22.9738 11.1644Z" fill="#28211B"/>
<path d="M10.6527 7.9992C12.4709 7.9992 15.5056 7.47742 16.2873 5.83031C16.818 4.71208 15.8967 3.56364 14.8584 2.86231C13.8787 2.2416 12.7998 1.79334 11.6687 1.53697C11.4978 1.49363 11.3195 1.48832 11.1463 1.52142C10.9731 1.55452 10.8093 1.62522 10.6664 1.72853C10.4894 1.85605 10.3497 2.0285 10.2616 2.22808C7.17489 2.32897 4.88867 3.54053 4.88867 5.11031C4.88867 7.20586 8.38912 7.9992 10.6527 7.9992ZM13.9162 6.57697L14.0753 3.41875C14.1744 3.47786 14.27 3.53875 14.362 3.60053C16.0313 4.72586 15.9962 5.79697 13.9162 6.57697ZM11.0469 2.70275V2.69431C11.0506 2.64592 11.0649 2.59893 11.0887 2.55664C11.1125 2.51434 11.1453 2.47775 11.1847 2.44942C11.222 2.42162 11.2651 2.40256 11.3108 2.39363C11.3565 2.38471 11.4036 2.38616 11.4487 2.39786C12.0487 2.54675 12.6371 2.74186 13.2073 2.98142L13.0127 6.85075C12.2642 7.02433 11.4983 7.11141 10.73 7.11031L11.0469 2.70275ZM10.126 3.1232L9.84201 7.07875C7.39267 6.90186 5.77756 5.95075 5.77756 5.11031C5.77756 4.23164 7.53978 3.24808 10.126 3.1232Z" fill="#28211B"/>
<path d="M11.9995 4.44531C11.8816 4.44531 11.7686 4.49214 11.6852 4.57549C11.6019 4.65884 11.555 4.77188 11.555 4.88976V5.3342C11.555 5.45208 11.6019 5.56512 11.6852 5.64847C11.7686 5.73182 11.8816 5.77865 11.9995 5.77865C12.1174 5.77865 12.2304 5.73182 12.3138 5.64847C12.3971 5.56512 12.4439 5.45208 12.4439 5.3342V4.88976C12.4439 4.77188 12.3971 4.65884 12.3138 4.57549C12.2304 4.49214 12.1174 4.44531 11.9995 4.44531ZM7.38837 21.4315C7.29631 21.3579 7.17876 21.3238 7.06157 21.3368C6.94438 21.3498 6.83715 21.4088 6.76348 21.5009C6.68981 21.5929 6.65573 21.7105 6.66873 21.8277C6.68173 21.9449 6.74075 22.0521 6.83281 22.1258L9.05504 23.9035C9.1471 23.9772 9.26465 24.0113 9.38184 23.9983C9.49903 23.9853 9.60625 23.9263 9.67993 23.8342C9.7536 23.7421 9.78768 23.6246 9.77468 23.5074C9.76167 23.3902 9.70265 23.283 9.61059 23.2093L7.38837 21.4315Z" fill="#28211B"/>
</g>
<defs>
<clipPath id="clip0_577_67231">
<rect width="24" height="26.6667" fill="white"/>
</clipPath>
</defs>
</svg>
