<svg width="24" height="24" viewBox="0 0 24 24" fill="none" xmlns="http://www.w3.org/2000/svg">
<g clip-path="url(#clip0_577_67025)">
<path d="M12.75 5.25V4.5C12.75 2.43225 11.0677 0.75 9 0.75C6.93225 0.75 5.25 2.43225 5.25 4.5V5.25H0.75V20.25C0.75 21.9075 2.0925 23.25 3.75 23.25H11.76C11.1535 22.8242 10.6063 22.3198 10.1325 21.75H3.75C2.925 21.75 2.25 21.075 2.25 20.25V6.75H5.25V8.25H6.75V6.75H11.25V8.25H12.75V6.75H15.75V8.2875C15.9975 8.265 16.245 8.25 16.5 8.25C16.755 8.25 17.0025 8.265 17.25 8.2875V5.25H12.75ZM6.75 5.25V4.5C6.75 3.2595 7.7595 2.25 9 2.25C10.2405 2.25 11.25 3.2595 11.25 4.5V5.25H6.75ZM16.5 23.25C12.7778 23.25 9.75 20.2222 9.75 16.5C9.75 12.7778 12.7778 9.75 16.5 9.75C20.2222 9.75 23.25 12.7778 23.25 16.5C23.25 20.2222 20.2222 23.25 16.5 23.25ZM16.5 11.25C13.605 11.25 11.25 13.605 11.25 16.5C11.25 19.395 13.605 21.75 16.5 21.75C19.395 21.75 21.75 19.395 21.75 16.5C21.75 13.605 19.395 11.25 16.5 11.25ZM15.75 19.0605L13.1895 16.5L14.25 15.4395L15.75 16.9395L18.75 13.9395L19.8105 15L15.75 19.0605Z" fill="#28211B"/>
</g>
<defs>
<clipPath id="clip0_577_67025">
<rect width="24" height="24" fill="white"/>
</clipPath>
</defs>
</svg>
