<svg width="24" height="25" viewBox="0 0 24 25" fill="none" xmlns="http://www.w3.org/2000/svg">
<path d="M22.4446 5.41106L18.1589 3.69677C18.0565 3.65576 17.9423 3.65576 17.84 3.69677L13.5543 5.41106C13.4749 5.4429 13.4068 5.4978 13.3588 5.56868C13.3108 5.63956 13.2852 5.72318 13.2852 5.80877V10.2385C13.2874 11.0524 13.4992 11.8521 13.9002 12.5604C14.3012 13.2687 14.8778 13.8618 15.5746 14.2825L17.7792 15.6051C17.8457 15.6449 17.9219 15.666 17.9994 15.666C18.077 15.666 18.1532 15.6449 18.2197 15.6051L20.1423 14.4513V19.2513C20.1421 19.4377 20.0679 19.6163 19.9362 19.7481C19.8044 19.8799 19.6258 19.954 19.4394 19.9542H2.84516C2.65882 19.954 2.48017 19.8799 2.34841 19.7481C2.21665 19.6163 2.14253 19.4377 2.1423 19.2513V9.66592H11.9994C12.1131 9.66592 12.2221 9.62076 12.3025 9.54039C12.3829 9.46002 12.428 9.35101 12.428 9.23734C12.428 9.12368 12.3829 9.01467 12.3025 8.9343C12.2221 8.85393 12.1131 8.80877 11.9994 8.80877H2.1423V7.79734C2.14253 7.611 2.21665 7.43236 2.34841 7.3006C2.48017 7.16884 2.65882 7.09471 2.84516 7.09449H11.9994C12.1131 7.09449 12.2221 7.04933 12.3025 6.96896C12.3829 6.88859 12.428 6.77958 12.428 6.66592C12.428 6.55225 12.3829 6.44324 12.3025 6.36287C12.2221 6.2825 12.1131 6.23734 11.9994 6.23734H2.84516C2.43149 6.23757 2.03483 6.402 1.74232 6.69451C1.44981 6.98702 1.28538 7.38368 1.28516 7.79734V19.2488C1.28538 19.6624 1.44981 20.0591 1.74232 20.3516C2.03483 20.6441 2.43149 20.8085 2.84516 20.8088H19.4394C19.8531 20.8085 20.2498 20.6441 20.5423 20.3516C20.8348 20.0591 20.9992 19.6624 20.9994 19.2488V13.8659C21.5333 13.4233 21.9635 12.8689 22.2597 12.2418C22.556 11.6147 22.7109 10.9303 22.7137 10.2368V5.80877C22.7137 5.72318 22.6881 5.63956 22.6401 5.56868C22.5921 5.4978 22.524 5.4429 22.4446 5.41106ZM21.8566 10.2385C21.8548 10.9045 21.6815 11.5588 21.3533 12.1383C21.0251 12.7178 20.5531 13.203 19.9829 13.5471L17.9994 14.7376L16.016 13.5471C15.4458 13.203 14.9738 12.7178 14.6456 12.1383C14.3174 11.5588 14.1441 10.9045 14.1423 10.2385V6.09849L17.9994 4.55563L21.8566 6.09849V10.2385Z" fill="#28211B"/>
<path d="M16.5894 9.00752C16.5496 8.96767 16.5024 8.93605 16.4504 8.91447C16.3984 8.89288 16.3426 8.88175 16.2863 8.88171C16.23 8.88167 16.1742 8.89272 16.1222 8.91424C16.0701 8.93575 16.0228 8.9673 15.983 9.00709C15.9431 9.04688 15.9115 9.09413 15.8899 9.14614C15.8684 9.19815 15.8572 9.25391 15.8572 9.31022C15.8571 9.36653 15.8682 9.4223 15.8897 9.47434C15.9112 9.52638 15.9428 9.57367 15.9826 9.61352L17.126 10.7561C17.2064 10.8364 17.3154 10.8816 17.429 10.8816C17.5426 10.8816 17.6516 10.8364 17.732 10.7561L20.018 8.47009C20.0984 8.38962 20.1435 8.28052 20.1434 8.16679C20.1433 8.05306 20.098 7.94402 20.0176 7.86366C19.9371 7.7833 19.828 7.7382 19.7143 7.73828C19.6005 7.73836 19.4915 7.78362 19.4111 7.86409L17.4286 9.84752L16.5894 9.00752ZM4.28599 17.3801C4.17233 17.3801 4.06332 17.4252 3.98295 17.5056C3.90257 17.586 3.85742 17.695 3.85742 17.8087C3.85742 17.9223 3.90257 18.0313 3.98295 18.1117C4.06332 18.1921 4.17233 18.2372 4.28599 18.2372H7.71456C7.82823 18.2372 7.93724 18.1921 8.01761 18.1117C8.09798 18.0313 8.14314 17.9223 8.14314 17.8087C8.14314 17.695 8.09798 17.586 8.01761 17.5056C7.93724 17.4252 7.82823 17.3801 7.71456 17.3801H4.28599Z" fill="#28211B"/>
</svg>
