<svg width="24" height="24" viewBox="0 0 24 24" fill="none" xmlns="http://www.w3.org/2000/svg">
<path d="M12 0C5.37257 0 0 5.37257 0 12C0 18.6274 5.37257 24 12 24C18.6274 24 24 18.6274 24 12C23.9943 5.37497 18.625 0.00569211 12 0ZM12 22.9651C5.94418 22.9651 1.03493 18.0558 1.03493 12C1.03493 5.94418 5.94418 1.03493 12 1.03493C18.0558 1.03493 22.9651 5.94418 22.9651 12C22.9594 18.0535 18.0535 22.9594 12 22.9651Z" fill="black"/>
<path d="M19.0635 10.1405C18.9741 10.0499 18.8544 9.99535 18.7273 9.9874L14.3858 9.35609L12.466 5.42336C12.4231 5.33725 12.357 5.26481 12.2752 5.21418C12.1934 5.16354 12.0991 5.13672 12.0029 5.13672C11.9066 5.13672 11.8123 5.16354 11.7305 5.21418C11.6487 5.26481 11.5826 5.33725 11.5397 5.42336L9.59924 9.36126L5.27324 9.9874C5.1774 10.0013 5.0874 10.0418 5.01345 10.1043C4.9395 10.1669 4.88458 10.2489 4.85493 10.3411C4.82528 10.4332 4.82209 10.5319 4.84573 10.6258C4.86936 10.7197 4.91887 10.8051 4.98863 10.8723L8.12964 13.9356L7.34309 18.2617C7.32732 18.3566 7.33833 18.454 7.37489 18.5431C7.41145 18.6321 7.47212 18.7091 7.55006 18.7656C7.62801 18.822 7.72015 18.8556 7.81613 18.8626C7.91212 18.8695 8.00814 18.8496 8.09342 18.805L12.0003 16.7662L15.8864 18.8102C15.9726 18.8613 16.0718 18.8863 16.1719 18.8821C16.272 18.878 16.3688 18.8448 16.4504 18.7868C16.5321 18.7287 16.5951 18.6481 16.6318 18.5549C16.6686 18.4617 16.6775 18.3598 16.6575 18.2617L15.9175 13.9356L19.0585 10.8723C19.1562 10.7759 19.2116 10.6447 19.2126 10.5074C19.2135 10.3702 19.1599 10.2382 19.0635 10.1405ZM14.955 13.382C14.8943 13.4407 14.8489 13.5133 14.8228 13.5936C14.7966 13.6739 14.7905 13.7593 14.8049 13.8425L15.4155 17.4027L12.2176 15.7209C12.1434 15.6819 12.0608 15.6616 11.977 15.6616C11.8932 15.6616 11.8106 15.6819 11.7364 15.7209L8.53844 17.4027L9.14904 13.8425C9.1635 13.7593 9.15738 13.6739 9.13123 13.5936C9.10507 13.5133 9.05967 13.4407 8.99898 13.382L6.41166 10.8619L9.98734 10.3444C10.0702 10.332 10.1489 10.2996 10.2165 10.25C10.2841 10.2004 10.3386 10.1352 10.3754 10.0598L12.0003 6.82569L13.5992 10.065C13.636 10.1403 13.6906 10.2056 13.7582 10.2552C13.8258 10.3048 13.9044 10.3372 13.9873 10.3496L17.563 10.8671L14.955 13.382Z" fill="black"/>
</svg>
