<svg width="21" height="22" viewBox="0 0 21 22" fill="none" xmlns="http://www.w3.org/2000/svg">
<path d="M10 11.75C6.83 11.75 4.25 9.17 4.25 6C4.25 2.83 6.83 0.25 10 0.25C13.17 0.25 15.75 2.83 15.75 6C15.75 9.17 13.17 11.75 10 11.75ZM10 1.75C7.66 1.75 5.75 3.66 5.75 6C5.75 8.34 7.66 10.25 10 10.25C12.34 10.25 14.25 8.34 14.25 6C14.25 3.66 12.34 1.75 10 1.75ZM13.82 21.75C13.44 21.75 13.08 21.61 12.82 21.35C12.51 21.04 12.37 20.59 12.44 20.12L12.63 18.77C12.68 18.42 12.89 18.01 13.14 17.75L16.68 14.21C18.1 12.79 19.35 13.6 19.96 14.21C20.48 14.73 20.75 15.29 20.75 15.85C20.75 16.42 20.49 16.95 19.96 17.48L16.42 21.02C16.17 21.27 15.75 21.48 15.4 21.53L14.05 21.72C13.97 21.74 13.9 21.75 13.82 21.75ZM18.31 14.92C18.13 14.92 17.97 15.04 17.74 15.27L14.2 18.81C14.1595 18.8591 14.132 18.9175 14.12 18.98L13.94 20.23L15.19 20.05C15.23 20.04 15.33 19.99 15.36 19.96L18.9 16.42C19.06 16.26 19.25 16.03 19.25 15.85C19.25 15.7 19.13 15.49 18.9 15.27C18.66 15.03 18.48 14.92 18.31 14.92Z" fill="#28211B"/>
<path d="M18.9202 18.22C18.8502 18.22 18.7802 18.21 18.7202 18.19C18.0677 18.0048 17.4735 17.6559 16.9939 17.1763C16.5143 16.6967 16.1653 16.1025 15.9802 15.45C15.8702 15.05 16.1002 14.64 16.5002 14.53C16.9002 14.42 17.3102 14.65 17.4202 15.05C17.6502 15.87 18.3002 16.52 19.1202 16.75C19.2941 16.7989 19.4444 16.9091 19.5435 17.0601C19.6426 17.2112 19.6838 17.393 19.6595 17.572C19.6351 17.751 19.5469 17.9152 19.411 18.0343C19.2751 18.1533 19.1008 18.2193 18.9202 18.22ZM1.41016 21.75C1.00016 21.75 0.660156 21.41 0.660156 21C0.660156 16.73 4.85016 13.25 10.0002 13.25C11.0902 13.25 12.1702 13.41 13.1802 13.71C13.5802 13.83 13.8002 14.25 13.6802 14.64C13.5602 15.04 13.1402 15.26 12.7502 15.14C11.8702 14.88 10.9502 14.74 10.0002 14.74C5.68016 14.74 2.16016 17.54 2.16016 20.99C2.16016 21.41 1.82016 21.75 1.41016 21.75Z" fill="#28211B"/>
</svg>
