<svg width="24" height="25" viewBox="0 0 24 25" fill="none" xmlns="http://www.w3.org/2000/svg">
<path d="M9 10.666C6.243 10.666 4 8.42302 4 5.66602C4 2.90902 6.243 0.666016 9 0.666016C11.757 0.666016 14 2.90902 14 5.66602C14 8.42302 11.757 10.666 9 10.666ZM9 1.66602C6.794 1.66602 5 3.46002 5 5.66602C5 7.87202 6.794 9.66602 9 9.66602C11.206 9.66602 13 7.87202 13 5.66602C13 3.46002 11.206 1.66602 9 1.66602ZM8.5 21.666H0.5C0.367392 21.666 0.240215 21.6133 0.146447 21.5196C0.0526784 21.4258 0 21.2986 0 21.166V17.166C0 14.685 2.019 12.666 4.5 12.666H10.5C10.6326 12.666 10.7598 12.7187 10.8536 12.8125C10.9473 12.9062 11 13.0334 11 13.166C11 13.2986 10.9473 13.4258 10.8536 13.5196C10.7598 13.6133 10.6326 13.666 10.5 13.666H4.5C2.57 13.666 1 15.236 1 17.166V20.666H8.5C8.63261 20.666 8.75979 20.7187 8.85355 20.8125C8.94732 20.9062 9 21.0334 9 21.166C9 21.2986 8.94732 21.4258 8.85355 21.5196C8.75979 21.6133 8.63261 21.666 8.5 21.666ZM17 20.666C15.622 20.666 14.5 19.544 14.5 18.166C14.5 16.788 15.622 15.666 17 15.666C18.378 15.666 19.5 16.788 19.5 18.166C19.5 19.544 18.378 20.666 17 20.666ZM17 16.666C16.173 16.666 15.5 17.339 15.5 18.166C15.5 18.993 16.173 19.666 17 19.666C17.827 19.666 18.5 18.993 18.5 18.166C18.5 17.339 17.827 16.666 17 16.666Z" fill="#28211B"/>
<path d="M17.7966 24.667H16.2016C15.9533 24.6679 15.7136 24.5759 15.5295 24.4093C15.3455 24.2426 15.2303 24.0132 15.2066 23.766L15.0796 22.495C14.7742 22.3586 14.4842 22.19 14.2146 21.992L13.0466 22.519C12.8207 22.622 12.5645 22.6369 12.3282 22.5606C12.0919 22.4844 11.8927 22.3226 11.7696 22.107L10.9726 20.726C10.8481 20.5114 10.808 20.2581 10.8602 20.0155C10.9123 19.7729 11.0529 19.5585 11.2546 19.414L12.2836 18.674C12.2636 18.519 12.2496 18.347 12.2496 18.167C12.2496 17.987 12.2636 17.814 12.2836 17.66L11.2546 16.92C11.0529 16.7755 10.9123 16.561 10.8602 16.3184C10.808 16.0759 10.8481 15.8226 10.9726 15.608L11.7696 14.227C11.8929 14.0115 12.0921 13.8499 12.3283 13.7737C12.5645 13.6975 12.8207 13.7122 13.0466 13.815L14.2146 14.342C14.4876 14.142 14.7766 13.974 15.0796 13.839L15.2066 12.568C15.2305 12.321 15.3458 12.0918 15.5298 11.9253C15.7139 11.7588 15.9535 11.6671 16.2016 11.668H17.7966C18.3126 11.668 18.7406 12.055 18.7916 12.569L18.9186 13.84C19.2226 13.975 19.5116 14.144 19.7836 14.343L20.9516 13.816C21.1776 13.7137 21.4336 13.6992 21.6697 13.7753C21.9058 13.8515 22.105 14.0129 22.2286 14.228L23.0256 15.609C23.1501 15.8236 23.1902 16.0769 23.1381 16.3194C23.0859 16.562 22.9453 16.7765 22.7436 16.921L21.7146 17.661C21.7346 17.816 21.7486 17.988 21.7486 18.168C21.7486 18.348 21.7346 18.521 21.7146 18.675L22.7436 19.415C23.1616 19.716 23.2836 20.28 23.0256 20.727L22.2296 22.107C22.1064 22.3224 21.9071 22.4841 21.6709 22.5603C21.4347 22.6365 21.1785 22.6218 20.9526 22.519L19.7846 21.992C19.5116 22.192 19.2226 22.36 18.9196 22.495L18.7916 23.767C18.7677 24.014 18.6524 24.2432 18.4684 24.4096C18.2843 24.5761 18.0448 24.6679 17.7966 24.667ZM14.2846 20.912C14.402 20.9121 14.5157 20.9535 14.6056 21.029C14.9446 21.313 15.3196 21.53 15.7186 21.676C15.807 21.7082 15.8844 21.7648 15.9421 21.8391C15.9997 21.9133 16.0353 22.0024 16.0446 22.096L16.2026 23.667H17.7976L17.9546 22.096C17.964 22.0024 17.9995 21.9133 18.0572 21.8391C18.1148 21.7648 18.1923 21.7082 18.2806 21.676C18.6862 21.5262 19.0627 21.3073 19.3936 21.029C19.4657 20.9688 19.5532 20.9301 19.6463 20.9174C19.7393 20.9047 19.834 20.9184 19.9196 20.957L21.3636 21.609L22.1606 20.228L20.8826 19.31C20.8063 19.2548 20.7471 19.1794 20.7115 19.0922C20.676 19.0051 20.6656 18.9097 20.6816 18.817C20.7186 18.606 20.7486 18.391 20.7486 18.169C20.7486 17.947 20.7186 17.732 20.6816 17.521C20.6655 17.4282 20.6758 17.3328 20.7114 17.2456C20.7469 17.1585 20.8063 17.083 20.8826 17.028L22.1606 16.11L21.3636 14.729L19.9196 15.38C19.8339 15.4187 19.739 15.4324 19.6458 15.4197C19.5526 15.407 19.4648 15.3682 19.3926 15.308C19.0624 15.0287 18.6857 14.8097 18.2796 14.661C18.1913 14.6287 18.1138 14.5722 18.0562 14.4979C17.9985 14.4236 17.963 14.3346 17.9536 14.241L17.7966 12.667H16.2016L16.0446 14.238C16.0353 14.3316 15.9997 14.4206 15.9421 14.4949C15.8844 14.5692 15.807 14.6257 15.7186 14.658C15.313 14.8078 14.9365 15.0267 14.6056 15.305C14.5337 15.3655 14.4461 15.4044 14.353 15.4171C14.2599 15.4298 14.1651 15.4159 14.0796 15.377L12.6356 14.725L11.8386 16.106L13.1166 17.024C13.1929 17.0791 13.2522 17.1546 13.2877 17.2417C13.3232 17.3289 13.3336 17.4242 13.3176 17.517C13.2806 17.728 13.2506 17.943 13.2506 18.165C13.2506 18.387 13.2806 18.602 13.3176 18.813C13.3337 18.9057 13.3234 19.0011 13.2879 19.0883C13.2523 19.1755 13.193 19.2509 13.1166 19.306L11.8386 20.224L12.6356 21.605L14.0796 20.954C14.1444 20.9263 14.2141 20.912 14.2846 20.912Z" fill="#28211B"/>
</svg>
